<svg width="31" height="31" viewBox="0 0 31 31" fill="none" xmlns="http://www.w3.org/2000/svg">
<g clip-path="url(#clip0_1_72)">
<path d="M15.5253 0.420001C18.3803 0.420001 20.2738 4.80585 20.2738 7.05606V9.54903L29.7709 15.4728C30.3644 15.829 30.7206 16.4225 30.7206 17.1348V20.9871C30.7206 21.5806 30.4832 22.1742 30.0083 22.5303C29.5335 22.8805 28.8271 22.9992 28.287 22.8212L20.2738 20.2748V21.7587L23.3604 24.0677C23.8352 24.4238 24.0726 24.958 24.0726 25.5516V28.929C24.0726 29.4632 23.8352 30.0568 23.3604 30.4129C22.8855 30.769 22.2919 30.8818 21.6984 30.7097L15.5253 28.929L9.3522 30.769C8.81799 30.8818 8.22442 30.769 7.74957 30.4129C7.27471 30.0568 6.97793 29.4632 6.97793 28.929V25.5516C6.97793 24.958 7.27471 24.4238 7.74957 24.0677L10.7768 21.7587V20.2748L2.76361 22.8212C2.2294 22.9992 1.57648 22.8805 1.10162 22.5303C0.62677 22.1742 0.329987 21.5806 0.329987 20.9871V17.1348C0.329987 16.4819 0.745483 15.7696 1.27969 15.5322L10.7768 9.60839V7.11541C10.7768 4.80585 12.6762 0.420001 15.5253 0.420001ZM15.5253 3.3243C14.9317 3.44302 13.6259 5.57629 13.6259 7.11541V11.1457L3.17911 17.669V19.6812L13.6259 16.4225V23.1773L9.82705 26.0264V27.6231L15.5253 25.9671L21.2235 27.6231V26.0264L17.4247 23.1773V16.4225L27.8715 19.6812V17.669L17.4247 11.1457V7.11541C17.4247 5.51694 16.1782 3.38366 15.5253 3.3243Z" fill="#FE7112"/>
</g>
<defs>
<clipPath id="clip0_1_72">
<rect width="30.3906" height="30.3906" fill="white" transform="translate(0.329987 0.419983)"/>
</clipPath>
</defs>
</svg>
