<svg width="32" height="31" viewBox="0 0 32 31" fill="none" xmlns="http://www.w3.org/2000/svg">
<g clip-path="url(#clip0_1_82)">
<path d="M14.8562 8.80114C15.4142 8.24319 16.3164 8.24319 16.8209 8.80114L21.7594 13.6862C23.0593 14.9861 23.0593 17.0873 21.7594 18.3872C20.4654 19.6871 18.3583 19.6871 17.0584 18.3872L16.8209 18.1973C16.8565 18.1795 16.8328 18.1617 16.7616 18.1439V20.3104H17.7113C18.287 20.3104 18.661 20.7912 18.661 21.2601C18.661 21.8359 18.287 22.2098 17.7113 22.2098H13.9125C13.4435 22.2098 12.9627 21.8359 12.9627 21.2601C12.9627 20.7912 13.4435 20.3104 13.9125 20.3104H14.8622V18.1439C14.8978 18.1617 14.874 18.1795 14.8562 18.1973L14.6722 18.3872C13.3189 19.6871 11.2651 19.6871 9.96939 18.3872C8.67126 17.0873 8.67126 14.9861 9.96939 13.6862L14.8562 8.80114ZM4.46881 4.21881C4.46881 2.12055 6.16938 0.419983 8.26764 0.419983H23.4629C25.5582 0.419983 27.2618 2.12055 27.2618 4.21881V27.0118C27.2618 29.107 25.5582 30.8106 23.4629 30.8106H8.26764C6.16938 30.8106 4.46881 29.107 4.46881 27.0118V4.21881ZM7.31793 4.21881V27.0118C7.31793 27.5341 7.74292 27.9615 8.26764 27.9615H23.4629C23.9853 27.9615 24.4126 27.5341 24.4126 27.0118V4.21881C24.4126 3.6941 23.9853 3.2691 23.4629 3.2691H8.26764C7.74292 3.2691 7.31793 3.6941 7.31793 4.21881Z" fill="#FE7112"/>
</g>
<defs>
<clipPath id="clip0_1_82">
<rect width="30.3906" height="30.3906" fill="white" transform="translate(0.669983 0.419983)"/>
</clipPath>
</defs>
</svg>
