<svg width="32" height="31" viewBox="0 0 32 31" fill="none" xmlns="http://www.w3.org/2000/svg">
<g clip-path="url(#clip0_1_43)">
<path d="M9.10898 11.7357C9.25144 11.2086 9.79277 10.8952 10.2819 11.0377L15.2108 12.3435C16.4455 12.6759 17.1767 13.9438 16.8491 15.1784C16.5167 16.413 15.2488 17.1443 14.0142 16.8119L13.5963 16.7027C13.5774 16.698 13.5584 16.6932 13.5394 16.6885L14.3846 18.1463L14.9544 17.8186C15.2726 17.6334 15.6762 17.7426 15.8566 18.056C16.0418 18.3742 15.9326 18.7778 15.6145 18.963L13.3257 20.2831C13.0123 20.4635 12.6087 20.3591 12.4235 20.0409C12.243 19.7228 12.3475 19.3191 12.6656 19.1387L13.2402 18.8063L12.395 17.3485C12.3902 17.3675 12.3855 17.3865 12.3807 17.4007L12.2668 17.8234C11.8964 19.058 10.6713 19.7892 9.43663 19.4568C8.20201 19.0865 7.47074 17.8566 7.79839 16.6267L9.10898 11.7357ZM11.45 3.81367C12.7131 3.08363 14.3324 3.51688 15.0636 4.78151L22.9937 18.5166C23.7202 19.7845 23.2881 21.399 22.025 22.1303L12.8651 27.4154C11.602 28.1467 9.98746 27.7145 9.25619 26.4514L1.32462 12.7139C0.594582 11.4461 1.02784 9.83157 2.29247 9.1003L11.45 3.81367ZM12.5897 5.78773L3.43211 11.0757C3.25784 11.1754 3.19801 11.3986 3.29868 11.5743L11.2316 25.3118C11.3313 25.4827 11.5545 25.5445 11.7254 25.402L20.8853 20.1549C21.061 20.0552 21.118 19.832 21.0183 19.6563L13.0883 5.92116C12.9885 5.74689 12.7654 5.68706 12.5897 5.78773ZM16.36 27.1542L22.7848 23.4456C24.7744 22.2965 25.4582 19.7513 24.309 17.7569L17.813 6.50998C17.8985 6.5019 17.9792 6.45537 18.0647 6.45537H28.7014C30.1687 6.45537 31.3606 7.68856 31.3606 9.11455V25.1123C31.3606 26.5796 30.1687 27.7715 28.7014 27.7715H18.0647C17.4189 27.7715 16.8206 27.5388 16.36 27.1115V27.1542ZM28.502 9.9028C27.8372 9.34248 26.8637 9.45169 26.2749 10.0548L26.047 10.3064L25.8096 10.0548C25.216 9.45169 24.2331 9.34248 23.592 9.9028C22.8465 10.5439 22.8085 11.6788 23.4733 12.3673L25.7763 14.7416C25.9188 14.8935 26.1657 14.8935 26.3224 14.7416L28.6065 12.3673C29.2712 11.6788 29.238 10.5439 28.502 9.9028Z" fill="#FE7112"/>
</g>
<defs>
<clipPath id="clip0_1_43">
<rect width="30.3906" height="30.3906" fill="white" transform="translate(0.970001 0.419983)"/>
</clipPath>
</defs>
</svg>
