<svg width="27" height="28" viewBox="0 0 27 28" fill="none" xmlns="http://www.w3.org/2000/svg">
<g clip-path="url(#clip0_3_1810)">
<path d="M25.64 1.89873C25.8831 1.7505 25.9911 1.46753 25.9371 1.18456C25.8831 0.91506 25.6535 0.712936 25.3835 0.659036C21.9676 0.12004 19.3887 1.03633 17.674 2.11433C19.5237 2.6668 21.2115 3.59657 22.6022 4.83626C24.1413 2.8824 25.6265 1.9122 25.64 1.89873Z" fill="#FE7112"/>
<path d="M4.40157 4.83626C5.79226 3.59657 7.47999 2.6668 9.32971 2.11433C7.61501 1.03633 5.03616 0.12004 1.62018 0.659036C1.35015 0.712936 1.12062 0.91506 1.06661 1.18456C1.0126 1.46753 1.12062 1.7505 1.36365 1.89873C1.37716 1.9122 2.86236 2.8824 4.40157 4.83626Z" fill="#FE7112"/>
<path d="M25.6535 16.9233C24.9109 16.9233 24.3034 17.5297 24.3034 18.2708C24.3034 19.0119 23.7228 19.5643 23.0072 19.5643H22.1701C22.8047 18.1225 23.2637 16.6672 23.5068 15.4007C24.6949 14.9694 25.775 14.1609 26.6797 13.029C27.0442 12.5844 27.0712 11.9511 26.7607 11.4659C25.586 9.64684 23.9253 8.50147 22.0891 8.24546C20.1988 5.71217 16.9853 4.17603 13.5019 4.17603C10.0184 4.17603 6.80494 5.72564 4.91468 8.24546C3.07843 8.50147 1.4177 9.64684 0.243034 11.4659C-0.0675093 11.9511 -0.0405056 12.5844 0.324045 13.029C1.22867 14.1609 2.30882 14.9694 3.49698 15.4007C3.75352 16.6672 4.21258 18.1225 4.83367 19.5643H3.99655C3.28096 19.5643 2.70037 18.985 2.70037 18.2708C2.70037 17.5566 2.09279 16.9233 1.35019 16.9233C0.607584 16.9233 0 17.5297 0 18.2708C0 20.4672 1.79575 22.2593 3.99655 22.2593H6.22436C8.00661 25.1565 10.5045 27.5011 13.4884 27.5011C16.4722 27.5011 18.9701 25.1565 20.7524 22.2593H22.9802C25.1809 22.2593 26.9767 20.4672 26.9767 18.2708C26.9767 17.5297 26.3691 16.9233 25.6265 16.9233H25.6535ZM11.4496 15.3468C11.1796 15.6162 10.842 15.7375 10.491 15.7375C10.1399 15.7375 9.8024 15.6028 9.5323 15.3468L8.49267 14.3091C7.9661 13.7836 7.9661 12.9347 8.49267 12.4092C9.01925 11.8837 9.8699 11.8837 10.3964 12.4092L11.4361 13.4468C11.9627 13.9723 11.9627 14.8212 11.4361 15.3468H11.4496ZM18.511 14.3091L17.4714 15.3468C17.2013 15.6162 16.8638 15.7375 16.5127 15.7375C16.1617 15.7375 15.8241 15.6028 15.5541 15.3468C15.0275 14.8212 15.0275 13.9723 15.5541 13.4468L16.5938 12.4092C17.1203 11.8837 17.971 11.8837 18.4975 12.4092C19.0241 12.9347 19.0241 13.7836 18.4975 14.3091H18.511Z" fill="#FE7112"/>
</g>
<defs>
<clipPath id="clip0_3_1810">
<rect width="27" height="27" fill="white" transform="translate(0 0.5)"/>
</clipPath>
</defs>
</svg>
