<svg width="32" height="31" viewBox="0 0 32 31" fill="none" xmlns="http://www.w3.org/2000/svg">
<g clip-path="url(#clip0_1_59)">
<path d="M26.2469 11.0761L20.7247 5.55409C20.2245 5.05383 19.4135 5.05383 18.9132 5.55409L17.573 6.89436C16.2469 6.40781 14.8209 6.12866 13.3262 6.12866C6.50757 6.12866 0.97998 11.6562 0.97998 18.4748C0.97998 25.2934 6.50757 30.821 13.3262 30.821C20.1448 30.821 25.6723 25.2934 25.6723 18.4748C25.6723 16.9801 25.3932 15.554 24.9066 14.2279L26.2469 12.8878C26.7471 12.3875 26.7471 11.5765 26.2469 11.0761ZM13.3262 11.8269C9.66089 11.8269 6.67822 14.8096 6.67822 18.4748C6.67822 18.9997 6.25346 19.4245 5.72851 19.4245C5.20356 19.4245 4.77881 18.9997 4.77881 18.4748C4.77881 13.7615 8.61289 9.92748 13.3262 9.92748C13.8511 9.92748 14.2759 10.3522 14.2759 10.8772C14.2759 11.4021 13.8511 11.8269 13.3262 11.8269Z" fill="#FE7112"/>
<path opacity="0.4" d="M23.5844 6.86469L22.8232 7.62582L24.1648 8.96734L24.9259 8.20621C25.2966 7.83565 25.2966 7.23531 24.9259 6.86469C24.5553 6.49407 23.955 6.49413 23.5844 6.86469ZM31.1958 3.93206L28.8409 2.95006L27.8589 0.595322C27.8107 0.498393 27.6842 0.419983 27.5762 0.419983C27.468 0.419983 27.3414 0.498393 27.2932 0.595322L26.3112 2.95006L23.9563 3.93206C23.8601 3.98019 23.7817 4.1068 23.7817 4.21483C23.7817 4.32233 23.8601 4.44959 23.9563 4.49778L26.3112 5.47972L27.2932 7.8344C27.3414 7.93133 27.468 8.0098 27.5762 8.0098C27.6842 8.0098 27.8107 7.93133 27.8589 7.8344L28.8409 5.47972L31.1958 4.49778C31.2922 4.44959 31.3706 4.32233 31.3706 4.21483C31.3706 4.1068 31.2922 3.98019 31.1958 3.93206Z" fill="#FE7112"/>
</g>
<defs>
<clipPath id="clip0_1_59">
<rect width="30.3906" height="30.3906" fill="white" transform="translate(0.97998 0.419983)"/>
</clipPath>
</defs>
</svg>
