<svg width="31" height="31" viewBox="0 0 31 31" fill="none" xmlns="http://www.w3.org/2000/svg">
<g clip-path="url(#clip0_1_77)">
<path d="M24.2175 8.9139C24.2175 10.2791 23.155 11.2882 21.8432 11.2882C20.5315 11.2882 19.469 10.2791 19.469 8.9139C19.469 7.65554 20.5315 6.53964 21.8432 6.53964C23.155 6.53964 24.2175 7.65554 24.2175 8.9139ZM22.7929 18.9452V23.8184C22.7929 25.3319 21.9976 26.7268 20.6977 27.4985L15.4446 30.6088C15.0054 30.8699 14.4593 30.8759 14.0141 30.6266C13.5689 30.3713 13.2959 29.8965 13.2959 29.386V22.5778C13.2959 21.2304 12.7617 19.8949 11.812 18.9452C10.8623 17.9955 9.58016 17.5147 8.23276 17.5147H1.42455C0.912901 17.5147 0.440066 17.2416 0.186731 16.7965C-0.0666621 16.3513 -0.0618542 15.8052 0.199256 15.366L3.31388 10.1129C4.08314 8.81299 5.48039 7.96419 6.99221 7.96419H11.8654C16.7208 0.194529 24.265 -0.0872961 28.7227 0.732894C29.4171 0.859858 29.9514 1.39638 30.076 2.08611C30.8951 6.54557 30.6161 14.0898 22.7929 18.9452ZM11.7467 15.4906C12.5124 15.8646 13.2128 16.3691 13.7767 16.9805C14.4415 17.5978 14.946 18.2982 15.3199 19.0639C21.5999 17.2832 24.6211 14.3391 26.0991 11.579C27.583 8.80706 27.6661 5.78996 27.405 3.40739C25.0188 3.0922 22.0035 3.22991 19.1781 4.71323C16.4715 6.18706 13.5274 9.21068 11.7467 15.4906ZM2.49179 20.9277C4.53306 18.8858 7.84101 18.8858 9.88288 20.9277C11.9247 22.9696 11.9247 26.2757 9.88288 28.3176C6.94472 31.2557 0.0282788 30.7809 0.0282788 30.7809C0.0282788 30.7809 -0.446129 23.8124 2.49179 20.9277ZM3.83325 26.9761C3.83325 26.9761 6.13154 27.1364 7.11092 26.157C7.78759 25.4803 7.78759 24.3763 7.11092 23.6996C6.42832 23.023 5.33082 23.023 4.65237 23.6996C3.67536 24.679 3.83325 26.9761 3.83325 26.9761Z" fill="#FE7112"/>
</g>
<defs>
<clipPath id="clip0_1_77">
<rect width="30.3906" height="30.3906" fill="white" transform="translate(0 0.419983)"/>
</clipPath>
</defs>
</svg>
