<svg width="29" height="24" viewBox="0 0 29 24" fill="none" xmlns="http://www.w3.org/2000/svg">
<path d="M27.848 14.3108C24.5915 14.3108 21.335 14.3357 18.0785 14.2962C16.3772 14.2755 15.0174 13.5429 14.2748 11.9367C13.5795 10.4301 13.7605 8.9712 14.7952 7.67625C15.6161 6.64902 16.7269 6.18417 18.0374 6.18624C21.6312 6.19247 25.2251 6.18832 28.8766 6.18832C29.5658 2.06484 27.2453 0.0373447 24.3796 0.0248933C17.7967 -0.00623505 11.2158 -0.0103855 4.6328 0.0269686C1.87207 0.0435704 0.0597014 1.876 0.0329581 4.66303C-0.0122997 9.57301 -0.0122997 14.4851 0.0350153 19.3951C0.0597014 22.1095 1.80624 23.9398 4.47029 23.9606C11.189 24.0187 17.9098 24.0083 24.6285 23.9647C26.7968 23.9502 28.6236 22.593 28.856 20.5987C29.0926 18.567 28.9075 16.4835 28.9075 14.3108H27.848ZM5.77865 21.7152C4.70892 21.7338 4.84469 20.744 4.86115 20.0031C4.87761 19.2519 4.6328 18.1956 5.80951 18.2205C6.88541 18.2433 6.65089 19.2498 6.68175 19.7292C6.69821 20.7315 6.81958 21.6986 5.77865 21.7152ZM5.71282 16.4773C4.64103 16.4462 4.86115 15.4335 4.86321 14.7133C4.86321 13.9663 4.60606 12.9121 5.80128 12.9453C6.87307 12.9764 6.63443 13.9849 6.69821 14.6698C6.65295 15.4667 6.85867 16.5084 5.71282 16.4773ZM4.85292 9.4734V9.30323C4.85292 9.25965 4.85086 9.21607 4.85086 9.17042C4.84881 9.12476 4.84881 9.07911 4.84881 9.03345C4.84469 8.84876 4.84881 8.65991 4.87143 8.48767C4.87143 8.47107 4.87555 8.45239 4.87966 8.43579C4.88172 8.41296 4.88583 8.39221 4.89201 8.36938C4.89406 8.36108 4.89612 8.35278 4.89818 8.34448C4.91875 8.25317 4.94961 8.16808 4.99281 8.0913C5.00515 8.06847 5.01749 8.04772 5.03395 8.02697C5.04012 8.01659 5.04835 8.00622 5.05658 7.99791C5.11212 7.92528 5.18412 7.8651 5.27464 7.81945C5.29933 7.80699 5.32813 7.79454 5.35693 7.78417C5.3919 7.76964 5.42687 7.75926 5.46596 7.75096H5.46802C5.5071 7.74266 5.54825 7.73436 5.59145 7.73021C5.6367 7.72606 5.68196 7.72191 5.73133 7.72191C6.87512 7.70738 6.63855 8.76575 6.68792 9.52113C6.69821 9.69338 6.68792 9.86562 6.68792 10.0358C6.68175 10.6895 6.48426 11.2373 5.73339 11.2249C4.96401 11.2104 4.83852 10.6252 4.85086 9.98806C4.85292 9.92373 4.85292 9.86147 4.85292 9.79714C4.85292 9.68922 4.85086 9.58131 4.85086 9.4734H4.85292ZM6.67969 4.93696C6.66735 5.37898 6.51306 5.7878 6.1942 5.93514C6.06048 5.9974 5.91237 5.98287 5.71693 5.97042C5.45156 5.95174 5.23967 5.93721 5.08538 5.79817C5.03807 5.75459 4.92698 5.63631 4.87349 4.91205C4.85292 4.61945 4.85086 4.37457 4.85498 4.20025C4.85498 4.20025 4.82412 3.945 4.83029 3.76445C4.83852 3.53825 4.84881 3.18546 5.08538 2.89286C5.0895 2.88871 5.09361 2.88248 5.09978 2.87625C5.1615 2.80155 5.41659 2.52347 5.79716 2.51517C5.85271 2.51517 6.10985 2.50894 6.31969 2.68533C6.48837 2.82645 6.54803 3.01945 6.60358 3.30168C6.71466 3.86199 6.69615 4.29779 6.67969 4.93696Z" fill="white"/>
<path d="M20.4339 10.1997C20.4462 11.2415 19.502 12.2065 18.4796 12.1961C17.4263 12.1857 16.552 11.2436 16.5787 10.152C16.6034 9.10192 17.4592 8.28428 18.5207 8.29465C19.5431 8.30295 20.4195 9.1787 20.4339 10.1997Z" fill="white"/>
</svg>
