<svg width="40" height="40" viewBox="0 0 40 40" fill="none" xmlns="http://www.w3.org/2000/svg">
<rect width="40" height="40" rx="20" fill="white" fill-opacity="0.2"/>
<g clip-path="url(#clip0_1_684)">
<g clip-path="url(#clip1_1_684)">
<path d="M27 28C26.7348 28 26.4805 27.8946 26.293 27.707L12.293 13.707C12.1056 13.5195 12.0002 13.2652 12.0002 13C12.0002 12.7349 12.1056 12.4806 12.293 12.293C12.4806 12.1056 12.7349 12.0002 13 12.0002C13.2652 12.0002 13.5195 12.1056 13.707 12.293L27.707 26.293C27.8468 26.4329 27.942 26.611 27.9806 26.805C28.0192 26.999 27.9994 27.2 27.9237 27.3827C27.848 27.5654 27.7199 27.7215 27.5555 27.8314C27.3911 27.9413 27.1978 28 27 28Z" fill="white"/>
<path d="M13 28C12.7348 28 12.4805 27.8946 12.293 27.707C12.1056 27.5195 12.0002 27.2652 12.0002 27C12.0002 26.7349 12.1056 26.4806 12.293 26.293L26.293 12.293C26.4806 12.1056 26.7349 12.0002 27 12.0002C27.2652 12.0002 27.5195 12.1056 27.707 12.293C27.8945 12.4806 27.9998 12.7349 27.9998 13C27.9998 13.2652 27.8945 13.5195 27.707 13.707L13.707 27.707C13.5195 27.8946 13.2652 28 13 28Z" fill="white"/>
</g>
</g>
<defs>
<clipPath id="clip0_1_684">
<rect width="16" height="16" fill="white" transform="translate(12 12)"/>
</clipPath>
<clipPath id="clip1_1_684">
<rect width="16" height="16" fill="white" transform="translate(12 12)"/>
</clipPath>
</defs>
</svg>
