<svg width="29" height="30" viewBox="0 0 29 30" fill="none" xmlns="http://www.w3.org/2000/svg">
<g clip-path="url(#clip0_1_669)">
<path d="M14.5 0C6.50446 0 0 6.72875 0 15C0 23.2712 6.50446 30 14.5 30C22.4955 30 29 23.2712 29 15C29 6.72875 22.4955 0 14.5 0ZM14.5 27.5C7.83725 27.5 2.41667 21.8925 2.41667 15C2.41667 8.1075 7.83725 2.5 14.5 2.5C21.1628 2.5 26.5833 8.1075 26.5833 15C26.5833 21.8925 21.1628 27.5 14.5 27.5ZM19.3333 17.5C19.3333 19.5675 17.7069 21.25 15.7083 21.25V22.5C15.7083 23.1912 15.1682 23.75 14.5 23.75C13.8318 23.75 13.2917 23.1912 13.2917 22.5V21.25H12.9678C11.6785 21.25 10.475 20.5325 9.82858 19.3763C9.49388 18.7775 9.69204 18.0138 10.2684 17.6688C10.8472 17.32 11.5867 17.5275 11.919 18.1237C12.1353 18.5112 12.5365 18.75 12.9666 18.75H15.7071C16.3741 18.75 16.9155 18.19 16.9155 17.5C16.9155 17.0275 16.588 16.6275 16.1373 16.55L12.4628 15.9163C10.8412 15.6375 9.66546 14.2 9.66546 12.5C9.66546 10.4325 11.2919 8.75 13.2905 8.75V7.5C13.2905 6.81 13.8306 6.25 14.4988 6.25C15.167 6.25 15.7071 6.81 15.7071 7.5V8.75H16.031C17.3203 8.75 18.5238 9.46875 19.1702 10.625C19.5049 11.2225 19.3068 11.9862 18.7304 12.3325C18.1504 12.6788 17.4121 12.4738 17.0798 11.8763C16.8635 11.49 16.4623 11.2513 16.0322 11.2513H13.2917C12.6247 11.2513 12.0833 11.8125 12.0833 12.5013C12.0833 12.9738 12.4108 13.3737 12.8615 13.4513L16.536 14.085C18.1576 14.3637 19.3333 15.8013 19.3333 17.5013V17.5Z" fill="white"/>
</g>
<defs>
<clipPath id="clip0_1_669">
<rect width="29" height="30" fill="white"/>
</clipPath>
</defs>
</svg>
