<svg width="43" height="38" viewBox="0 0 43 38" fill="none" xmlns="http://www.w3.org/2000/svg">
<g clip-path="url(#clip0_1_390)">
<path d="M30.3098 9.30437C34.5321 9.60089 37.4288 13.0339 37.307 17.26C37.1836 21.5309 33.9974 24.8439 29.7546 24.9065C24.2926 24.9869 18.8297 24.9881 13.3658 24.9103C9.01626 24.8498 5.76798 21.3403 5.81124 16.9408C5.80023 15.9244 5.99223 14.916 6.37599 13.9747C6.75975 13.0335 7.32754 12.1783 8.04608 11.4593C8.76463 10.7404 9.61947 10.172 10.5605 9.78768C11.5015 9.40336 12.5098 9.21081 13.5262 9.22121C16.2172 9.19139 27.4198 9.10109 30.3098 9.30437ZM14.8312 18.2344H16.3566C17.8854 18.2344 17.8577 18.2344 17.8568 16.7152C17.8568 16.0646 17.6183 15.9122 16.9887 15.9122H14.8349V14.3427C14.8349 12.8076 14.8349 12.8378 13.3318 12.8261C12.6703 12.821 12.5056 13.0978 12.5317 13.6883C12.5636 14.4187 12.5392 15.1512 12.5392 15.9118H11.2922C9.65088 15.9118 9.666 15.9118 9.73068 17.5254C9.75084 18.0265 9.92262 18.2558 10.4396 18.2394C11.1192 18.218 11.8004 18.234 12.5396 18.234C12.5396 18.8442 12.535 19.3449 12.5396 19.8451C12.5569 21.4411 12.2906 21.2815 14.0558 21.3151C14.6615 21.3273 14.8589 21.0824 14.8375 20.5124C14.811 19.8005 14.8312 19.0853 14.8312 18.2344ZM29.0297 15.2289C29.3921 15.2332 29.7416 15.0938 30.0014 14.841C30.2612 14.5882 30.4101 14.2427 30.4157 13.8802C30.3936 13.5187 30.2347 13.1791 29.9712 12.9305C29.7078 12.6818 29.3596 12.5429 28.9973 12.5417C28.6487 12.5549 28.3179 12.6989 28.0709 12.9453C27.8239 13.1916 27.6788 13.522 27.6647 13.8706C27.6619 14.0503 27.6954 14.2287 27.7631 14.3952C27.8308 14.5617 27.9314 14.7128 28.0588 14.8395C28.1862 14.9663 28.3378 15.0661 28.5046 15.133C28.6714 15.1999 28.85 15.2325 29.0297 15.2289ZM26.0195 15.4649C25.6584 15.4749 25.3157 15.6264 25.0653 15.8868C24.8149 16.1472 24.6769 16.4956 24.681 16.8568C24.6864 17.0357 24.7281 17.2118 24.8038 17.374C24.8795 17.5363 24.9874 17.6815 25.1211 17.8006C25.2547 17.9197 25.4113 18.0104 25.5811 18.067C25.751 18.1236 25.9306 18.145 26.109 18.1298C26.2814 18.1307 26.4522 18.0969 26.6112 18.0302C26.7702 17.9636 26.9142 17.8656 27.0344 17.742C27.1546 17.6185 27.2487 17.4719 27.3109 17.3111C27.3732 17.1504 27.4024 16.9787 27.3967 16.8064C27.3954 16.6277 27.3585 16.451 27.2884 16.2867C27.2182 16.1223 27.1161 15.9735 26.988 15.8489C26.8599 15.7243 26.7083 15.6264 26.5421 15.5608C26.3758 15.4953 26.1982 15.4634 26.0195 15.467V15.4649ZM30.4165 19.754C30.4155 19.5745 30.3788 19.397 30.3087 19.2319C30.2385 19.0667 30.1363 18.9172 30.0078 18.7919C29.8794 18.6666 29.7273 18.568 29.5605 18.502C29.3937 18.4359 29.2154 18.4036 29.036 18.407C28.688 18.3981 28.3503 18.5249 28.0943 18.7608C27.8383 18.9966 27.6842 19.3228 27.6647 19.6703C27.6593 19.8495 27.6894 20.0281 27.7533 20.1956C27.8172 20.3631 27.9137 20.5162 28.0371 20.6463C28.1605 20.7763 28.3085 20.8806 28.4724 20.9532C28.6364 21.0257 28.8131 21.0651 28.9923 21.069C29.3542 21.0785 29.7055 20.9464 29.9715 20.7008C30.2375 20.4552 30.3972 20.1155 30.4165 19.754ZM31.9877 15.4699C31.6259 15.48 31.2824 15.631 31.0302 15.8907C30.7781 16.1503 30.6373 16.4982 30.6379 16.8602C30.6475 17.0389 30.6926 17.214 30.7707 17.3752C30.8487 17.5363 30.958 17.6803 31.0922 17.7988C31.2265 17.9172 31.383 18.0078 31.5526 18.0651C31.7222 18.1224 31.9015 18.1454 32.0801 18.1327C32.4277 18.126 32.7588 17.9832 33.0022 17.7351C33.2457 17.4869 33.3821 17.1532 33.3821 16.8056C33.3732 16.4437 33.2217 16.0999 32.9605 15.8492C32.6993 15.5985 32.3497 15.4611 31.9877 15.467V15.4699Z" fill="white"/>
</g>
<defs>
<clipPath id="clip0_1_390">
<rect width="42" height="42" fill="white" transform="translate(0.559998 -4)"/>
</clipPath>
</defs>
</svg>
