<svg width="98" height="98" viewBox="0 0 98 98" fill="none" xmlns="http://www.w3.org/2000/svg">
<circle cx="49" cy="49" r="48" fill="white" fill-opacity="0.28" stroke="#E4E4E4" stroke-width="2"/>
<g clip-path="url(#clip0_282_23)">
<path d="M65.75 39.3015V33.25C65.75 32.353 65.0236 31.625 64.125 31.625C63.2264 31.625 62.5 32.353 62.5 33.25V37.0947L54.0451 31.3894C51.2842 29.5271 47.7158 29.5271 44.9549 31.3894L33.5799 39.0659C31.339 40.5787 30 43.0959 30 45.8015V60.875C30 65.3551 33.6449 69 38.125 69H41.375C42.2736 69 43 68.272 43 67.375V52.75C43 51.8546 43.728 51.125 44.625 51.125H54.375C55.272 51.125 56 51.8546 56 52.75V67.375C56 68.272 56.7264 69 57.625 69H60.875C65.3551 69 69 65.3551 69 60.875V45.8015C69 43.2324 67.791 40.8322 65.75 39.3015Z" fill="white"/>
</g>
<defs>
<clipPath id="clip0_282_23">
<rect width="39" height="39" fill="white" transform="translate(30 30)"/>
</clipPath>
</defs>
</svg>
