<svg width="33" height="36" viewBox="0 0 33 36" fill="none" xmlns="http://www.w3.org/2000/svg">
<path d="M33 13.2761V35.2761H4.8125C2.15875 35.2761 0 33.1174 0 30.4636V11.2136H0.070125C0.400125 9.26662 2.08587 7.77612 4.125 7.77612H17.875V10.5261H4.125C3.366 10.5261 2.75 11.1435 2.75 11.9011C2.75 12.6587 3.366 13.2761 4.125 13.2761H22V18.7761H30.25V13.2761H33ZM27.5 24.2761C27.5 23.1376 26.576 22.2136 25.4375 22.2136C24.299 22.2136 23.375 23.1376 23.375 24.2761C23.375 25.4146 24.299 26.3386 25.4375 26.3386C26.576 26.3386 27.5 25.4146 27.5 24.2761Z" fill="#BBBDBE"/>
<path d="M20.4828 9.47787L23.9066 12.903C25.0354 14.0291 26.8683 14.0277 27.9958 12.903L31.3618 9.53562L29.4176 7.59137L27.3042 9.70474L27.3042 -4.41364e-06L24.5542 -4.17323e-06L24.5542 9.66074L22.4271 7.53362L20.4828 9.47787Z" fill="#BBBDBE"/>
</svg>
