<svg width="43" height="38" viewBox="0 0 43 38" fill="none" xmlns="http://www.w3.org/2000/svg">
<g clip-path="url(#clip0_1_374)">
<path d="M4.44129 26.2401C3.99573 26.2401 3.56841 26.0631 3.25335 25.748C2.93829 25.433 2.76129 25.0057 2.76129 24.5601V9.02009C2.76129 8.57452 2.93829 8.14721 3.25335 7.83215C3.56841 7.51709 3.99573 7.34009 4.44129 7.34009H38.8792C39.3248 7.34009 39.7521 7.51709 40.0671 7.83215C40.3822 8.14721 40.5592 8.57452 40.5592 9.02009V24.5601C40.5592 25.0057 40.3822 25.433 40.0671 25.748C39.7521 26.0631 39.3248 26.2401 38.8792 26.2401H4.44129ZM27.9592 10.2801V23.3001C27.9592 23.5229 28.0477 23.7365 28.2052 23.8941C28.3628 24.0516 28.5764 24.1401 28.7992 24.1401H37.6192C37.842 24.1401 38.0556 24.0516 38.2132 23.8941C38.3707 23.7365 38.4592 23.5229 38.4592 23.3001V10.2801C38.4592 10.0573 38.3707 9.84365 38.2132 9.68612C38.0556 9.52859 37.842 9.44009 37.6192 9.44009H28.7992C28.5764 9.44009 28.3628 9.52859 28.2052 9.68612C28.0477 9.84365 27.9592 10.0573 27.9592 10.2801ZM16.4092 10.2801V23.3001C16.4092 23.5229 16.4977 23.7365 16.6552 23.8941C16.8128 24.0516 17.0264 24.1401 17.2492 24.1401H26.0692C26.292 24.1401 26.5056 24.0516 26.6632 23.8941C26.8207 23.7365 26.9092 23.5229 26.9092 23.3001V10.2801C26.9092 10.0573 26.8207 9.84365 26.6632 9.68612C26.5056 9.52859 26.292 9.44009 26.0692 9.44009H17.2492C17.0268 9.44064 16.8137 9.52939 16.6566 9.68686C16.4995 9.84433 16.4113 10.0577 16.4113 10.2801H16.4092ZM4.85919 10.2801V23.3001C4.85919 23.5229 4.94769 23.7365 5.10522 23.8941C5.26275 24.0516 5.47641 24.1401 5.69919 24.1401H14.5192C14.742 24.1401 14.9556 24.0516 15.1132 23.8941C15.2707 23.7365 15.3592 23.5229 15.3592 23.3001V10.2801C15.3592 10.0573 15.2707 9.84365 15.1132 9.68612C14.9556 9.52859 14.742 9.44009 14.5192 9.44009H5.69919C5.47641 9.44009 5.26275 9.52859 5.10522 9.68612C4.94769 9.84365 4.85919 10.0573 4.85919 10.2801ZM30.3423 21.463C29.9168 19.263 31.1277 17.8296 34.3197 15.3957C33.8596 15.424 33.3993 15.3442 32.9757 15.1626C32.5601 14.9777 32.1038 14.903 31.651 14.9459C31.4011 15.0095 31.1677 15.1257 30.9663 15.2867C30.7649 15.4477 30.6001 15.6498 30.483 15.8795H29.0113V12.5901H30.5712C30.5493 12.9681 30.8333 12.9122 31.0298 12.8001C31.3605 12.6364 31.7324 12.5744 32.0983 12.622C32.6709 12.7348 33.2359 12.8832 33.7901 13.0664C34.4251 13.2639 35.0903 13.3469 35.7544 13.3112C36.254 13.2981 36.7298 13.0954 37.0854 12.7442L37.9367 13.7279C34.1067 17.5948 35.0387 19.9955 35.4659 21.4617L30.3423 21.463ZM18.7923 21.463C18.3664 19.263 19.5777 17.8296 22.7693 15.3957C22.3092 15.4241 21.8489 15.3442 21.4253 15.1626C21.0095 14.9776 20.5531 14.903 20.1001 14.9459C19.8503 15.0095 19.6169 15.1257 19.4156 15.2867C19.2142 15.4477 19.0495 15.6498 18.9326 15.8795H17.4592V12.5901H19.0187C18.9972 12.9681 19.2807 12.9122 19.4773 12.8001C19.8082 12.6364 20.1801 12.5744 20.5462 12.622C21.1186 12.7349 21.6835 12.8833 22.2375 13.0664C22.8726 13.2639 23.5377 13.3469 24.2019 13.3112C24.7014 13.2981 25.1773 13.0954 25.5329 12.7442L26.3842 13.7279C22.5542 17.5948 23.4862 19.9955 23.9133 21.4617L18.7923 21.463ZM7.24227 21.463C6.81639 19.263 8.02767 17.8296 11.2197 15.3957C10.7596 15.424 10.2993 15.3442 9.87567 15.1626C9.45995 14.9776 9.00356 14.903 8.55057 14.9459C8.30077 15.0096 8.06743 15.1258 7.86609 15.2868C7.66475 15.4478 7.50005 15.6499 7.38297 15.8795H5.90919V12.5901H7.46907C7.44723 12.9681 7.73115 12.9122 7.92771 12.8001C8.25843 12.6364 8.63026 12.5744 8.99619 12.622C9.56864 12.7349 10.1335 12.8833 10.6875 13.0664C11.3226 13.264 11.9877 13.3469 12.6519 13.3112C13.1514 13.2981 13.6273 13.0954 13.9829 12.7442L14.8338 13.7279C11.0038 17.5948 11.9358 19.9955 12.3629 21.4617L7.24227 21.463Z" fill="white"/>
</g>
<defs>
<clipPath id="clip0_1_374">
<rect width="42" height="42" fill="white" transform="translate(0.660004 -4)"/>
</clipPath>
</defs>
</svg>
