<svg width="26" height="25" viewBox="0 0 26 25" fill="none" xmlns="http://www.w3.org/2000/svg">
<path d="M2.77836 17.702C2.68564 17.511 2.63597 17.3021 2.63286 17.0898C2.62975 16.8776 2.67328 16.6673 2.76037 16.4737C2.84745 16.2802 2.97598 16.1081 3.13686 15.9696C3.29774 15.8312 3.48706 15.7298 3.69144 15.6725L3.74058 15.6578C4.07186 15.5677 4.42426 15.5966 4.73639 15.7396C5.04852 15.8826 5.3006 16.1305 5.44872 16.4403C6.34259 18.2635 7.81466 19.7397 9.63538 20.6387C11.4561 21.5377 13.5231 21.8089 15.5141 21.4101C17.5052 21.0112 19.3082 19.9648 20.6422 18.4339C21.9762 16.903 22.7661 14.9737 22.8888 12.9468C23.0114 10.92 22.4599 8.90948 21.3203 7.22888C20.1806 5.54829 18.5169 4.29205 16.5885 3.65604C14.6601 3.02004 12.5755 3.04004 10.6596 3.7129C8.74378 4.38577 7.10445 5.67369 5.99724 7.37583L7.18836 7.27083C7.57009 7.25126 7.94454 7.38048 8.23297 7.63129C8.5214 7.88211 8.70134 8.235 8.73495 8.61575C8.76857 8.9965 8.65324 9.37545 8.41321 9.67292C8.17319 9.9704 7.82717 10.1632 7.44792 10.2108L2.63262 10.635C2.59062 10.6388 2.54652 10.6405 2.50242 10.6405C2.1339 10.6402 1.7788 10.5022 1.50682 10.2535C1.23484 10.0049 1.06564 9.66351 1.03242 9.29649L0.64182 4.84449C0.622627 4.46291 0.75207 4.08875 1.00295 3.8006C1.25384 3.51246 1.60663 3.33276 1.98722 3.29927C2.36781 3.26578 2.74657 3.3811 3.04392 3.621C3.34128 3.8609 3.53408 4.20671 3.58182 4.58577L3.66582 5.54631C5.17062 3.34134 7.36036 1.69395 9.896 0.859191C12.4316 0.0244294 15.1718 0.0488613 17.6921 0.928704C20.2125 1.80855 22.3725 3.49472 23.8377 5.72617C25.303 7.95762 25.9917 10.6099 25.7973 13.2723C25.603 15.9347 24.5363 18.4588 22.7625 20.4538C20.9887 22.4488 18.6067 23.8034 15.9853 24.3078C13.3638 24.8123 10.6492 24.4384 8.26171 23.2443C5.8742 22.0501 3.94695 20.1021 2.77836 17.702ZM16.5833 16.6368L12.3544 14.444C12.1141 14.3197 11.9127 14.1318 11.7719 13.9008C11.6312 13.6698 11.5566 13.4045 11.5564 13.134V8.49009C11.5629 8.10281 11.7213 7.7336 11.9975 7.46203C12.2737 7.19046 12.6455 7.03827 13.0329 7.03827C13.4202 7.03827 13.792 7.19046 14.0682 7.46203C14.3444 7.7336 14.5028 8.10281 14.5094 8.49009V12.2365L17.9404 14.016C18.285 14.1978 18.5438 14.5085 18.6602 14.8803C18.7767 15.2521 18.7414 15.6549 18.562 16.0008C18.3827 16.3467 18.0738 16.6077 17.7028 16.7267C17.3318 16.8458 16.9288 16.8133 16.5817 16.6364L16.5833 16.6368Z" fill="white"/>
</svg>
