<svg width="43" height="38" viewBox="0 0 43 38" fill="none" xmlns="http://www.w3.org/2000/svg">
<g clip-path="url(#clip0_1_407)">
<path d="M20.3847 6.92841C20.5412 6.53987 20.8103 6.20701 21.1574 5.97259C21.5045 5.73817 21.9138 5.61292 22.3327 5.61292C22.7515 5.61292 23.1608 5.73817 23.508 5.97259C23.8551 6.20701 24.1242 6.53987 24.2806 6.92841L25.9254 11.0163C26.0734 11.3839 26.3225 11.7021 26.6438 11.9341C26.9651 12.1662 27.3455 12.3025 27.741 12.3275L32.1388 12.6043C32.56 12.6309 32.9633 12.7837 33.2963 13.0428C33.6293 13.302 33.8766 13.6554 34.0058 14.0571C34.135 14.4588 34.1402 14.8901 34.0207 15.2948C33.9012 15.6995 33.6625 16.0588 33.3358 16.3259L29.9893 19.0622C29.6786 19.3162 29.4472 19.6539 29.3224 20.0352C29.1977 20.4166 29.1848 20.8258 29.2854 21.2143L30.3702 25.3996C30.4761 25.8063 30.4575 26.2355 30.3168 26.6315C30.1761 27.0276 29.9198 27.3723 29.5811 27.6211C29.2424 27.8699 28.8368 28.0113 28.4168 28.0271C27.9968 28.0429 27.5817 27.9323 27.2253 27.7096L23.4453 25.3492C23.1115 25.1406 22.7258 25.03 22.3323 25.03C21.9387 25.03 21.553 25.1406 21.2193 25.3492L17.4393 27.7096C17.0828 27.9323 16.6677 28.0429 16.2478 28.0271C15.8278 28.0113 15.4222 27.8699 15.0834 27.6211C14.7447 27.3723 14.4884 27.0276 14.3477 26.6315C14.207 26.2355 14.1884 25.8063 14.2943 25.3996L15.38 21.2143C15.4807 20.8258 15.4679 20.4166 15.3432 20.0351C15.2186 19.6536 14.9872 19.3158 14.6765 19.0618L11.3295 16.3263C11.0027 16.0592 10.7639 15.6998 10.6443 15.295C10.5248 14.8902 10.53 14.4587 10.6593 14.0569C10.7886 13.655 11.036 13.3015 11.3692 13.0424C11.7025 12.7833 12.1061 12.6306 12.5274 12.6043L16.9235 12.3271C17.319 12.3021 17.6994 12.1657 18.0207 11.9337C18.342 11.7017 18.5911 11.3835 18.7392 11.0158L20.3847 6.92841Z" fill="white"/>
</g>
<defs>
<clipPath id="clip0_1_407">
<rect width="42" height="42" fill="white" transform="translate(0.889999 -4)"/>
</clipPath>
</defs>
</svg>
