<svg width="21" height="22" viewBox="0 0 21 22" fill="none" xmlns="http://www.w3.org/2000/svg">
<path d="M7.24172 2.84505C8.11453 2.34059 9.23344 2.63997 9.73875 3.51383L15.2184 13.0048C15.7205 13.8809 15.4219 14.9966 14.5491 15.5019L8.21953 19.1539C7.34672 19.6592 6.23109 19.3606 5.72578 18.4878L0.245044 8.99516C-0.259416 8.11907 0.0399656 7.00344 0.913828 6.49813L7.24172 2.84505ZM4.71844 11.6989C4.49203 12.5488 4.99734 13.3986 5.85047 13.6545C6.70359 13.8842 7.55016 13.3789 7.80609 12.5258L7.88484 12.2338C7.88812 12.2239 7.89141 12.2108 7.89469 12.1977L8.47875 13.205L8.08172 13.4347C7.86187 13.5594 7.78969 13.8383 7.91437 14.0581C8.04234 14.278 8.32125 14.3502 8.53781 14.2255L10.1194 13.3133C10.3392 13.1853 10.4147 12.9064 10.2867 12.6866C10.162 12.47 9.88312 12.3945 9.66328 12.5192L9.26953 12.7489L8.68547 11.7416C8.69859 11.7448 8.71172 11.7481 8.72484 11.7514L9.01359 11.8269C9.86672 12.0566 10.7428 11.5513 10.9725 10.6981C11.1989 9.84501 10.6936 8.96891 9.84047 8.73922L6.43453 7.83688C6.09656 7.73844 5.7225 7.95501 5.62406 8.31922L4.71844 11.6989Z" fill="#FDFFFF" fill-opacity="0.7"/>
<path opacity="0.4" d="M10.6348 18.9734L15.0743 16.4108C16.4491 15.6167 16.9216 13.858 16.1276 12.4799L11.6388 4.70822C11.6979 4.70264 11.7537 4.70001 11.8127 4.70001H19.1627C20.1766 4.70001 21.0002 5.52262 21.0002 6.53751V17.5625C21.0002 18.5764 20.1766 19.4 19.1627 19.4H11.8127C11.3665 19.4 10.953 19.2392 10.6348 18.9734ZM19.0249 7.05267C18.5655 6.66548 17.8929 6.74095 17.486 7.15767L17.3285 7.33157L17.1645 7.15767C16.7543 6.74095 16.0751 6.66548 15.6321 7.05267C15.117 7.49564 15.0907 8.27986 15.5501 8.75564L17.1415 10.3963C17.2399 10.5013 17.4105 10.5013 17.5188 10.3963L19.0971 8.75564C19.5565 8.27986 19.5335 7.49564 19.0249 7.05267Z" fill="#FDFFFF" fill-opacity="0.7"/>
</svg>
