<svg width="29" height="24" viewBox="0 0 29 24" fill="none" xmlns="http://www.w3.org/2000/svg">
<path d="M28.212 16.6636C24.9256 14.9328 24.342 10.1561 27.3479 8.03677C28.814 7.00413 29.119 5.92786 28.9634 4.39033C28.9 3.77117 28.9225 3.14577 28.8488 2.53076C28.7218 1.47942 28.1423 0.714808 27.1718 0.371981C26.5432 0.147585 25.849 0.0187646 25.1836 0.0166869C18.0498 -0.00616831 10.918 6.49181e-05 3.78628 0.0042204C3.48119 0.0042204 3.172 0.0125314 2.86896 0.0499307C1.28413 0.247316 0.315617 1.15529 0.127239 2.7697C0.0105262 3.7587 0.125191 4.77679 0.016669 5.76996C-0.0816153 6.65715 0.286951 7.1288 0.976988 7.58798C4.09751 9.66572 4.38827 13.9334 1.37832 16.1462C0.162048 17.0396 -0.0836628 17.9227 0.0310021 19.2026C0.061716 19.5454 0.0350973 19.8944 0.0371449 20.2414C0.0473828 22.8178 1.18789 23.9938 3.70847 23.998C7.32656 24.0042 10.9426 23.998 14.5607 23.998C18.1788 23.998 21.8624 24.0042 25.5153 23.998C27.6202 23.9938 28.7505 22.9695 28.9225 20.8481C29.0023 19.8861 28.9122 18.9096 28.9716 17.9434C29.0105 17.2973 28.773 16.9607 28.212 16.6636ZM12.2039 5.5975C14.0734 5.11547 15.9449 4.65213 17.8143 4.17633C19.7186 3.69221 20.5274 4.40072 20.3902 6.67585C19.696 6.53872 19.0306 6.37042 18.3528 6.28731C17.8635 6.22706 17.3577 6.25615 16.8601 6.28316C14.4051 6.42237 11.9521 6.57404 9.497 6.71948C9.48062 6.5969 9.46424 6.47431 9.44786 6.35172C10.3652 6.10032 11.2825 5.83437 12.2039 5.5975ZM22.4296 16.5888C22.4152 17.5819 21.8296 18.064 20.7239 18.0723C19.1964 18.0868 17.6689 18.0827 16.1414 18.0806C15.5906 18.0785 15.0419 18.0764 14.4911 18.0764C13.3239 18.0785 12.1568 18.0806 10.9876 18.0806C10.1113 18.0806 9.23491 18.0806 8.35855 18.0743C7.01533 18.0681 6.5751 17.6463 6.56076 16.275C6.53414 13.8565 6.53619 11.436 6.56076 9.01747C6.571 7.87055 7.0358 7.32618 8.17017 7.31372C12.4271 7.27424 16.6861 7.28255 20.943 7.30541C21.8644 7.30956 22.4152 7.87679 22.4255 8.81177C22.4562 11.4027 22.4603 13.9957 22.4296 16.5888Z" fill="white"/>
<path d="M14.4907 18.0764C13.3236 18.0784 12.1565 18.0805 10.9873 18.0805C12.1544 18.0805 13.3236 18.0784 14.4907 18.0784C15.0415 18.0784 15.5903 18.0784 16.1411 18.0805C15.5903 18.0784 15.0415 18.0764 14.4907 18.0764Z" fill="white"/>
<path d="M21.0532 12.9527C21.0164 12.267 21.0451 11.5772 21.0451 10.8895C20.8157 10.8791 20.2035 10.8167 19.6158 10.3638C18.9504 9.85059 18.7436 9.16286 18.6883 8.94885H10.3505C10.2072 9.28545 9.92051 9.83813 9.3779 10.3638C8.83938 10.8853 8.28449 11.1492 7.94868 11.2801C7.99578 11.9138 7.97735 12.4457 7.94459 12.8571C7.88521 13.5739 7.78692 13.8045 7.94459 14.1037C8.21487 14.6211 8.73905 14.3738 9.17314 14.9348C9.56218 15.4356 9.39633 15.9592 9.86932 16.2667C9.93484 16.3082 10.0659 16.4163 10.3075 16.4163C13.2315 16.4266 16.1575 16.4246 18.8889 16.4246C18.979 16.036 19.1674 15.5124 19.6158 15.1426C20.1277 14.7187 20.5393 14.8559 20.8423 14.4133C21.0266 14.1432 21.0962 13.7464 21.0532 12.9527ZM14.4784 14.5172C13.5325 14.5047 12.654 13.5677 12.7011 12.6223C12.7503 11.6541 13.555 10.8999 14.5235 10.9123C15.5473 10.9269 16.309 11.7289 16.2885 12.7761C16.2721 13.6903 15.3999 14.5276 14.4784 14.5172Z" fill="white"/>
</svg>
