<svg width="27" height="28" viewBox="0 0 27 28" fill="none" xmlns="http://www.w3.org/2000/svg">
<g clip-path="url(#clip0_1_674)">
<path d="M13.5 14C14.835 14 16.1401 13.5895 17.2501 12.8203C18.3601 12.0511 19.2253 10.9579 19.7362 9.67879C20.2471 8.3997 20.3808 6.99224 20.1203 5.63437C19.8599 4.2765 19.217 3.02922 18.273 2.05026C17.329 1.07129 16.1262 0.404603 14.8169 0.134506C13.5075 -0.13559 12.1503 0.003033 10.9169 0.532846C9.68349 1.06266 8.62928 1.95987 7.88758 3.11101C7.14588 4.26216 6.75 5.61553 6.75 7C6.75179 8.85595 7.46352 10.6354 8.729 11.9477C9.99449 13.2601 11.7103 13.9982 13.5 14ZM13.5 2.33334C14.39 2.33334 15.26 2.60703 16.0001 3.11981C16.7401 3.63259 17.3169 4.36143 17.6575 5.21415C17.9981 6.06687 18.0872 7.00518 17.9135 7.91043C17.7399 8.81567 17.3113 9.64719 16.682 10.2998C16.0526 10.9525 15.2508 11.3969 14.3779 11.577C13.505 11.7571 12.6002 11.6647 11.7779 11.3114C10.9557 10.9582 10.2529 10.3601 9.75839 9.59266C9.26392 8.82524 9 7.92298 9 7C9 5.76233 9.47411 4.57534 10.318 3.70017C11.1619 2.825 12.3065 2.33334 13.5 2.33334Z" fill="white"/>
<path d="M13.5 16.3333C10.8156 16.3364 8.24199 17.4437 6.34383 19.4121C4.44567 21.3806 3.37798 24.0495 3.375 26.8333C3.375 27.1428 3.49353 27.4395 3.7045 27.6583C3.91548 27.8771 4.20163 28 4.5 28C4.79837 28 5.08452 27.8771 5.29549 27.6583C5.50647 27.4395 5.625 27.1428 5.625 26.8333C5.625 24.6674 6.45468 22.5902 7.93153 21.0586C9.40838 19.5271 11.4114 18.6667 13.5 18.6667C15.5886 18.6667 17.5916 19.5271 19.0685 21.0586C20.5453 22.5902 21.375 24.6674 21.375 26.8333C21.375 27.1428 21.4935 27.4395 21.7045 27.6583C21.9155 27.8771 22.2016 28 22.5 28C22.7984 28 23.0845 27.8771 23.2955 27.6583C23.5065 27.4395 23.625 27.1428 23.625 26.8333C23.622 24.0495 22.5543 21.3806 20.6562 19.4121C18.758 17.4437 16.1844 16.3364 13.5 16.3333Z" fill="white"/>
</g>
<defs>
<clipPath id="clip0_1_674">
<rect width="27" height="28" fill="white"/>
</clipPath>
</defs>
</svg>
