<svg width="45" height="45" viewBox="0 0 45 45" fill="none" xmlns="http://www.w3.org/2000/svg">
<g clip-path="url(#clip0_86_95)">
<path d="M35.625 1H9.375C4.2 1 0 5.2 0 10.375V29.125C0 34.3 4.2 38.5 9.375 38.5H12.975L20.0063 44.425C20.7188 45.0625 21.6187 45.3813 22.5188 45.3813C23.4188 45.3813 24.2625 45.0813 24.9375 44.4813L32.1562 38.5188H35.625C40.8 38.5188 45 34.3188 45 29.1438V10.375C45 5.2 40.8 1 35.625 1ZM25.0875 29.125H24.375C24.375 30.1563 23.5312 31 22.5 31C21.4688 31 20.625 30.1563 20.625 29.125H20.1187C18.1125 29.125 16.2563 28.0563 15.2438 26.3125C14.7188 25.4125 15.0375 24.2688 15.9187 23.7438C16.8188 23.2188 17.9625 23.5375 18.4875 24.4188C18.825 25 19.4437 25.3563 20.1187 25.3563H25.0688C25.7062 25.3563 26.2312 24.8313 26.2312 24.1938C26.2312 23.6125 25.8188 23.125 25.2563 23.0313L19.0875 22C16.7063 21.6063 14.9812 19.5625 14.9812 17.1438C14.9812 14.425 17.1937 12.2312 19.8937 12.2312H20.6062C20.6062 11.2 21.45 10.3562 22.4812 10.3562C23.5125 10.3562 24.3562 11.2 24.3562 12.2312H24.8625C26.8687 12.2312 28.725 13.3 29.7375 15.0438C30.2625 15.9438 29.9438 17.0875 29.0625 17.6125C28.1625 18.1375 27.0188 17.8188 26.4937 16.9375C26.1562 16.3563 25.5375 16 24.8625 16H19.9125C19.275 16 18.75 16.525 18.75 17.1625C18.75 17.7438 19.1625 18.2313 19.725 18.325L25.875 19.3563C28.2563 19.75 29.9812 21.7938 29.9812 24.2125C29.9812 26.9313 27.7687 29.125 25.0688 29.125H25.0875Z" fill="#5F6162"/>
</g>
<defs>
<clipPath id="clip0_86_95">
<rect width="45" height="45" fill="white"/>
</clipPath>
</defs>
</svg>
