<svg width="120" height="130" viewBox="0 0 120 130" fill="none" fill-opacity="0.025" xmlns="http://www.w3.org/2000/svg">
<g clip-path="url(#clip0_245_1052)">
<path fill-rule="evenodd" clip-rule="evenodd" d="M80.4578 102.646C75.3433 93.7756 70.3433 85.1152 65.3242 76.4168C65.9922 75.9971 66.5074 75.6728 67.1944 75.2532C72.2326 83.9707 77.2708 92.6882 82.3853 101.539H112.71V103.714H110.401C102.156 103.714 93.8929 103.676 85.6486 103.714C81.7174 103.714 82.767 103.18 80.8967 106.404C76.6983 113.595 72.5761 120.806 68.4158 127.997C68.0341 128.665 67.6143 129.332 67.2135 129.981C66.6028 129.619 66.0685 129.313 65.3433 128.894C70.3624 120.176 75.4006 111.459 80.4769 102.646H80.4578ZM81.7555 101.654C81.412 102.112 81.2021 102.417 80.9731 102.703C81.2784 102.932 81.5456 103.256 81.8891 103.313C82.0609 103.351 82.538 102.875 82.5189 102.684C82.4616 102.36 82.1181 102.092 81.7555 101.654Z" fill="white"/>
<path fill-rule="evenodd" clip-rule="evenodd" d="M52.8053 75.3104C53.416 75.6537 53.9312 75.9399 54.6946 76.3595C49.6564 85.0771 44.6373 93.7946 39.5419 102.627C44.5801 111.344 49.5992 120.081 54.6755 128.836C54.0457 129.237 53.5305 129.561 52.8625 129.981C52.4808 129.371 52.0801 128.722 51.6984 128.073C47.3282 120.5 42.9198 112.946 38.6068 105.335C37.8816 104.038 37.0419 103.619 35.5724 103.619C26.9656 103.695 18.3587 103.657 9.75183 103.657C8.96939 103.657 8.18694 103.657 7.30908 103.657V101.539H9.58007C18.2633 101.539 26.9274 101.501 35.6106 101.577C37.0801 101.577 37.9007 101.12 38.6068 99.8416C42.8816 92.3067 47.2518 84.81 51.5839 77.2942C51.9656 76.6266 52.3854 75.9589 52.7862 75.2722L52.8053 75.3104ZM39.2938 102.741C38.8167 102.36 38.5114 101.959 38.2442 101.978C37.9579 101.978 37.6908 102.417 37.4236 102.684C37.6526 102.913 37.8625 103.332 38.0915 103.332C38.4159 103.332 38.7404 103.027 39.2938 102.741Z" fill="white"/>
<path fill-rule="evenodd" clip-rule="evenodd" d="M120 91.2766C119.294 91.6962 118.759 92.0205 118.11 92.402C113.072 83.6845 108.015 74.967 102.92 66.135H72.6143V63.9222H74.9234C83.5875 63.9222 92.2707 63.8841 100.935 63.9604C102.423 63.9604 103.225 63.4453 103.931 62.1863C108.244 54.5943 112.652 47.0403 117.023 39.4673C117.385 38.8569 117.748 38.2656 118.13 37.6552C118.74 37.9985 119.275 38.3037 120.019 38.7043C115 47.4028 109.981 56.1203 104.847 64.9904C109.866 73.6889 114.885 82.4064 120.019 91.2766H120ZM103.473 63.9222C103.149 64.3991 102.748 64.7425 102.786 65.0286C102.824 65.2957 103.32 65.7153 103.588 65.7153C103.855 65.7153 104.294 65.2194 104.294 64.9332C104.294 64.6471 103.855 64.3609 103.473 63.9222Z" fill="white"/>
<path fill-rule="evenodd" clip-rule="evenodd" d="M8.19974e-05 38.7233C0.648937 38.3418 1.18329 38.0175 1.85123 37.6169C2.21382 38.1892 2.57642 38.7806 2.91993 39.3719C7.29016 46.9449 11.6986 54.4797 15.9924 62.0909C16.7558 63.4453 17.5955 63.9603 19.1604 63.9412C27.7673 63.8649 36.355 63.9031 44.9619 63.9031C45.7444 63.9031 46.5077 63.9031 47.3665 63.9031V66.0777H45.0764C36.4123 66.0777 27.7291 66.1158 19.065 66.0395C17.5955 66.0395 16.7749 66.4783 16.0497 67.7563C11.7749 75.2912 7.40466 82.7879 3.0726 90.2846C2.69092 90.9522 2.27107 91.6199 1.85123 92.3257C1.25962 91.9823 0.744357 91.6962 -0.0380859 91.2574C5.00008 82.5208 10.0573 73.7651 15.1337 64.9522C10.0764 56.1775 5.03825 47.4409 8.19974e-05 38.7233ZM16.5268 66.0205C16.8512 65.5436 17.252 65.2002 17.2138 64.9332C17.1566 64.647 16.6795 64.2274 16.4123 64.2464C16.1451 64.2655 15.7062 64.7424 15.7062 65.0285C15.7062 65.2956 16.1451 65.5817 16.5268 66.0205Z" fill="white"/>
<path fill-rule="evenodd" clip-rule="evenodd" d="M52.8052 0C53.454 0.400587 53.9884 0.724872 54.6563 1.14453C49.6563 9.80484 44.6563 18.4651 39.5418 27.3353C44.5418 35.9956 49.58 44.7131 54.6372 53.507C54.0075 53.9266 53.454 54.2891 52.8052 54.7278C50.6296 50.9699 48.4922 47.2883 46.3739 43.6068C43.8166 39.1812 41.183 34.7748 38.7403 30.292C37.9388 28.8232 36.9846 28.3844 35.3815 28.4035C26.851 28.4798 18.3205 28.4417 9.78992 28.4417H7.34717V26.2671C8.18686 26.2671 9.00747 26.2671 9.84717 26.2671C18.3777 26.2671 26.9082 26.2289 35.4388 26.3052C37.0991 26.3052 37.9769 25.7711 38.7785 24.3404C43.0724 16.7293 47.4808 9.19442 51.8701 1.62142C52.1563 1.12546 52.4426 0.648569 52.8434 0L52.8052 0ZM39.2937 27.2781C38.7976 26.9538 38.4731 26.5532 38.1869 26.5913C37.9006 26.6295 37.6907 27.0873 37.4426 27.3734C37.7288 27.6214 37.996 28.0411 38.2823 28.0411C38.5495 28.0411 38.8548 27.6214 39.2937 27.259V27.2781Z" fill="white"/>
<path fill-rule="evenodd" clip-rule="evenodd" d="M112.729 26.2671V28.27C112.443 28.3081 112.118 28.4226 111.794 28.4226C105.401 28.4226 98.9887 28.4226 92.5956 28.4226C89.7521 28.4226 86.9086 28.4798 84.065 28.4035C82.8246 28.3654 82.1566 28.8232 81.546 29.8723C77.0994 37.6552 72.6147 45.3808 68.1299 53.1445C67.8437 53.6405 67.5383 54.1174 67.2139 54.6706C66.6032 54.2891 66.0307 53.9457 65.3818 53.526C70.42 44.7894 75.42 36.1291 80.4963 27.3353C75.4582 18.5987 70.42 9.88114 65.3818 1.14453C66.0116 0.743947 66.546 0.419662 67.1948 0C67.5574 0.591343 67.9391 1.16361 68.2826 1.77403C72.6528 9.34703 77.0612 16.901 81.3742 24.493C82.1376 25.8474 83.0154 26.3052 84.5612 26.3052C93.0918 26.2289 101.622 26.2671 110.153 26.2671H112.729ZM81.8322 26.2861C81.4505 26.7058 81.0307 26.9919 81.0307 27.2781C81.0307 27.5642 81.4505 28.022 81.7177 28.0411C81.9849 28.0411 82.462 27.6405 82.5002 27.3734C82.5383 27.1064 82.1566 26.763 81.8322 26.2861Z" fill="white"/>
</g>
<defs>
<clipPath id="clip0_245_1052">
<rect width="120" height="130" fill="#ffffff"/>
</clipPath>
</defs>
</svg>
