<svg width="36" height="36" viewBox="0 0 36 36" fill="none" xmlns="http://www.w3.org/2000/svg">
<path d="M27.2858 26.7847C25.9831 26.7847 24.7621 26.2837 23.8398 25.3614L18.8722 20.3938C18.5307 20.0524 17.9109 20.0524 17.5695 20.3938L12.5814 25.3818C11.6592 26.3041 10.4381 26.8051 9.13546 26.8051H8.15381L14.4649 33.1163C16.4282 35.0796 19.633 35.0796 21.5963 33.1163L27.926 26.7866L27.2858 26.7847Z" fill="white"/>
<path d="M9.1151 9.19484C10.4178 9.19484 11.6388 9.69587 12.5611 10.6181L17.5491 15.6062C17.9091 15.9662 18.4899 15.9662 18.8518 15.6062L23.8398 10.6385C24.7621 9.71628 25.9831 9.21525 27.2858 9.21525H27.8871L21.5574 2.88556C19.5941 0.922261 16.3893 0.922261 14.426 2.88556L8.11304 9.19484H9.1151Z" fill="white"/>
<path d="M33.1144 14.4445L29.288 10.6181C29.2082 10.659 29.108 10.6775 29.0078 10.6775H27.2654C26.3635 10.6775 25.4821 11.0375 24.8623 11.6796L19.8928 16.6472C19.4326 17.1074 18.8109 17.3486 18.2097 17.3486C17.588 17.3486 16.9868 17.1074 16.5266 16.6472L11.5385 11.6592C10.8983 11.019 10.0169 10.6571 9.13546 10.6571H6.99216C6.89195 10.6571 6.81216 10.6367 6.73236 10.5977L2.88556 14.4445C0.922261 16.4078 0.922261 19.6126 2.88556 21.5759L6.71195 25.4023C6.79175 25.3614 6.87154 25.3429 6.97175 25.3429H9.11504C10.0169 25.3429 10.8983 24.9829 11.5181 24.3408L16.5062 19.3528C17.408 18.4509 18.9909 18.4509 19.8909 19.3528L24.8586 24.3204C25.4988 24.9606 26.3802 25.3225 27.2616 25.3225H29.0041C29.1043 25.3225 29.1841 25.3429 29.2843 25.3818L33.1107 21.5554C35.0777 19.5922 35.0777 16.4078 33.1144 14.4445Z" fill="white"/>
</svg>
