<svg width="17" height="17" viewBox="0 0 17 17" fill="none" xmlns="http://www.w3.org/2000/svg">
<g clip-path="url(#clip0_37_6215)">
<path d="M11.6648 1.58392L11.235 0.581497C10.3179 0.25393 9.35878 0.0899658 8.39934 0.0899658C7.43958 0.0899658 6.47948 0.253766 5.56238 0.581169L5.13516 1.58392L8.4 3.39287L11.6648 1.58392ZM2.84747 3.24489L1.76105 3.34136C0.6195 4.80972 0 6.61604 0 8.47651L3.28125e-06 8.48997C3.28125e-06 8.57836 0.00170625 8.66646 0.00443953 8.75453L0.823111 9.46853L3.55311 6.91999L2.84747 3.24489ZM10.4606 11.115L11.7239 7.2234L8.37047 4.81497L5.07609 7.2234L6.34987 11.115H10.4606ZM16.8 8.47684C16.8 6.61637 16.1798 4.8084 15.0373 3.34168L13.965 3.24522L13.2464 6.92153L15.9767 9.47007L16.7944 8.75509C16.7705 8.6245 16.8 8.55887 16.8 8.47684ZM1.6987 12.1551L1.45622 13.2202C2.55478 14.8316 4.17834 16.0116 6.04997 16.5572L6.98841 15.9998L5.40717 12.6102L1.6987 12.1551ZM11.3925 12.6079L9.81127 15.9975L10.7487 16.5553C12.6207 16.0086 14.2432 14.8287 15.3425 13.2182L15.1003 12.1532L11.3925 12.6079Z" fill="#6A6A6A"/>
<path opacity="0.4" d="M16.7932 8.75237C16.7459 10.349 16.2413 11.8981 15.3403 13.2182L15.0981 12.1531L11.3903 12.6078L9.8091 15.9974L10.7351 16.5499C9.96463 16.7724 9.1709 16.8846 8.37749 16.8846C7.59786 16.8846 6.81857 16.7763 6.06158 16.5577L6.98788 15.998L5.40664 12.6084L1.69883 12.153L1.45635 13.2181C0.555645 11.8994 0.0519727 10.3499 0.00439453 8.75231L0.823066 9.46631L3.55307 6.91776L2.84727 3.2448L1.76085 3.34126C2.73604 2.08487 4.04689 1.13069 5.54085 0.588953L5.5527 0.597759L5.13496 1.58383L8.3998 3.39278L11.6646 1.58383L11.2348 0.581406C12.7383 1.12216 14.0567 2.07897 15.0378 3.34126L13.9648 3.24512L13.2462 6.92144L15.9765 9.46998L16.7932 8.75237ZM11.7237 7.22331L8.37027 4.81487L5.07589 7.22331L6.34968 11.1149H10.4604L11.7237 7.22331Z" fill="#6A6A6A"/>
</g>
<defs>
<clipPath id="clip0_37_6215">
<rect width="16.8" height="16.8" fill="white" transform="translate(0 0.0899658)"/>
</clipPath>
</defs>
</svg>
