<svg width="21" height="22" viewBox="0 0 21 22" fill="none" xmlns="http://www.w3.org/2000/svg">
<g clip-path="url(#clip0_37_5533)">
<path d="M7.875 4.34234C7.875 2.94166 9.06445 0.5 10.5 0.5C11.9766 0.5 13.125 2.94166 13.125 4.34234V16.9062L15.4875 18.6781C15.6516 18.8012 15.75 18.9611 15.75 19.2031V20.8889C15.75 21.2416 15.4916 21.5 15.1389 21.5C15.1225 21.5 15.0691 21.4918 15.0158 21.4795L10.5 20.1875L5.98418 21.4795C5.93086 21.4918 5.87754 21.5 5.82422 21.5C5.5084 21.5 5.25 21.2416 5.25 20.8889V19.2031C5.25 18.9611 5.34844 18.8012 5.5125 18.6781L7.875 16.9062V4.34234Z" fill="#FDFFFF" fill-opacity="0.7"/>
<path opacity="0.4" d="M7.875 13.625L0.863789 15.926C0.438867 16.1023 0 15.7865 0 15.3395V13.0139C0 12.575 0.219311 12.1648 0.584473 11.9229L7.875 7.0625V13.625ZM13.125 7.0625L20.4176 11.9229C20.7826 12.1648 21 12.575 21 13.0139V15.3395C21 15.7865 20.5611 16.1023 20.1346 15.926L13.125 13.5881V7.0625Z" fill="#FDFFFF" fill-opacity="0.7"/>
</g>
<defs>
<clipPath id="clip0_37_5533">
<rect width="21" height="21" fill="white" transform="translate(0 0.5)"/>
</clipPath>
</defs>
</svg>
