<svg width="21" height="22" viewBox="0 0 21 22" fill="none" xmlns="http://www.w3.org/2000/svg">
<g clip-path="url(#clip0_37_5569)">
<path d="M8.10784 9.16245L7.05915 9.16209L7.05784 8.11245C7.05784 7.67933 6.70412 7.32495 6.271 7.32495C5.86675 7.32495 5.48284 7.67933 5.48284 8.11245L5.48404 9.16212L4.43284 9.16245C3.99971 9.16245 3.646 9.51683 3.646 9.94995C3.646 10.3831 3.99939 10.7375 4.43284 10.7375L5.48415 10.7371L5.48284 11.7875C5.48284 12.2206 5.83787 12.575 6.271 12.575C6.70412 12.575 7.05784 12.2206 7.05784 11.7875L7.05905 10.7371L8.10784 10.7375C8.54097 10.7375 8.896 10.3831 8.896 9.94995C8.89534 9.51683 8.5705 9.16245 8.10784 9.16245Z" fill="#FDFFFF" fill-opacity="0.7"/>
<path opacity="0.4" d="M21.0002 15.2066C21.0002 15.0341 20.9852 14.8588 20.9541 14.6822L19.8588 7.73912C19.4055 5.15809 17.1283 3.65002 10.4707 3.65002C3.90488 3.65002 1.59849 5.14168 1.14142 7.73846L0.0461344 14.6816C0.0150052 14.8582 0 15.0333 0 15.2059C0 16.9086 1.46278 18.3497 3.33047 18.3497C4.96092 18.3497 6.40762 17.3634 6.92344 15.9006L7.16953 15.1997H13.8305L14.0766 15.9006C14.5924 17.3634 16.0391 18.3497 17.6695 18.3497C19.5368 18.3205 21.0002 16.9096 21.0002 15.2066ZM8.10817 10.7375L7.05948 10.7372L7.05817 11.7875C7.05817 12.2206 6.70445 12.575 6.27132 12.575C5.8382 12.575 5.48317 12.2206 5.48317 11.7875L5.48437 10.7372L4.43317 10.7375C4.00004 10.7375 3.64632 10.3831 3.64632 9.95002C3.64632 9.5169 3.99971 9.16252 4.43317 9.16252L5.48448 9.16216L5.48317 8.11252C5.48317 7.6794 5.8382 7.32502 6.27132 7.32502C6.70445 7.32502 7.05817 7.6794 7.05817 8.11252L7.05937 9.1622L8.10817 9.16252C8.54129 9.16252 8.89632 9.5169 8.89632 9.95002C8.89567 10.3831 8.57082 10.7375 8.10817 10.7375ZM14.1752 12.808C13.4504 12.808 12.8627 12.22 12.8627 11.4955C12.8627 10.771 13.4504 10.183 14.1752 10.183C14.9 10.183 15.4877 10.771 15.4877 11.4955C15.4877 12.2502 14.9004 12.808 14.1752 12.808ZM16.2752 9.65799C15.5504 9.65799 14.9627 9.06999 14.9627 8.34549C14.9627 7.62099 15.5504 7.03299 16.2752 7.03299C17 7.03299 17.5877 7.62099 17.5877 8.34549C17.5877 9.10018 17.0004 9.65799 16.2752 9.65799Z" fill="#FDFFFF" fill-opacity="0.7"/>
</g>
<defs>
<clipPath id="clip0_37_5569">
<rect width="21" height="21" fill="white" transform="translate(0 0.5)"/>
</clipPath>
</defs>
</svg>
