<svg width="21" height="22" viewBox="0 0 21 22" fill="none" xmlns="http://www.w3.org/2000/svg">
<g clip-path="url(#clip0_37_5528)">
<path d="M10.5 11C7.24438 11 2.625 16.0347 2.625 19.2134C2.625 20.6438 3.72217 21.5 5.56787 21.5C7.57251 21.5 8.89526 20.4695 10.5 20.4695C12.1201 20.4695 13.448 21.5 15.4321 21.5C17.2778 21.5 18.375 20.6438 18.375 19.2134C18.375 16.0347 13.7556 11 10.5 11Z" fill="#FDFFFF" fill-opacity="0.7"/>
<path opacity="0.4" d="M7.93652 9.6311C9.20288 9.29785 9.83862 7.58032 9.35156 5.80127C9.08496 4.82202 8.53125 4.0376 7.875 3.57617V0.5L5.25 3.78125C4.63477 4.50928 4.40918 5.73975 4.75781 7.01123C5.24487 8.79028 6.66504 9.96436 7.93652 9.6311ZM13.0635 9.6311C14.335 9.96436 15.7551 8.79028 16.2422 7.01123C16.5908 5.73975 16.3652 4.50928 15.75 3.78125L13.125 0.5V3.57617C12.4688 4.0376 11.915 4.82202 11.6484 5.80127C11.1614 7.58032 11.7971 9.29785 13.0635 9.6311ZM4.46045 10.4822C4.16309 9.4978 3.44019 8.76465 2.625 8.49292V5.75L0.758789 8.30835C0.266602 8.98511 0 9.80029 0 10.636C0 10.918 0.0461426 11.2153 0.133301 11.5178C0.558838 12.938 1.87646 13.8608 3.07104 13.5737C4.26562 13.2866 4.88599 11.9024 4.46045 10.4822ZM20.2412 8.30835L18.375 5.75V8.49805C17.5598 8.76465 16.8369 9.4978 16.5396 10.4822C16.114 11.9024 16.7344 13.2866 17.929 13.5737C19.1235 13.8608 20.4412 12.938 20.8667 11.5178C20.9539 11.2205 21 10.9231 21 10.636C21 9.80029 20.7334 8.98511 20.2412 8.30835Z" fill="#FDFFFF" fill-opacity="0.7"/>
</g>
<defs>
<clipPath id="clip0_37_5528">
<rect width="21" height="21" fill="white" transform="translate(0 0.5)"/>
</clipPath>
</defs>
</svg>
