<svg width="21" height="22" viewBox="0 0 21 22" fill="none" xmlns="http://www.w3.org/2000/svg">
<g clip-path="url(#clip0_37_5515)">
<path d="M17.4595 7.86344L13.6437 4.04771C13.298 3.70203 12.7376 3.70203 12.3919 4.04771L11.4658 4.97384C10.5495 4.63764 9.56411 4.44474 8.53125 4.44474C3.81958 4.44474 0 8.26432 0 12.976C0 17.6877 3.81958 21.5072 8.53125 21.5072C13.2429 21.5072 17.0625 17.6877 17.0625 12.976C17.0625 11.9431 16.8696 10.9577 16.5334 10.0414L17.4595 9.11531C17.8052 8.76964 17.8052 8.2092 17.4595 7.86344ZM8.53125 8.38224C5.99854 8.38224 3.9375 10.4433 3.9375 12.976C3.9375 13.3387 3.64399 13.6322 3.28125 13.6322C2.91851 13.6322 2.625 13.3387 2.625 12.976C2.625 9.71907 5.27436 7.06974 8.53125 7.06974C8.89399 7.06974 9.1875 7.36325 9.1875 7.72599C9.1875 8.08874 8.89399 8.38224 8.53125 8.38224Z" fill="#FDFFFF" fill-opacity="0.7"/>
<path opacity="0.4" d="M15.6197 4.95331L15.0938 5.47926L16.0208 6.40625L16.5467 5.88031C16.8028 5.62425 16.8028 5.20941 16.5467 4.95331C16.2906 4.69721 15.8758 4.69725 15.6197 4.95331ZM20.8793 2.92685L19.252 2.24829L18.5734 0.62116C18.5401 0.554182 18.4527 0.5 18.378 0.5C18.3033 0.5 18.2158 0.554182 18.1825 0.62116L17.504 2.24829L15.8767 2.92685C15.8103 2.96012 15.7561 3.0476 15.7561 3.12225C15.7561 3.19653 15.8103 3.28447 15.8767 3.31777L17.504 3.99629L18.1825 5.62338C18.2158 5.69036 18.3033 5.74459 18.378 5.74459C18.4527 5.74459 18.5401 5.69036 18.5734 5.62338L19.252 3.99629L20.8793 3.31777C20.9458 3.28447 21 3.19653 21 3.12225C21 3.0476 20.9458 2.96012 20.8793 2.92685Z" fill="#FDFFFF" fill-opacity="0.7"/>
</g>
<defs>
<clipPath id="clip0_37_5515">
<rect width="21" height="21" fill="white" transform="translate(0 0.5)"/>
</clipPath>
</defs>
</svg>
