<svg width="21" height="22" viewBox="0 0 21 22" fill="none" xmlns="http://www.w3.org/2000/svg">
<g clip-path="url(#clip0_37_5564)">
<path d="M6.52144 7.0215C6.90698 6.64005 7.53042 6.64005 7.87905 7.0215L11.1603 10.3027C11.5787 10.6883 11.5787 11.3117 11.1603 11.6604C10.8117 12.0787 10.1882 12.0787 9.80269 11.6604L6.52144 8.37911C6.13999 8.03048 6.13999 7.40704 6.52144 7.0215Z" fill="#FDFFFF" fill-opacity="0.7"/>
<path opacity="0.4" d="M9.1875 1.8125C9.1875 1.08775 9.77402 0.5 10.5 0.5C16.2996 0.5 21 5.20039 21 11C21 16.7996 16.2996 21.5 10.5 21.5C4.70039 21.5 0 16.7996 0 11C0 8.06328 1.20832 5.40547 3.15164 3.49988C3.66926 2.99293 4.49941 3.00113 5.00801 3.51875C5.5166 4.03678 5.5084 4.86816 4.9875 5.37676C3.52857 6.8041 2.625 8.79746 2.625 11C2.625 15.3477 6.11543 18.875 10.5 18.875C14.8477 18.875 18.375 15.3477 18.375 11C18.375 7.09941 15.5367 3.85877 11.8125 3.23369V4.4375C11.8125 5.16348 11.226 5.75 10.5 5.75C9.77402 5.75 9.1875 5.16348 9.1875 4.4375V1.8125Z" fill="#FDFFFF" fill-opacity="0.7"/>
</g>
<defs>
<clipPath id="clip0_37_5564">
<rect width="21" height="21" fill="white" transform="translate(0 0.5)"/>
</clipPath>
</defs>
</svg>
