<svg width="21" height="22" viewBox="0 0 21 22" fill="none" xmlns="http://www.w3.org/2000/svg">
<g clip-path="url(#clip0_37_5549)">
<path d="M19.3955 8.90002H15.5007C15.6456 9.23701 15.7174 9.59729 15.7174 9.95757C15.7174 10.6368 15.4593 11.3154 14.942 11.8325L10.473 16.3015V17.8231C10.5001 18.6946 11.2055 19.4 12.0751 19.4H19.3955C20.2651 19.4 20.941 18.6946 20.941 17.8546V10.475C20.9705 9.60549 20.2946 8.90002 19.3955 8.90002ZM15.7205 14.9375C15.2858 14.9375 14.9626 14.5848 14.9626 14.1796C14.9626 13.7743 15.3153 13.4216 15.7205 13.4216C16.1258 13.4216 16.4785 13.7743 16.4785 14.1796C16.4785 14.5848 16.1832 14.9375 15.7205 14.9375ZM3.15006 9.16252C2.71529 9.16252 2.39209 9.51526 2.39209 9.92049C2.39209 10.3257 2.74482 10.6785 3.15006 10.6785C3.55529 10.6785 3.90803 10.3257 3.90803 9.92049C3.90803 9.51526 3.58646 9.16252 3.15006 9.16252ZM11.5501 10.7375C11.9848 10.7375 12.308 10.3848 12.308 9.97956C12.308 9.57432 11.9553 9.22159 11.5501 9.22159C11.1448 9.22159 10.7626 9.5169 10.7626 9.95002C10.7626 10.3831 11.1169 10.7375 11.5501 10.7375ZM7.35006 13.3625C6.91529 13.3625 6.59209 13.7153 6.59209 14.1205C6.59209 14.5257 6.94482 14.8785 7.35006 14.8785C7.78482 14.8785 8.10803 14.5257 8.10803 14.1205C8.10803 13.7153 7.78646 13.3625 7.35006 13.3625ZM7.35006 9.16252C6.91529 9.16252 6.59209 9.51526 6.59209 9.92049C6.59209 10.3257 6.94482 10.6785 7.35006 10.6785C7.75529 10.6785 8.10803 10.3257 8.10803 9.92049C8.10803 9.51526 7.78646 9.16252 7.35006 9.16252ZM7.35006 4.96252C6.91529 4.96252 6.59209 5.31526 6.59209 5.72049C6.59209 6.12573 6.94482 6.47846 7.35006 6.47846C7.78482 6.47846 8.10803 6.12573 8.10803 5.72049C8.10803 5.31526 7.78646 4.96252 7.35006 4.96252Z" fill="#FDFFFF" fill-opacity="0.7"/>
<path opacity="0.4" d="M14.6705 9.94998C14.6705 9.53785 14.5136 9.1254 14.1996 8.80941L8.46074 3.07051C8.17363 2.75695 7.76019 2.59998 7.3205 2.59998C6.9366 2.59998 6.52644 2.75695 6.20816 3.07083L0.470895 8.8081C0.157011 9.12638 0 9.53654 0 9.92044C0 10.3326 0.157041 10.7467 0.470859 11.0623L6.20977 16.8012C6.52562 17.115 6.93787 17.2721 7.35 17.2721C7.76212 17.2721 8.17458 17.1152 8.49023 16.8012L14.2291 11.0623C14.5425 10.7736 14.6705 10.3634 14.6705 9.94998ZM3.15004 10.7375C2.71527 10.7375 2.39207 10.3847 2.39207 9.97951C2.39207 9.57427 2.7448 9.22154 3.15004 9.22154C3.55527 9.22154 3.908 9.57427 3.908 9.97951C3.908 10.3847 3.58644 10.7375 3.15004 10.7375ZM7.35004 14.9375C6.91527 14.9375 6.59207 14.5847 6.59207 14.1795C6.59207 13.7743 6.9448 13.4215 7.35004 13.4215C7.7848 13.4215 8.108 13.7743 8.108 14.1795C8.108 14.5847 7.78644 14.9375 7.35004 14.9375ZM7.35004 10.7375C6.91527 10.7375 6.59207 10.3847 6.59207 9.97951C6.59207 9.57427 6.9448 9.22154 7.35004 9.22154C7.75527 9.22154 8.108 9.57427 8.108 9.97951C8.108 10.3847 7.78644 10.7375 7.35004 10.7375ZM7.35004 6.53748C6.91527 6.53748 6.59207 6.18474 6.59207 5.77951C6.59207 5.37427 6.9448 5.02154 7.35004 5.02154C7.7848 5.02154 8.108 5.37427 8.108 5.77951C8.108 6.18474 7.78644 6.53748 7.35004 6.53748ZM11.55 10.7375C11.1153 10.7375 10.7921 10.3847 10.7921 9.97951C10.7921 9.57427 11.1448 9.22154 11.55 9.22154C11.9553 9.22154 12.308 9.57427 12.308 9.97951C12.308 10.3847 11.9864 10.7375 11.55 10.7375Z" fill="#FDFFFF" fill-opacity="0.7"/>
</g>
<defs>
<clipPath id="clip0_37_5549">
<rect width="21" height="21" fill="white" transform="translate(0 0.5)"/>
</clipPath>
</defs>
</svg>
