<svg width="46" height="46" viewBox="0 0 46 46" fill="none" xmlns="http://www.w3.org/2000/svg">
<path d="M40.5261 17.2424C40.5261 16.8207 40.1888 16.4757 39.7595 16.4757H6.24079C5.81912 16.4757 5.47412 16.8207 5.47412 17.2424C5.47412 17.664 5.81912 18.009 6.24079 18.009H39.7595C40.1888 18.009 40.5261 17.664 40.5261 17.2424Z" fill="#BBBDBE"/>
<path d="M4.60016 41.3157H41.4002C41.8218 41.3157 42.1668 40.9707 42.1668 40.549C42.1668 40.1197 41.8218 39.7823 41.4002 39.7823H4.60016C4.1785 39.7823 3.8335 40.1197 3.8335 40.549C3.8335 40.9707 4.1785 41.3157 4.60016 41.3157Z" fill="#BBBDBE"/>
<path d="M6.90778 15.3333H39.0924C39.5141 15.3333 39.8591 14.9883 39.8591 14.5666V12.2743C39.8591 11.9676 39.6751 11.6916 39.3914 11.5689L23.2991 4.74561C23.1074 4.66894 22.8928 4.66894 22.7011 4.74561L6.60878 11.5689C6.32511 11.6916 6.14111 11.9676 6.14111 12.2743V14.5666C6.14111 14.9883 6.48611 15.3333 6.90778 15.3333Z" fill="#BBBDBE"/>
<path d="M29.2176 19.4426H25.6833C25.2693 19.4426 24.932 19.7723 24.9166 20.1863L24.4336 37.9346C24.426 38.1416 24.5026 38.341 24.6483 38.4866C24.794 38.64 24.9933 38.7243 25.2003 38.7243H29.7006C29.9076 38.7243 30.107 38.64 30.2526 38.4866C30.3983 38.341 30.475 38.1416 30.4673 37.9346L29.9843 20.1863C29.969 19.7723 29.6316 19.4426 29.2176 19.4426Z" fill="#BBBDBE"/>
<path d="M20.3167 19.4426H16.79C16.3684 19.4426 16.031 19.7723 16.0234 20.1863L15.5327 37.9346C15.525 38.1416 15.6094 38.341 15.7474 38.4866C15.893 38.64 16.0924 38.7243 16.2994 38.7243H20.8074C21.0144 38.7243 21.206 38.64 21.3517 38.4866C21.4974 38.341 21.574 38.1416 21.574 37.9346L21.0834 20.1863C21.0757 19.7723 20.7307 19.4426 20.3167 19.4426Z" fill="#BBBDBE"/>
<path d="M11.4232 19.4426H7.88886C7.47486 19.4426 7.13753 19.7723 7.1222 20.1863L6.6392 37.9346C6.63153 38.1416 6.7082 38.341 6.85386 38.4866C6.99953 38.64 7.19886 38.7243 7.40586 38.7243H11.9062C12.1132 38.7243 12.3125 38.64 12.4582 38.4866C12.5962 38.341 12.6805 38.1416 12.6729 37.9346L12.1899 20.1863C12.1745 19.7723 11.8372 19.4426 11.4232 19.4426Z" fill="#BBBDBE"/>
<path d="M38.1111 19.4426H34.5845C34.1705 19.4426 33.8255 19.7723 33.8178 20.1863L33.3271 37.9346C33.3271 38.1416 33.4038 38.341 33.5495 38.4866C33.6951 38.64 33.8868 38.7243 34.0938 38.7243H38.6018C38.8088 38.7243 39.0005 38.64 39.1461 38.4866C39.2918 38.341 39.3685 38.1416 39.3685 37.9346L38.8778 20.1863C38.8701 19.7723 38.5251 19.4426 38.1111 19.4426Z" fill="#BBBDBE"/>
</svg>
