<svg width="19" height="22" viewBox="0 0 19 22" fill="none" xmlns="http://www.w3.org/2000/svg">
<path d="M17.375 14.9375H1.625C0.902305 14.9375 0.3125 15.5273 0.3125 16.25V20.1875C0.3125 20.9102 0.902305 21.5 1.625 21.5H17.375C18.0977 21.5 18.6875 20.9102 18.6875 20.1875V16.25C18.6875 15.5281 18.0969 14.9375 17.375 14.9375ZM9.5 9.68751C12.0372 9.68751 14.0938 7.63057 14.0938 5.09376C14.0938 2.55694 12.0389 0.5 9.5 0.5C6.96113 0.5 4.86934 2.55653 4.86934 5.05684C4.86934 7.55716 6.96113 9.68751 9.5 9.68751ZM8.51562 2.46876C9.06113 2.46876 9.5 2.90968 9.5 3.45313C9.5 3.99659 9.06113 4.43751 8.51562 4.43751C7.97012 4.43751 7.53125 3.99659 7.53125 3.45313C7.53125 2.90968 7.97422 2.46876 8.51562 2.46876Z" fill="#FDFFFF" fill-opacity="0.7"/>
</svg>
