<svg width="47" height="47" viewBox="0 0 47 47" fill="none" xmlns="http://www.w3.org/2000/svg">
<g clip-path="url(#clip0_86_97)">
<path d="M17.625 23.5C24.1143 23.5 29.375 18.2393 29.375 11.75C29.375 5.26065 24.1143 0 17.625 0C11.1357 0 5.875 5.26065 5.875 11.75C5.875 18.2393 11.1357 23.5 17.625 23.5Z" fill="#5F6162"/>
<path d="M25.5425 27.4167H9.70746C7.13383 27.4198 4.66651 28.4435 2.84668 30.2633C1.02686 32.0832 0.0031095 34.5505 0 37.1241L0 47H35.25V37.1241C35.2469 34.5505 34.2231 32.0832 32.4033 30.2633C30.5835 28.4435 28.1162 27.4198 25.5425 27.4167Z" fill="#5F6162"/>
<path d="M41.1252 19.5833V13.7083H37.2085V19.5833H31.3335V23.5H37.2085V29.375H41.1252V23.5H47.0002V19.5833H41.1252Z" fill="#5F6162"/>
</g>
<defs>
<clipPath id="clip0_86_97">
<rect width="47" height="47" fill="white"/>
</clipPath>
</defs>
</svg>
