<svg width="23" height="19" viewBox="0 0 23 19" fill="none" xmlns="http://www.w3.org/2000/svg">
<path d="M18.4784 0H11.9105C9.64704 0 11.9105 1.77571 11.9105 3.95833L9.91668 15.0417C9.91668 17.2243 9.64704 19 11.9105 19H18.4784C20.7419 19 22.5833 17.2243 22.5833 15.0417V3.95833C22.5833 1.77571 20.7419 0 18.4784 0ZM18.4423 10.6305C18.3183 11.206 17.8405 11.6874 17.2486 11.8267C16.6402 11.97 16.0696 11.7847 15.6854 11.419C15.8471 11.9415 16.0581 12.4355 16.3438 12.8638C16.5154 13.1211 16.3061 13.4591 15.9892 13.4591H14.4006C14.0837 13.4591 13.8743 13.1211 14.0459 12.8638C14.3316 12.4355 14.5434 11.9415 14.7043 11.419C14.3193 11.7847 13.7495 11.97 13.1412 11.8267C12.5492 11.6874 12.0714 11.206 11.9474 10.6305C11.7274 9.60767 12.5312 8.70833 13.5533 8.70833C13.6362 8.70833 13.715 8.72021 13.7938 8.73208C13.6444 8.493 13.5533 8.21671 13.5533 7.91667C13.5533 7.04188 14.2881 6.33333 15.1953 6.33333C16.1025 6.33333 16.8372 7.04188 16.8372 7.91667C16.8372 8.21592 16.7461 8.493 16.5967 8.73208C16.6763 8.721 16.7551 8.70833 16.8372 8.70833C17.8586 8.70833 18.6615 9.60767 18.4423 10.6305Z" fill="#686868"/>
<path d="M10.3272 0H4.22842C2.12663 0 0.416687 1.77571 0.416687 3.95833V15.0417C0.416687 17.2243 2.12663 19 4.22842 19H10.3272C12.429 19 14.1389 17.2243 14.1389 15.0417V3.95833C14.1389 1.77571 12.429 0 10.3272 0ZM9.56483 10.0653L7.75274 12.7538C7.52175 13.0965 7.03309 13.0965 6.80209 12.7538L4.99 10.0653C4.76129 9.72563 4.76129 9.27437 4.99 8.93554L6.80209 6.24704C7.03309 5.90425 7.52175 5.90425 7.75274 6.24704L9.56483 8.93554C9.79354 9.27517 9.79354 9.72642 9.56483 10.0653Z" fill="#D0D0D0"/>
</svg>
