<svg width="26" height="26" viewBox="0 0 26 26" fill="none" xmlns="http://www.w3.org/2000/svg">
<g clip-path="url(#clip0_1_657)">
<path d="M24.7531 8.3197L23.8117 7.58303H23.8344V2.16636H21.6677V5.90495L15.0031 0.689778C13.8244 -0.233222 12.1767 -0.233222 10.998 0.689778L1.24692 8.3197C0.455 8.93936 0 9.8732 0 10.8796V25.9997H9.75V16.2497C9.75 15.6528 10.2353 15.1664 10.8333 15.1664H15.1667C15.7647 15.1664 16.25 15.6528 16.25 16.2497V25.9997H26V10.8796C26 9.8732 25.545 8.93936 24.7531 8.3197ZM23.8333 23.833H18.4167V16.2497C18.4167 14.4579 16.9585 12.9997 15.1667 12.9997H10.8333C9.0415 12.9997 7.58333 14.4579 7.58333 16.2497V23.833H2.16667V10.8796C2.16667 10.5438 2.31833 10.2329 2.58267 10.0259L12.3327 2.39603C12.7259 2.08836 13.2741 2.08836 13.6673 2.39603L23.4173 10.0259C23.6817 10.2329 23.8333 10.5438 23.8333 10.8796V23.833Z" fill="white"/>
</g>
<defs>
<clipPath id="clip0_1_657">
<rect width="26" height="26" fill="white"/>
</clipPath>
</defs>
</svg>
