<svg width="89" height="89" viewBox="0 0 89 89" fill="none" xmlns="http://www.w3.org/2000/svg">
<g clip-path="url(#clip0_86_88)">
<path d="M3.71254 17.6173H13.8575C15.8598 24.9844 23.4552 29.3335 30.8223 27.3312C35.554 26.0452 39.2503 22.3489 40.5363 17.6173H85.2877C87.3355 17.6173 88.9956 15.9572 88.9956 13.9094C88.9956 11.8615 87.3355 10.2015 85.2877 10.2015H40.5363C38.534 2.83416 30.9386 -1.51494 23.5715 0.487363C18.8398 1.77339 15.1436 5.46965 13.8575 10.2013H3.71254C1.66471 10.2013 0.00463867 11.8614 0.00463867 13.9092C0.00463867 15.957 1.66471 17.6173 3.71254 17.6173Z" fill="#5F6162"/>
<path d="M85.2877 40.792H75.1427C73.1444 33.4259 65.5532 29.0744 58.1871 31.0725C53.4516 32.3571 49.7522 36.0563 48.4676 40.792H3.71254C1.66471 40.792 0.00463867 42.4521 0.00463867 44.4999C0.00463867 46.5477 1.66471 48.2078 3.71254 48.2078H48.4676C50.4659 55.5739 58.0571 59.9254 65.4232 57.9273C70.1587 56.6427 73.8581 52.9434 75.1427 48.2078H85.2877C87.3355 48.2078 88.9956 46.5477 88.9956 44.4999C88.9956 42.4521 87.3355 40.792 85.2877 40.792Z" fill="#5F6162"/>
<path d="M85.2877 71.3827H40.5363C38.534 64.0156 30.9386 59.6665 23.5715 61.6688C18.8398 62.9548 15.1436 66.651 13.8575 71.3827H3.71254C1.66471 71.3827 0.00463867 73.0428 0.00463867 75.0906C0.00463867 77.1384 1.66471 78.7985 3.71254 78.7985H13.8575C15.8598 86.1657 23.4552 90.5147 30.8223 88.5124C35.554 87.2264 39.2503 83.5302 40.5363 78.7985H85.2877C87.3355 78.7985 88.9956 77.1384 88.9956 75.0906C88.9956 73.0428 87.3355 71.3827 85.2877 71.3827Z" fill="#5F6162"/>
</g>
<defs>
<clipPath id="clip0_86_88">
<rect width="89" height="89" fill="white"/>
</clipPath>
</defs>
</svg>
