<svg width="100" height="30" viewBox="0 0 100 30" fill="none" xmlns="http://www.w3.org/2000/svg">
<ellipse cx="16.1626" cy="15.3906" rx="12.1202" ry="11.999" fill="white"/>
<mask id="mask0_22_3" style="mask-type:luminance" maskUnits="userSpaceOnUse" x="6" y="5" width="20" height="21">
<path d="M16.1398 25.0997C21.5701 25.0997 25.9722 20.7416 25.9722 15.3656C25.9722 9.98958 21.5701 5.63147 16.1398 5.63147C10.7095 5.63147 6.30737 9.98958 6.30737 15.3656C6.30737 20.7416 10.7095 25.0997 16.1398 25.0997Z" fill="white"/>
</mask>
<g mask="url(#mask0_22_3)">
<path d="M26.0781 5.52625H6.20093V25.2046H26.0781V5.52625Z" fill="#009B3A"/>
<path d="M16.1396 10.0524L7.75159 15.3656L16.1396 20.6789L24.5276 15.3656L16.1396 10.0524Z" fill="#FEDF00"/>
<mask id="mask1_22_3" style="mask-type:luminance" maskUnits="userSpaceOnUse" x="12" y="11" width="8" height="8">
<path d="M16.1394 18.868C18.0933 18.868 19.6773 17.2999 19.6773 15.3655C19.6773 13.4311 18.0933 11.8629 16.1394 11.8629C14.1854 11.8629 12.6014 13.4311 12.6014 15.3655C12.6014 17.2999 14.1854 18.868 16.1394 18.868Z" fill="white"/>
</mask>
<g mask="url(#mask1_22_3)">
<path d="M16.1394 18.868C18.0933 18.868 19.6773 17.2999 19.6773 15.3655C19.6773 13.4311 18.0933 11.8629 16.1394 11.8629C14.1854 11.8629 12.6014 13.4311 12.6014 15.3655C12.6014 17.2999 14.1854 18.868 16.1394 18.868Z" fill="#002776"/>
<path d="M19.5843 16.5216C18.6663 15.7093 17.5621 15.0968 16.3918 14.7514C15.171 14.3913 13.8571 14.3137 12.592 14.5265L12.4937 13.9545C13.8476 13.7263 15.2528 13.8098 16.5589 14.1949C17.2985 14.4128 18.0094 14.7272 18.6707 15.1278C19.1327 15.4078 19.5713 15.7308 19.975 16.0883L19.5843 16.5207V16.5216Z" fill="white"/>
<path d="M13.2009 14.3542C13.1757 14.3568 13.1522 14.3542 13.1313 14.3456C13.1096 14.3378 13.0913 14.3266 13.0748 14.3111C13.0582 14.2965 13.0452 14.2793 13.0356 14.2586C13.0252 14.2388 13.02 14.2172 13.0174 14.1957C13.0156 14.1733 13.0174 14.1509 13.0243 14.1294C13.0313 14.1078 13.0408 14.088 13.0548 14.0708C13.0687 14.0536 13.0852 14.0389 13.1044 14.0277C13.1244 14.0165 13.1461 14.0096 13.1705 14.007C13.1957 14.0045 13.2184 14.007 13.2401 14.0157C13.2619 14.0243 13.2801 14.0355 13.2967 14.0501C13.3123 14.0648 13.3254 14.0828 13.3358 14.1027C13.3463 14.1225 13.3515 14.1431 13.3541 14.1647C13.3558 14.1871 13.3541 14.2095 13.3471 14.231C13.3402 14.2526 13.3306 14.2715 13.3175 14.2887C13.3045 14.306 13.288 14.3206 13.2679 14.3318C13.2479 14.343 13.2262 14.3499 13.2018 14.3525L13.2009 14.3542ZM13.0852 14.1905C13.087 14.2052 13.0904 14.219 13.0957 14.2327C13.1018 14.2457 13.1096 14.2577 13.1183 14.2672C13.127 14.2767 13.1392 14.2844 13.1522 14.2896C13.1653 14.2948 13.1801 14.2965 13.1957 14.2956C13.2123 14.2939 13.2262 14.2896 13.2375 14.2818C13.2497 14.2741 13.2592 14.2646 13.2662 14.2526C13.274 14.2405 13.2793 14.2284 13.2819 14.2138C13.2854 14.2 13.2862 14.1854 13.2845 14.1716C13.2827 14.1569 13.2793 14.1431 13.2732 14.1294C13.2671 14.1164 13.2592 14.1044 13.2497 14.0949C13.2401 14.0854 13.2288 14.0777 13.2157 14.0725C13.2027 14.0673 13.1888 14.0656 13.1731 14.0673C13.1566 14.0691 13.1426 14.0734 13.1305 14.0811C13.1183 14.0889 13.1087 14.0984 13.1018 14.1096C13.0939 14.1208 13.0887 14.1337 13.0861 14.1475C13.0826 14.1612 13.0817 14.1759 13.0835 14.1897L13.0852 14.1905Z" fill="#009B3A"/>
<path d="M13.5134 14.3275L13.4987 13.9855L13.6518 13.9795C13.6675 13.9795 13.6823 13.9812 13.6962 13.9872C13.7101 13.9933 13.7223 14.001 13.7319 14.0122C13.7414 14.0234 13.7501 14.0346 13.7562 14.0475C13.7623 14.0613 13.7658 14.0742 13.7667 14.088C13.7675 14.1104 13.7632 14.1302 13.7527 14.1492C13.7423 14.1681 13.7275 14.1819 13.7092 14.1905L13.7936 14.3154L13.7179 14.3189L13.6422 14.2069L13.5761 14.2095L13.5813 14.3241L13.5143 14.3266L13.5134 14.3275ZM13.5735 14.1518L13.6579 14.1483C13.664 14.1483 13.6701 14.1466 13.6753 14.1432C13.6805 14.1397 13.6849 14.1363 13.6883 14.1311C13.6918 14.1259 13.6944 14.1199 13.697 14.113C13.6988 14.1061 13.6997 14.0992 13.6997 14.0915C13.6997 14.0837 13.6979 14.076 13.6944 14.0691C13.6918 14.0622 13.6875 14.057 13.6831 14.0519C13.6788 14.0467 13.6736 14.0432 13.6675 14.0407C13.6614 14.0381 13.6561 14.0372 13.6501 14.0372L13.5691 14.0407L13.5735 14.1518Z" fill="#009B3A"/>
<path d="M13.9302 14.3145L13.9328 13.9725H14.0581C14.0859 13.9734 14.1112 13.9786 14.132 13.9872C14.1529 13.9967 14.1712 14.0087 14.1851 14.0242C14.199 14.0397 14.2095 14.0578 14.2164 14.0785C14.2234 14.0992 14.2269 14.1216 14.2269 14.1448C14.2269 14.1707 14.2225 14.1948 14.2147 14.2155C14.2069 14.2361 14.1947 14.2542 14.1799 14.2689C14.1651 14.2835 14.1468 14.2956 14.126 14.3033C14.1051 14.3111 14.0816 14.3154 14.0555 14.3154H13.9302V14.3145ZM14.1599 14.144C14.1599 14.1276 14.1581 14.1121 14.1538 14.0983C14.1494 14.0845 14.1425 14.0725 14.1338 14.0621C14.1251 14.0518 14.1146 14.044 14.1016 14.0389C14.0885 14.0337 14.0746 14.0302 14.0581 14.0302H13.9998L13.998 14.2551H14.0563C14.0729 14.2551 14.0877 14.2525 14.1007 14.2473C14.1138 14.2413 14.1242 14.2335 14.1329 14.2241C14.1416 14.2137 14.1486 14.2017 14.1529 14.1879C14.1573 14.1741 14.1599 14.1595 14.1599 14.1431V14.144Z" fill="#009B3A"/>
<path d="M14.6157 14.2767L14.6122 14.3353L14.3721 14.3223L14.3912 13.9803L14.6261 13.9933L14.6227 14.0518L14.4547 14.0424L14.4504 14.1251L14.5957 14.1328L14.5931 14.1871L14.4478 14.1793L14.4426 14.2681L14.6148 14.2775L14.6157 14.2767Z" fill="#009B3A"/>
<path d="M15.0376 14.3749L15.062 14.1492L14.955 14.3077L14.9184 14.3043L14.848 14.1268L14.8236 14.3525L14.7566 14.3456L14.7931 14.0054L14.8645 14.0131L14.9454 14.2173L15.069 14.0347L15.1403 14.0424L15.1038 14.3827L15.0368 14.3758L15.0376 14.3749Z" fill="#009B3A"/>
<path d="M15.7254 14.424L15.7149 14.4817L15.4791 14.4386L15.5418 14.1018L15.7732 14.144L15.7628 14.2017L15.5975 14.1716L15.5827 14.2526L15.7262 14.2784L15.7167 14.3318L15.5731 14.306L15.5566 14.3938L15.7262 14.4248L15.7254 14.424Z" fill="#009B3A"/>
<path d="M16.0636 14.5583L16.1506 14.2267L16.2924 14.2629C16.3081 14.2672 16.3212 14.2741 16.3325 14.2835C16.3438 14.293 16.3525 14.3042 16.3594 14.3171C16.3664 14.3301 16.3708 14.3438 16.3725 14.3585C16.3742 14.3731 16.3734 14.3869 16.3699 14.4007C16.3664 14.4145 16.3603 14.4274 16.3516 14.4395C16.3429 14.4515 16.3333 14.461 16.3212 14.4696C16.309 14.4774 16.2959 14.4834 16.282 14.486C16.2672 14.4886 16.2524 14.4886 16.2368 14.4843L16.1576 14.4636L16.1289 14.5747L16.0636 14.5583ZM16.1724 14.4076L16.2481 14.4265C16.2602 14.43 16.2716 14.4265 16.282 14.4196C16.2924 14.4119 16.3003 14.3998 16.3046 14.3835C16.3072 14.3748 16.3072 14.3671 16.3064 14.3602C16.3064 14.3525 16.3038 14.3464 16.3011 14.3404C16.2985 14.3344 16.2942 14.3301 16.2898 14.3266C16.2846 14.3232 16.2794 14.3206 16.2742 14.3189L16.2019 14.2999L16.1741 14.4076H16.1724Z" fill="#009B3A"/>
<path d="M16.4465 14.6608L16.5492 14.3335L16.6954 14.3783C16.7102 14.3826 16.7232 14.3904 16.7345 14.4007C16.7459 14.411 16.7537 14.4222 16.7598 14.436C16.7659 14.4489 16.7694 14.4627 16.7711 14.4774C16.772 14.492 16.7711 14.5058 16.7667 14.5196C16.7598 14.5411 16.7485 14.5583 16.7328 14.5721C16.7163 14.5859 16.698 14.5945 16.678 14.5962L16.7145 14.7427L16.6423 14.7203L16.6092 14.5902L16.5457 14.5704L16.5118 14.6798L16.4474 14.66L16.4465 14.6608ZM16.5631 14.5153L16.6432 14.5402C16.6493 14.542 16.6554 14.542 16.6606 14.5411C16.6667 14.5402 16.6719 14.5377 16.6771 14.5342C16.6823 14.5308 16.6867 14.5256 16.691 14.5204C16.6954 14.5144 16.6989 14.5084 16.7006 14.5006C16.7032 14.4929 16.7041 14.4851 16.7032 14.4782C16.7032 14.4713 16.7015 14.4644 16.6989 14.4584C16.6963 14.4524 16.6928 14.4472 16.6876 14.4429C16.6832 14.4386 16.678 14.436 16.6719 14.4343L16.5945 14.4102L16.5614 14.5161L16.5631 14.5153Z" fill="#009B3A"/>
<path d="M16.9817 14.8392C16.9582 14.8306 16.9382 14.8185 16.9225 14.8021C16.9069 14.7858 16.8947 14.7677 16.886 14.747C16.8781 14.7263 16.8738 14.7057 16.8729 14.6833C16.8729 14.6609 16.8764 14.6393 16.8842 14.6187C16.8921 14.5971 16.9042 14.5782 16.919 14.5618C16.9347 14.5454 16.9521 14.5317 16.9721 14.5222C16.9921 14.5118 17.013 14.5067 17.0356 14.505C17.0583 14.5032 17.0809 14.5067 17.1044 14.5144C17.1279 14.523 17.1479 14.5351 17.1635 14.5523C17.1792 14.5687 17.1914 14.5876 17.1992 14.6075C17.2071 14.6281 17.2114 14.6488 17.2114 14.6712C17.2114 14.6936 17.2079 14.7151 17.201 14.735C17.1931 14.7565 17.1818 14.7754 17.1662 14.7918C17.1514 14.8082 17.134 14.822 17.1139 14.8314C17.0939 14.8409 17.0731 14.8469 17.0504 14.8487C17.0278 14.8504 17.0052 14.8469 16.9817 14.8392ZM16.9486 14.6419C16.9434 14.6557 16.9408 14.6703 16.9399 14.6841C16.9399 14.6988 16.9417 14.7126 16.946 14.7255C16.9504 14.7384 16.9573 14.7496 16.9669 14.7599C16.9765 14.7703 16.9887 14.778 17.0034 14.7832C17.0191 14.7884 17.033 14.7909 17.047 14.7884C17.0609 14.7866 17.0739 14.7815 17.0861 14.7746C17.0983 14.7677 17.1087 14.7582 17.1174 14.747C17.1261 14.7358 17.1331 14.7238 17.1383 14.71C17.1435 14.6962 17.1461 14.6815 17.147 14.6669C17.147 14.6523 17.1453 14.6385 17.1409 14.6256C17.1366 14.6126 17.1296 14.6014 17.12 14.5911C17.1105 14.5808 17.0983 14.573 17.0835 14.5678C17.0678 14.5627 17.0539 14.5601 17.0391 14.5627C17.0252 14.5644 17.0121 14.5687 17 14.5764C16.9878 14.5842 16.9782 14.5928 16.9695 14.604C16.9608 14.6152 16.9538 14.6273 16.9486 14.6411V14.6419Z" fill="#009B3A"/>
<path d="M17.5118 15.0062C17.4753 15.0208 17.4405 15.0208 17.4065 15.0062C17.3856 14.9976 17.3682 14.9847 17.3534 14.9692C17.3387 14.9528 17.3273 14.9347 17.3204 14.9149C17.3134 14.8951 17.3099 14.8727 17.3099 14.8503C17.3099 14.827 17.316 14.8046 17.3256 14.7814C17.3352 14.7598 17.3474 14.7409 17.3639 14.7254C17.3804 14.7099 17.3978 14.6978 17.4178 14.6892C17.4378 14.6806 17.4596 14.6763 17.4814 14.6763C17.504 14.6763 17.5257 14.6806 17.5484 14.6901C17.5779 14.703 17.6014 14.7193 17.6171 14.7409C17.6328 14.7624 17.6415 14.7857 17.6432 14.8115L17.5823 14.8253C17.5814 14.8063 17.5753 14.7891 17.564 14.7753C17.5527 14.7607 17.5388 14.7504 17.5222 14.7426C17.5092 14.7366 17.4953 14.7348 17.4814 14.7357C17.4674 14.7366 17.4552 14.74 17.4431 14.7469C17.4309 14.7529 17.4196 14.7616 17.41 14.7727C17.4004 14.7839 17.3926 14.796 17.3856 14.8107C17.3795 14.8253 17.3761 14.8399 17.3752 14.8554C17.3752 14.8701 17.3761 14.8839 17.3804 14.8977C17.3848 14.9106 17.3917 14.9226 17.4004 14.933C17.4091 14.9433 17.4204 14.9511 17.4344 14.9571C17.4648 14.97 17.4988 14.9674 17.5362 14.9493L17.5457 14.9269L17.4814 14.8994L17.5005 14.8546L17.6154 14.9037L17.5457 15.0656L17.4944 15.0441L17.5101 15.0088L17.5118 15.0062Z" fill="#009B3A"/>
<path d="M17.6841 15.1261L17.8364 14.8186L17.9738 14.8849C17.9878 14.8918 17.9999 14.9013 18.0086 14.9134C18.0182 14.9254 18.0243 14.9383 18.0287 14.9521C18.033 14.9659 18.0339 14.9806 18.033 14.9952C18.0321 15.0098 18.0287 15.0236 18.0226 15.0357C18.013 15.0555 17.9991 15.071 17.9808 15.0831C17.9625 15.0943 17.9434 15.0994 17.9225 15.0986L17.9364 15.2485L17.8685 15.2157L17.8564 15.0822L17.7972 15.0538L17.7459 15.1571L17.6858 15.1279L17.6841 15.1261ZM17.8216 14.9995L17.8973 15.0365C17.9025 15.0391 17.9086 15.0409 17.9147 15.04C17.9208 15.0391 17.9268 15.0383 17.9321 15.0357C17.9382 15.0331 17.9434 15.0288 17.9486 15.0236C17.9538 15.0185 17.9582 15.0124 17.9617 15.0055C17.9651 14.9986 17.9677 14.9909 17.9677 14.984C17.9677 14.9771 17.9677 14.9702 17.966 14.9633C17.9643 14.9573 17.9617 14.9513 17.9573 14.9461C17.9538 14.9409 17.9486 14.9375 17.9434 14.9349L17.8703 14.8996L17.8207 14.9995H17.8216Z" fill="#009B3A"/>
<path d="M18.2957 15.374L18.267 15.4249L18.0564 15.3103L18.2226 15.0096L18.4297 15.1216L18.401 15.1725L18.253 15.0923L18.213 15.1647L18.3409 15.2336L18.3148 15.281L18.1869 15.2121L18.1434 15.2905L18.2948 15.3723L18.2957 15.374Z" fill="#009B3A"/>
<path d="M18.6966 15.3844C18.6966 15.3844 18.694 15.3767 18.6905 15.3706C18.6871 15.3646 18.6836 15.3568 18.6775 15.35C18.6723 15.3422 18.6653 15.3353 18.6584 15.3276C18.6514 15.3198 18.6427 15.3138 18.634 15.3086C18.6183 15.2991 18.6044 15.2948 18.5931 15.2957C18.5818 15.2965 18.5731 15.3026 18.5661 15.3129C18.5626 15.3189 18.5609 15.325 18.5609 15.331C18.5609 15.337 18.5635 15.3431 18.567 15.3491C18.5705 15.3551 18.5757 15.362 18.5827 15.3698C18.5896 15.3775 18.5974 15.3861 18.607 15.3956C18.6192 15.4085 18.6296 15.4197 18.6392 15.4318C18.6479 15.443 18.6549 15.455 18.6592 15.4662C18.6636 15.4774 18.6644 15.4895 18.6636 15.5016C18.6627 15.5136 18.6575 15.5257 18.6497 15.5395C18.6401 15.555 18.6288 15.567 18.6157 15.5739C18.6027 15.5817 18.5896 15.586 18.5748 15.5868C18.5609 15.5868 18.5461 15.586 18.5304 15.5808C18.5157 15.5756 18.5009 15.5696 18.4861 15.561C18.4634 15.5481 18.4443 15.5309 18.426 15.5119C18.4078 15.4929 18.3947 15.4714 18.3851 15.449L18.4408 15.4154C18.4408 15.4154 18.4443 15.4258 18.4487 15.4335C18.453 15.4413 18.4582 15.4499 18.4643 15.4594C18.4704 15.4688 18.4782 15.4783 18.4878 15.4869C18.4974 15.4964 18.5069 15.5041 18.5183 15.511C18.5496 15.53 18.5722 15.5291 18.5844 15.5093C18.5879 15.5033 18.5896 15.4964 18.5887 15.4904C18.5879 15.4835 18.5853 15.4766 18.58 15.4697C18.5757 15.4628 18.5696 15.4542 18.5618 15.4464C18.5539 15.4378 18.5452 15.4283 18.5357 15.418C18.5235 15.4059 18.5139 15.3939 18.5061 15.3835C18.4982 15.3723 18.493 15.362 18.4895 15.3517C18.4861 15.3413 18.4852 15.331 18.4869 15.3207C18.4887 15.3103 18.493 15.3 18.4991 15.2888C18.5078 15.2741 18.5191 15.2621 18.5313 15.2543C18.5444 15.2457 18.5574 15.2414 18.5722 15.2397C18.587 15.238 18.6018 15.2397 18.6175 15.2431C18.6331 15.2466 18.6479 15.2535 18.6636 15.2621C18.6845 15.275 18.7019 15.2897 18.7149 15.306C18.7288 15.3232 18.7393 15.3396 18.7471 15.356L18.6932 15.387L18.6966 15.3844Z" fill="#009B3A"/>
<path d="M19.0344 15.6025C19.0344 15.6025 19.0318 15.5947 19.0292 15.5878C19.0266 15.5809 19.0222 15.5741 19.017 15.5663C19.0118 15.5585 19.0057 15.5508 18.9987 15.543C18.9918 15.5353 18.9839 15.5284 18.9752 15.5232C18.9596 15.5129 18.9465 15.5086 18.9352 15.5086C18.9239 15.5086 18.9143 15.5146 18.9082 15.5249C18.9039 15.531 18.9021 15.537 18.903 15.5422C18.903 15.5482 18.9047 15.5542 18.9082 15.5603C18.9117 15.5672 18.9169 15.5741 18.923 15.5818C18.93 15.5896 18.9378 15.5982 18.9465 15.6085C18.9578 15.6214 18.9683 15.6343 18.977 15.6455C18.9857 15.6567 18.9918 15.6688 18.9952 15.6809C18.9987 15.6929 18.9996 15.7041 18.9978 15.7162C18.9961 15.7282 18.9909 15.7403 18.9822 15.7532C18.9717 15.7687 18.9604 15.7799 18.9474 15.7868C18.9343 15.7937 18.9204 15.7972 18.9065 15.7972C18.8917 15.7972 18.8778 15.7946 18.863 15.7894C18.8482 15.7842 18.8334 15.7765 18.8195 15.767C18.7977 15.7524 18.7786 15.7351 18.762 15.7153C18.7455 15.6946 18.7325 15.6731 18.7238 15.6507L18.7803 15.6197C18.7803 15.6197 18.7838 15.63 18.7873 15.6378C18.7908 15.6455 18.796 15.655 18.8021 15.6645C18.8082 15.674 18.8151 15.6835 18.8238 15.6929C18.8325 15.7024 18.8421 15.711 18.8534 15.7188C18.8839 15.7394 18.9065 15.7394 18.9195 15.7205C18.9239 15.7145 18.9256 15.7076 18.9248 15.7015C18.9239 15.6955 18.9213 15.6878 18.9178 15.68C18.9134 15.6723 18.9074 15.6645 18.9004 15.6559C18.8934 15.6473 18.8847 15.6378 18.876 15.6266C18.8647 15.6137 18.856 15.6016 18.8482 15.5904C18.8412 15.5792 18.836 15.5689 18.8334 15.5577C18.8308 15.5473 18.8299 15.537 18.8325 15.5267C18.8343 15.5163 18.8395 15.506 18.8464 15.4948C18.856 15.4802 18.8673 15.469 18.8804 15.4621C18.8934 15.4543 18.9074 15.45 18.9221 15.4491C18.9369 15.4483 18.9517 15.4491 18.9674 15.4543C18.9831 15.4586 18.9978 15.4655 19.0118 15.4758C19.0318 15.4896 19.0483 15.5051 19.0614 15.5224C19.0744 15.5396 19.084 15.5568 19.0909 15.574L19.0361 15.6025H19.0344Z" fill="#009B3A"/>
<path d="M19.1622 16.0064C19.1422 15.9918 19.1265 15.9737 19.1161 15.9539C19.1057 15.934 19.0987 15.9125 19.097 15.891C19.0952 15.8694 19.097 15.8479 19.103 15.8264C19.1091 15.8048 19.1187 15.785 19.1318 15.7678C19.1457 15.7497 19.1622 15.7342 19.1814 15.723C19.2005 15.7109 19.2214 15.7032 19.2431 15.6997C19.2649 15.6954 19.2866 15.6963 19.3093 15.7006C19.3319 15.7049 19.3528 15.7144 19.3719 15.729C19.3919 15.7437 19.4076 15.7609 19.418 15.7816C19.4285 15.8022 19.4346 15.8229 19.4363 15.8445C19.438 15.866 19.4363 15.8875 19.4302 15.9091C19.4241 15.9306 19.4145 15.9504 19.4015 15.9676C19.3876 15.9857 19.371 16.0012 19.3519 16.0124C19.3328 16.0245 19.3119 16.0322 19.291 16.0357C19.2692 16.04 19.2475 16.0391 19.2249 16.0348C19.2022 16.0305 19.1814 16.021 19.1622 16.0064ZM19.1866 15.8083C19.1779 15.8203 19.1709 15.8333 19.1666 15.847C19.1622 15.8608 19.1596 15.8746 19.1605 15.8884C19.1605 15.9022 19.164 15.9151 19.1709 15.9271C19.177 15.9401 19.1866 15.9504 19.1996 15.9599C19.2127 15.9694 19.2266 15.9754 19.2405 15.9771C19.2544 15.9788 19.2684 15.978 19.2814 15.9745C19.2945 15.9711 19.3075 15.9651 19.3197 15.9564C19.331 15.9478 19.3415 15.9383 19.3502 15.9271C19.3589 15.9151 19.3658 15.9022 19.3702 15.8884C19.3745 15.8746 19.3771 15.8608 19.3763 15.847C19.3763 15.8333 19.3719 15.8203 19.3658 15.8083C19.3597 15.7962 19.3502 15.785 19.338 15.7755C19.3249 15.7661 19.311 15.76 19.2971 15.7583C19.2832 15.7557 19.2692 15.7566 19.2562 15.7609C19.2431 15.7643 19.2301 15.7704 19.2188 15.779C19.2075 15.7876 19.197 15.7971 19.1883 15.8083H19.1866Z" fill="#009B3A"/>
<path d="M14.783 15.375L14.8126 15.4654H14.9101L14.8318 15.5223L14.8613 15.6128L14.783 15.5568L14.7047 15.6128L14.7352 15.5223L14.6569 15.4654H14.7534L14.783 15.375Z" fill="white"/>
<path d="M17.2542 14.1028L17.2847 14.1932H17.3813L17.3029 14.2492L17.3325 14.3405L17.2542 14.2845L17.1768 14.3405L17.2064 14.2492L17.1281 14.1932H17.2246L17.2542 14.1028Z" fill="white"/>
<path d="M13.2326 14.6006L13.2631 14.6919H13.3597L13.2813 14.7479L13.3109 14.8392L13.2326 14.7832L13.1552 14.8392L13.1848 14.7479L13.1064 14.6919H13.203L13.2326 14.6006Z" fill="white"/>
<path d="M16.1248 15.8074L16.1544 15.8987H16.251L16.1736 15.9547L16.2031 16.046L16.1248 15.99L16.0465 16.046L16.077 15.9547L15.9987 15.8987H16.0952L16.1248 15.8074Z" fill="white"/>
<path d="M18.7437 16.7775L18.7733 16.8679H18.8699L18.7916 16.9239L18.822 17.0152L18.7437 16.9592L18.6654 17.0152L18.695 16.9239L18.6176 16.8679H18.7141L18.7437 16.7775Z" fill="white"/>
<path d="M18.5317 17.0461L18.5621 17.1366H18.6587L18.5804 17.1934L18.61 17.2839L18.5317 17.2279L18.4534 17.2839L18.4838 17.1934L18.4055 17.1366H18.5021L18.5317 17.0461Z" fill="white"/>
<path d="M17.8894 17.495L17.919 17.5863H18.0155L17.9372 17.6423L17.9668 17.7336L17.8894 17.6776L17.8111 17.7336L17.8406 17.6423L17.7623 17.5863H17.8589L17.8894 17.495Z" fill="white"/>
<path d="M17.1899 17.5872L17.2203 17.6785H17.3169L17.2386 17.7345L17.2682 17.8249L17.1899 17.7689L17.1116 17.8249L17.142 17.7345L17.0637 17.6785H17.1603L17.1899 17.5872Z" fill="white"/>
<path d="M17.9034 17.8947L17.9252 17.9618H17.9965L17.9382 18.0032L17.9608 18.0704L17.9034 18.0282L17.8451 18.0704L17.8677 18.0032L17.8094 17.9618H17.8808L17.9034 17.8947Z" fill="white"/>
<path d="M17.4891 17.3107L17.5109 17.3779H17.5822L17.5248 17.4192L17.5465 17.4864L17.4891 17.4451L17.4308 17.4864L17.4534 17.4192L17.3951 17.3779H17.4665L17.4891 17.3107Z" fill="white"/>
<path d="M16.9026 17.2322L16.9243 17.2994H16.9957L16.9382 17.3407L16.96 17.407L16.9026 17.3657L16.8443 17.407L16.8669 17.3407L16.8094 17.2994H16.8799L16.9026 17.2322Z" fill="white"/>
<path d="M17.8796 17.1926L17.9014 17.2598H17.9727L17.9153 17.3012L17.937 17.3684L17.8796 17.327L17.8222 17.3684L17.8439 17.3012L17.7865 17.2598H17.8579L17.8796 17.1926Z" fill="white"/>
<path d="M18.2537 17.2616L18.2755 17.3288H18.3469L18.2894 17.3701L18.3112 17.4373L18.2537 17.396L18.1963 17.4373L18.2181 17.3701L18.1606 17.3288H18.232L18.2537 17.2616Z" fill="white"/>
<path d="M16.5371 16.1133L16.5666 16.2037H16.6641L16.5858 16.2597L16.6154 16.351L16.5371 16.295L16.4587 16.351L16.4892 16.2597L16.4109 16.2037H16.5075L16.5371 16.1133Z" fill="white"/>
<path d="M16.1206 16.7964L16.1554 16.9023H16.2685L16.1771 16.9678L16.2119 17.0738L16.1206 17.0083L16.0301 17.0738L16.0649 16.9678L15.9735 16.9023H16.0858L16.1206 16.7964Z" fill="white"/>
<path d="M15.763 16.1261L15.7908 16.2105H15.8804L15.8082 16.2631L15.8361 16.3475L15.763 16.2949L15.6908 16.3475L15.7186 16.2631L15.6455 16.2105H15.7351L15.763 16.1261Z" fill="white"/>
<path d="M17.0749 15.1425L17.1027 15.2269H17.1923L17.1192 15.2786L17.1471 15.363L17.0749 15.3113L17.0026 15.363L17.0296 15.2786L16.9574 15.2269H17.047L17.0749 15.1425Z" fill="white"/>
<path d="M19.0952 16.5068L19.1231 16.5913H19.2127L19.1405 16.6429L19.1683 16.7274L19.0952 16.6757L19.023 16.7274L19.0509 16.6429L18.9786 16.5913H19.0683L19.0952 16.5068Z" fill="white"/>
<path d="M14.2959 16.4276L14.3229 16.512H14.4125L14.3403 16.5646L14.3682 16.649L14.2959 16.5965L14.2228 16.649L14.2507 16.5646L14.1785 16.512H14.2681L14.2959 16.4276Z" fill="white"/>
<path d="M13.8961 15.9237L13.9135 15.9771H13.9701L13.924 16.0107L13.9422 16.0641L13.8961 16.0305L13.85 16.0641L13.8674 16.0107L13.8213 15.9771H13.8787L13.8961 15.9237Z" fill="white"/>
<path d="M15.9437 16.4061L15.9611 16.4595H16.0177L15.9716 16.4923L15.989 16.5457L15.9437 16.5129L15.8976 16.5457L15.915 16.4923L15.8689 16.4595H15.9263L15.9437 16.4061Z" fill="white"/>
<path d="M16.1236 18.0376L16.141 18.091H16.1985L16.1524 18.1237L16.1698 18.1771L16.1236 18.1444L16.0775 18.1771L16.0958 18.1237L16.0497 18.091H16.1062L16.1236 18.0376Z" fill="white"/>
<path d="M14.1896 16.7886L14.2175 16.873H14.3071L14.234 16.9255L14.2618 17.01L14.1896 16.9574L14.1165 17.01L14.1444 16.9255L14.0721 16.873H14.1618L14.1896 16.7886Z" fill="white"/>
<path d="M13.1159 16.4018L13.1437 16.4862H13.2333L13.1611 16.5379L13.1881 16.6223L13.1159 16.5706L13.0437 16.6223L13.0715 16.5379L12.9984 16.4862H13.088L13.1159 16.4018Z" fill="white"/>
<path d="M18.596 16.4423L18.63 16.5482H18.7431L18.6517 16.6137L18.6865 16.7196L18.596 16.6542L18.5047 16.7196L18.5395 16.6137L18.4481 16.5482H18.5612L18.596 16.4423Z" fill="white"/>
<path d="M14.7048 17.0521L14.7396 17.1581H14.8518L14.7605 17.2235L14.7953 17.3295L14.7048 17.264L14.6134 17.3295L14.6482 17.2235L14.5577 17.1581H14.67L14.7048 17.0521Z" fill="white"/>
<path d="M13.55 16.0573L13.584 16.1623H13.6971L13.6057 16.2278L13.6405 16.3338L13.55 16.2683L13.4587 16.3338L13.4935 16.2278L13.4021 16.1623H13.5152L13.55 16.0573Z" fill="white"/>
</g>
</g>
<path style="mix-blend-mode:multiply" d="M25.9067 14.0449C25.3141 10.7543 22.9378 6.32055 16.8034 5.67448C10.4515 5.41605 6.964 10.2478 6.39668 14.0449C6.33664 14.4817 6.30444 14.927 6.30444 15.3793C6.30444 20.7632 10.7134 25.128 16.1517 25.128C21.59 25.128 25.9989 20.7632 25.9989 15.3793C25.9989 14.9262 25.9667 14.4808 25.9067 14.0449Z" fill="url(#paint0_radial_22_3)"/>
<path d="M0.755394 14.7572C0.887929 6.84481 7.33991 0.5 15.2534 0.5H84.7467C92.8498 0.5 99.3803 7.14085 99.2446 15.2428C99.1121 23.1552 92.6601 29.5 84.7466 29.5H15.2533C7.15021 29.5 0.619682 22.8592 0.755394 14.7572Z" stroke="white" stroke-opacity="0.14"/>
<path fill-rule="evenodd" clip-rule="evenodd" d="M95.9004 14.8734L94.0839 12.8995L92.1714 10.8194C91.7807 10.4444 91.2117 10.4444 90.9307 10.8194L89.1073 12.8995L87.1948 14.8734C86.9138 15.2838 87.0029 15.581 87.4758 15.581H88.8194V15.772C88.7303 18.6445 87.4758 20.8024 85.6662 22.0901C83.0819 23.965 79.4489 24.064 76.7687 21.899C82.4102 28.6133 94.3718 24.1702 94.3718 15.5739H95.6193C96.0992 15.5739 96.1883 15.2767 95.9004 14.8664V14.8734ZM78.7634 17.1587L80.5868 15.0786C80.9706 14.7815 80.8678 14.3853 80.2989 14.3853H79.0582V14.1942C79.0582 11.4208 80.4017 9.24164 82.2114 7.96812C84.8025 6.09321 88.3396 5.88803 91.0198 8.06009C85.3646 1.43777 73.5058 5.78898 73.5058 14.3853H72.2582C71.6893 14.3853 71.5864 14.7815 71.9703 15.0786L73.7937 17.1587L75.6102 19.1327C75.9941 19.5289 76.5699 19.5289 76.8578 19.1327L78.7634 17.1587Z" fill="white"/>
<defs>
<radialGradient id="paint0_radial_22_3" cx="0" cy="0" r="1" gradientUnits="userSpaceOnUse" gradientTransform="translate(16.04 13.1187) rotate(87.0708) scale(10.2013 10.6129)">
<stop offset="0.67" stop-color="#AEADB3" stop-opacity="0"/>
<stop offset="0.7" stop-color="#AEADB3" stop-opacity="0.06"/>
<stop offset="0.77" stop-color="#AEADB3" stop-opacity="0.22"/>
<stop offset="0.85" stop-color="#AEADB3" stop-opacity="0.48"/>
<stop offset="0.96" stop-color="#AEADB3" stop-opacity="0.83"/>
<stop offset="1" stop-color="#AEADB3"/>
</radialGradient>
</defs>
</svg>
