<svg width="21" height="22" viewBox="0 0 21 22" fill="none" xmlns="http://www.w3.org/2000/svg">
<path d="M18.501 8.37148C18.501 8.17898 18.347 8.02148 18.151 8.02148H2.84902C2.65652 8.02148 2.49902 8.17898 2.49902 8.37148C2.49902 8.56398 2.65652 8.72148 2.84902 8.72148H18.151C18.347 8.72148 18.501 8.56398 18.501 8.37148Z" fill="#BBBDBE"/>
<path d="M2.1 19.3615H18.9C19.0925 19.3615 19.25 19.204 19.25 19.0115C19.25 18.8155 19.0925 18.6615 18.9 18.6615H2.1C1.9075 18.6615 1.75 18.8155 1.75 19.0115C1.75 19.204 1.9075 19.3615 2.1 19.3615Z" fill="#BBBDBE"/>
<path d="M3.15371 7.50001H17.8467C18.0392 7.50001 18.1967 7.34251 18.1967 7.15001V6.10351C18.1967 5.96351 18.1127 5.83751 17.9832 5.78151L10.6367 2.66651C10.5492 2.63151 10.4512 2.63151 10.3637 2.66651L3.01721 5.78151C2.88771 5.83751 2.80371 5.96351 2.80371 6.10351V7.15001C2.80371 7.34251 2.96121 7.50001 3.15371 7.50001Z" fill="#BBBDBE"/>
<path d="M13.3385 9.37601H11.725C11.536 9.37601 11.382 9.52651 11.375 9.71551L11.1545 17.818C11.151 17.9125 11.186 18.0035 11.2525 18.07C11.319 18.14 11.41 18.1785 11.5045 18.1785H13.559C13.6535 18.1785 13.7445 18.14 13.811 18.07C13.8775 18.0035 13.9125 17.9125 13.909 17.818L13.6885 9.71551C13.6815 9.52651 13.5275 9.37601 13.3385 9.37601Z" fill="#BBBDBE"/>
<path d="M9.27504 9.37601H7.66504C7.47254 9.37601 7.31854 9.52651 7.31504 9.71551L7.09104 17.818C7.08754 17.9125 7.12604 18.0035 7.18904 18.07C7.25554 18.14 7.34654 18.1785 7.44104 18.1785H9.49904C9.59354 18.1785 9.68104 18.14 9.74754 18.07C9.81404 18.0035 9.84904 17.9125 9.84904 17.818L9.62504 9.71551C9.62154 9.52651 9.46404 9.37601 9.27504 9.37601Z" fill="#BBBDBE"/>
<path d="M5.215 9.37601H3.6015C3.4125 9.37601 3.2585 9.52651 3.2515 9.71551L3.031 17.818C3.0275 17.9125 3.0625 18.0035 3.129 18.07C3.1955 18.14 3.2865 18.1785 3.381 18.1785H5.4355C5.53 18.1785 5.621 18.14 5.6875 18.07C5.7505 18.0035 5.789 17.9125 5.7855 17.818L5.565 9.71551C5.558 9.52651 5.404 9.37601 5.215 9.37601Z" fill="#BBBDBE"/>
<path d="M17.3984 9.37601H15.7884C15.5994 9.37601 15.4419 9.52651 15.4384 9.71551L15.2144 17.818C15.2144 17.9125 15.2494 18.0035 15.3159 18.07C15.3824 18.14 15.4699 18.1785 15.5644 18.1785H17.6224C17.7169 18.1785 17.8044 18.14 17.8709 18.07C17.9374 18.0035 17.9724 17.9125 17.9724 17.818L17.7484 9.71551C17.7449 9.52651 17.5874 9.37601 17.3984 9.37601Z" fill="#BBBDBE"/>
</svg>
