<svg width="37" height="37" viewBox="0 0 37 37" fill="none" xmlns="http://www.w3.org/2000/svg">
<g clip-path="url(#clip0_247_105)">
<path d="M26.4087 18.6388L23.9267 21.1208C23.6183 21.4292 23.2329 21.5679 22.8321 21.5679C22.4313 21.5679 22.0458 21.4137 21.7375 21.1208C21.1363 20.5196 21.1363 19.5483 21.7375 18.9471L23.7263 16.9583H13.2429L15.2317 18.9471C15.8329 19.5483 15.8329 20.5196 15.2317 21.1208C14.9233 21.4292 14.5379 21.5679 14.1371 21.5679C13.7362 21.5679 13.3508 21.4137 13.0425 21.1208L10.5604 18.6388C8.7875 16.8658 8.7875 13.9675 10.5604 12.1792L13.0425 9.69708C13.6438 9.09583 14.615 9.09583 15.2162 9.69708C15.8175 10.2983 15.8175 11.2696 15.2162 11.8708L13.2275 13.8596H23.7108L21.7221 11.8708C21.1208 11.2696 21.1208 10.2983 21.7221 9.69708C22.3233 9.09583 23.2946 9.09583 23.8958 9.69708L26.3779 12.1792C28.1508 13.9521 28.1508 16.8504 26.3779 18.6388H26.4087ZM7.70833 7.70833C9.83583 7.70833 11.5625 5.98167 11.5625 3.85417C11.5625 1.72667 9.83583 0 7.70833 0C5.58083 0 3.85417 1.72667 3.85417 3.85417C3.85417 5.98167 5.58083 7.70833 7.70833 7.70833ZM11.285 23.6646C11.1462 23.5567 8.40208 20.8279 8.40208 20.8279C5.41125 17.8371 5.41125 12.9963 8.40208 10.0208C8.67958 9.74333 8.47917 9.26542 8.09375 9.26542H6.16667C2.75958 9.25 0 12.0096 0 15.4167V20.0417C0 22.3233 1.24875 24.3121 3.08333 25.3758V35.4583C3.08333 36.3063 3.77708 37 4.625 37C5.47292 37 6.16667 36.3063 6.16667 35.4583V26.2083H9.25V35.4583C9.25 36.3063 9.94375 37 10.7917 37C11.6396 37 12.3333 36.3063 12.3333 35.4583V25.9771C12.3333 25.0983 11.9788 24.2196 11.285 23.6646ZM30.8333 9.25H28.9062C28.5054 9.25 28.305 9.72792 28.5979 10.0054C31.5887 12.9962 31.5887 17.8371 28.5979 20.8125C28.5979 20.8125 25.8538 23.5413 25.715 23.6492C25.0212 24.2042 24.6667 25.0675 24.6667 25.9617V35.4429C24.6667 36.2908 25.3604 36.9846 26.2083 36.9846C27.0562 36.9846 27.75 36.2908 27.75 35.4429V26.1929H30.8333V35.4429C30.8333 36.2908 31.5271 36.9846 32.375 36.9846C33.2229 36.9846 33.9167 36.2908 33.9167 35.4429V25.3604C35.7513 24.2967 37 22.2925 37 20.0262V15.4012C37 11.9942 34.2404 9.23458 30.8333 9.23458V9.25ZM29.2917 7.70833C31.4192 7.70833 33.1458 5.98167 33.1458 3.85417C33.1458 1.72667 31.4192 0 29.2917 0C27.1642 0 25.4375 1.72667 25.4375 3.85417C25.4375 5.98167 27.1642 7.70833 29.2917 7.70833Z" fill="#BBBDBE"/>
</g>
<defs>
<clipPath id="clip0_247_105">
<rect width="37" height="37" fill="white"/>
</clipPath>
</defs>
</svg>
