<svg width="35" height="35" viewBox="0 0 35 35" fill="none" xmlns="http://www.w3.org/2000/svg">
<path d="M31.0597 20.249L30.402 19.8713C30.5507 19.0794 30.6251 18.2846 30.6251 17.5C30.6251 16.7154 30.5493 15.9206 30.402 15.1288L31.0582 14.7511C32.0718 14.1692 32.798 13.2256 33.1014 12.0983C33.4061 10.9711 33.253 9.7898 32.6711 8.77918C32.0893 7.76564 31.1457 7.03939 30.0184 6.73605C28.8882 6.43126 27.7099 6.58439 26.6993 7.16626L26.043 7.54397C24.8151 6.49397 23.402 5.67876 21.8766 5.13918V4.37793C21.8766 1.96585 19.9136 0.00292969 17.5016 0.00292969C15.0895 0.00292969 13.1266 1.96585 13.1266 4.37793V5.13918C11.5997 5.67876 10.1866 6.49397 8.96011 7.54397L8.30386 7.16626C7.29323 6.5873 6.11344 6.43272 4.98323 6.73605C3.85594 7.03939 2.91386 7.76564 2.33198 8.77772C1.74865 9.7898 1.59552 10.9696 1.90032 12.0983C2.20365 13.2256 2.9299 14.1677 3.94344 14.7511L4.60115 15.1302C4.4524 15.9236 4.37802 16.7169 4.37802 17.5C4.37802 18.2831 4.4524 19.0765 4.60115 19.8698L3.94344 20.249C2.9299 20.8323 2.20511 21.7744 1.90032 22.9017C1.59552 24.0304 1.74865 25.2102 2.33052 26.2208C2.9124 27.2344 3.85448 27.9606 4.98323 28.264C6.10761 28.5673 7.29032 28.4156 8.30386 27.8338L8.96011 27.4561C10.1866 28.5075 11.5997 29.3213 13.1266 29.8608V30.6221C13.1266 33.0342 15.0895 34.9971 17.5016 34.9971C19.9136 34.9971 21.8766 33.0342 21.8766 30.6221V29.8608C23.4034 29.3213 24.8166 28.5046 26.043 27.4561L26.6978 27.8338C27.7114 28.4142 28.8926 28.5673 30.0184 28.264C31.1457 27.9606 32.0893 27.2344 32.6711 26.2223C33.253 25.2102 33.4061 24.029 33.1014 22.9017C32.798 21.7744 32.0718 20.8308 31.0597 20.249ZM22.9061 16.469C22.6218 16.7533 22.2484 16.8963 21.8751 16.8963C21.5018 16.8963 21.1284 16.7533 20.8441 16.469L18.9584 14.5833V23.3333C18.9584 24.1398 18.3051 24.7917 17.5001 24.7917C16.6951 24.7917 16.0418 24.1398 16.0418 23.3333V14.5833L14.1561 16.469C13.5859 17.0392 12.6643 17.0392 12.0941 16.469C11.5239 15.8988 11.5239 14.9771 12.0941 14.4069L15.5139 10.9871C16.5741 9.92397 18.4261 9.92397 19.4893 10.9871L22.9076 14.4069C23.4778 14.9771 23.4778 15.8988 22.9076 16.469H22.9061Z" fill="#5F6162"/>
</svg>
