<svg width="21" height="22" viewBox="0 0 21 22" fill="none" xmlns="http://www.w3.org/2000/svg">
<g clip-path="url(#clip0_37_5540)">
<path d="M14.7493 9.70391C15.6476 10.6021 15.6476 12.0541 14.7493 12.9523C13.8511 13.8506 12.3991 13.8506 11.5009 12.9523L11.1605 12.6488C11.1851 12.6324 11.1687 12.6201 11.1194 12.6078V14.2443H11.7757C12.1735 14.2443 12.4319 14.5766 12.4319 14.9006C12.4319 15.2984 12.1735 15.5568 11.7757 15.5568H9.15069C8.82667 15.5568 8.49444 15.2984 8.49444 14.9006C8.49444 14.5766 8.82667 14.2443 9.15069 14.2443H9.80694V12.6078C9.83155 12.6201 9.81514 12.6324 9.80284 12.6488L9.49932 12.9523C8.60108 13.8506 7.14913 13.8506 6.25088 12.9523C5.35387 12.0541 5.35387 10.6021 6.25088 9.70391L9.80284 6.15195C10.1884 5.76641 10.8118 5.76641 11.1605 6.15195L14.7493 9.70391Z" fill="#FDFFFF" fill-opacity="0.7"/>
<path opacity="0.4" d="M15.75 0.5C17.1979 0.5 18.375 1.6751 18.375 3.125V18.875C18.375 20.3229 17.1979 21.5 15.75 21.5H5.25C3.8001 21.5 2.625 20.3229 2.625 18.875V3.125C2.625 1.6751 3.8001 0.5 5.25 0.5H15.75ZM6.25078 9.70391C5.35377 10.6021 5.35377 12.0541 6.25078 12.9523C7.14902 13.8506 8.60098 13.8506 9.49922 12.9523L9.80273 12.6488C9.81504 12.6324 9.83145 12.6201 9.80684 12.6078V14.2443H9.15059C8.82656 14.2443 8.49434 14.5766 8.49434 14.9006C8.49434 15.2984 8.82656 15.5568 9.15059 15.5568H11.7756C12.1734 15.5568 12.4318 15.2984 12.4318 14.9006C12.4318 14.5766 12.1734 14.2443 11.7756 14.2443H11.1193V12.6078C11.1686 12.6201 11.185 12.6324 11.1604 12.6488L11.5008 12.9523C12.399 13.8506 13.851 13.8506 14.7492 12.9523C15.6475 12.0541 15.6475 10.6021 14.7492 9.70391L11.1604 6.15195C10.8117 5.76641 10.1883 5.76641 9.80273 6.15195L6.25078 9.70391Z" fill="#FDFFFF" fill-opacity="0.7"/>
</g>
<defs>
<clipPath id="clip0_37_5540">
<rect width="21" height="21" fill="white" transform="translate(0 0.5)"/>
</clipPath>
</defs>
</svg>
