<svg width="22" height="23" viewBox="0 0 22 23" fill="none" xmlns="http://www.w3.org/2000/svg">
<path d="M3.54981 10.844C3.10758 11.064 2.62551 11.2582 2.10602 11.4313C1.45934 11.6521 1.41989 12.5461 2.02648 12.8237C3.00772 13.2758 4.30666 13.3145 5.3844 12.8026C5.27445 12.3018 5.29314 11.7707 5.4382 11.2091C4.81081 11.1281 4.15949 11.0119 3.54981 10.844Z" fill="#939598"/>
<path d="M18.4509 10.844C17.799 11.021 17.1629 11.1316 16.5625 11.2091C16.7076 11.7707 16.7263 12.3018 16.6187 12.8026C17.8378 13.3806 19.1482 13.2028 19.9742 12.8237C20.2503 12.6973 20.4212 12.4165 20.4048 12.1076C20.3662 11.3744 19.7701 11.5002 18.4509 10.844Z" fill="#939598"/>
<path d="M3.05582 5.69595C3.0254 4.7038 3.54021 3.84034 4.6751 2.97684C4.75936 2.91368 4.78742 2.80136 4.74299 2.70773C4.70088 2.60946 4.60025 2.55566 4.49493 2.57904C1.70097 3.14064 0.306295 4.37152 0.231443 6.34645C0.116072 9.38482 2.57294 10.3655 5.57839 10.7574C5.61113 10.6661 5.64624 10.5749 5.68603 10.4812V7.81598C5.68603 7.51645 5.74687 7.22864 5.85919 6.9689C4.58753 7.02703 3.09789 6.92378 3.05582 5.69595Z" fill="#5F6162"/>
<path d="M17.5054 2.57904C17.4001 2.55566 17.2995 2.60946 17.2573 2.70773C17.2128 2.80132 17.2409 2.91368 17.3252 2.97684C18.4601 3.84034 18.9749 4.70376 18.9445 5.69595C18.9021 6.93426 17.3852 7.02579 16.1411 6.96894C16.2534 7.22869 16.3143 7.51649 16.3143 7.81603V10.4813C16.3541 10.5749 16.3892 10.6661 16.4219 10.7574C19.4229 10.3661 21.8843 9.38735 21.7689 6.34649C21.694 4.37152 20.2993 3.14064 17.5054 2.57904Z" fill="#5F6162"/>
<path d="M9.46272 18.9441C9.28771 18.9441 9.11936 18.9142 8.95947 18.8643V19.1183C8.95947 19.6893 9.35259 20.1877 9.89314 20.3047C10.6206 20.4668 11.3784 20.467 12.1068 20.3047C12.6474 20.1877 13.0405 19.6892 13.0405 19.1183V18.8643C12.8806 18.9141 12.7122 18.9441 12.5372 18.9441H9.46272Z" fill="#939598"/>
<path d="M15.8462 7.81584C15.8462 7.17457 15.4785 6.5776 14.8889 6.32546C12.8351 5.44714 12.0734 6.35554 9.92828 6.00212C8.94412 5.84 7.98614 5.95207 7.11189 6.32577C6.52198 6.57786 6.15386 7.17491 6.15386 7.81648V10.5773C5.46825 12.1287 5.72564 13.3689 6.97289 14.4898C7.31935 14.7597 7.50192 15.1196 7.53226 15.5897C7.74792 15.1707 8.08325 14.7454 8.5492 14.3776C8.65043 14.2979 8.79782 14.3155 8.87782 14.4165C8.95779 14.5177 8.94043 14.6649 8.83898 14.7451C7.94892 15.4478 7.60019 16.385 7.72428 16.9101C7.77366 17.1187 7.89225 17.244 8.0771 17.2821C8.17056 17.3015 8.243 17.3758 8.25993 17.47C8.3646 18.0529 8.87052 18.4761 9.46284 18.4761H12.5373C13.1296 18.4761 13.6355 18.0529 13.7402 17.4698C13.7571 17.3756 13.8295 17.3013 13.923 17.2819C14.1079 17.2437 14.2265 17.1185 14.2759 16.9101C14.4 16.385 14.0514 15.4478 13.1612 14.7451C13.0597 14.6649 13.0423 14.5177 13.1223 14.4165C13.2023 14.3155 13.3501 14.2979 13.4509 14.3776C13.9169 14.7455 14.2522 15.1709 14.4679 15.59C14.4982 15.1197 14.6813 14.7593 15.0413 14.4781C16.2745 13.3689 16.5319 12.1287 15.8463 10.5773V7.81584H15.8462ZM7.86741 11.4468C7.52848 11.0026 7.47176 10.4537 7.61012 9.95551C8.35816 10.1699 8.91087 10.731 9.3647 11.4683C8.91985 12.0021 8.24348 11.9396 7.86741 11.4468ZM9.78653 17.2304C9.60417 17.4128 9.3085 17.4131 9.12614 17.2307C8.94374 17.0484 8.94378 16.7524 9.12614 16.57C9.3085 16.3877 10.1052 16.2517 10.1052 16.2517C10.1052 16.2517 9.96889 17.0481 9.78653 17.2304ZM12.8746 17.2307C12.6922 17.4131 12.3966 17.4128 12.2142 17.2304C12.0319 17.0481 11.8956 16.2517 11.8956 16.2517C11.8956 16.2517 12.6922 16.3877 12.8746 16.57C13.057 16.7524 13.057 17.0484 12.8746 17.2307ZM14.1327 11.4468C13.7566 11.9395 13.0803 12.0021 12.6354 11.4683C13.0892 10.7309 13.6419 10.1699 14.39 9.95551C14.5284 10.4537 14.4716 11.0026 14.1327 11.4468Z" fill="#939598"/>
</svg>
