<svg width="27" height="27" viewBox="0 0 27 27" fill="none" xmlns="http://www.w3.org/2000/svg">
<g clip-path="url(#clip0_1_643)">
<g clip-path="url(#clip1_1_643)">
<path d="M1.54633 21.1542C1.13628 21.1542 0.742896 20.9913 0.452951 20.7014C0.163006 20.4114 0 20.0182 0 19.6081C0 19.1981 0.163006 18.8048 0.452951 18.5149C0.742896 18.2249 1.13628 18.0621 1.54633 18.0621H11.8535C12.2635 18.0621 12.6563 18.2249 12.9462 18.5149C13.2362 18.8048 13.3992 19.1981 13.3992 19.6081C13.3992 20.0182 13.2362 20.4114 12.9462 20.7014C12.6563 20.9913 12.2635 21.1542 11.8535 21.1542H1.54633ZM17.4216 20.4817C17.2775 20.338 17.1631 20.1674 17.0851 19.9794C17.007 19.7915 16.9668 19.59 16.9668 19.3865C16.9668 19.183 17.007 18.9816 17.0851 18.7936C17.1631 18.6057 17.2775 18.435 17.4216 18.2914L21.0201 14.6916H1.54633C1.13628 14.6916 0.742896 14.5287 0.452951 14.2388C0.163006 13.9488 0 13.5556 0 13.1455C0 12.7355 0.163006 12.3423 0.452951 12.0523C0.742896 11.7624 1.13628 11.5995 1.54633 11.5995H21.0201L17.4216 7.9997C17.1312 7.70925 16.9681 7.31533 16.9681 6.90457C16.9681 6.49382 17.1312 6.09988 17.4216 5.80943C17.7121 5.51898 18.1061 5.35581 18.5169 5.35581C18.9277 5.35581 19.3217 5.51898 19.6122 5.80943L25.849 12.0466C25.9932 12.1902 26.1076 12.3609 26.1856 12.5488C26.2636 12.7367 26.3039 12.9382 26.3039 13.1417C26.3039 13.3452 26.2636 13.5467 26.1856 13.7346C26.1076 13.9225 25.9932 14.0932 25.849 14.2368L19.6122 20.4739C19.4685 20.6181 19.2974 20.7324 19.1095 20.8105C18.9216 20.8885 18.7204 20.9287 18.5169 20.9287C18.3134 20.9287 18.1116 20.8885 17.9237 20.8105C17.7357 20.7324 17.5653 20.6181 17.4216 20.4739V20.4817ZM1.54633 8.24192C1.13628 8.24192 0.742896 8.07903 0.452951 7.78909C0.163006 7.49914 0 7.10589 0 6.69585C0 6.28581 0.163006 5.89256 0.452951 5.60261C0.742896 5.31267 1.13628 5.14978 1.54633 5.14978H11.8535C12.2635 5.14978 12.6563 5.31267 12.9462 5.60261C13.2362 5.89256 13.3992 6.28581 13.3992 6.69585C13.3992 7.10589 13.2362 7.49914 12.9462 7.78909C12.6563 8.07903 12.2635 8.24192 11.8535 8.24192H1.54633Z" fill="white"/>
</g>
</g>
<defs>
<clipPath id="clip0_1_643">
<rect width="26.3" height="26.3" fill="white"/>
</clipPath>
<clipPath id="clip1_1_643">
<rect width="26.3" height="26.3" fill="white"/>
</clipPath>
</defs>
</svg>
