<svg width="21" height="22" viewBox="0 0 21 22" fill="none" xmlns="http://www.w3.org/2000/svg">
<g clip-path="url(#clip0_37_5523)">
<path d="M19.9424 1.58794C20.1315 1.47265 20.2155 1.25256 20.1735 1.03247C20.1315 0.822858 19.9529 0.665651 19.7429 0.623729C17.086 0.204509 15.0802 0.917182 13.7466 1.75562C15.1852 2.18532 16.4979 2.90847 17.5796 3.87268C18.7767 2.35301 19.9319 1.59841 19.9424 1.58794Z" fill="#5F6162"/>
<path d="M3.4233 3.87268C4.50496 2.90847 5.81764 2.18532 7.2563 1.75562C5.92265 0.917182 3.91688 0.204509 1.26001 0.623729C1.04998 0.665651 0.871456 0.822858 0.829449 1.03247C0.787442 1.25256 0.871456 1.47265 1.06048 1.58794C1.07099 1.59841 2.22614 2.35301 3.4233 3.87268Z" fill="#5F6162"/>
<path d="M19.9528 13.2737C19.3752 13.2737 18.9026 13.7453 18.9026 14.3217C18.9026 14.8981 18.451 15.3278 17.8945 15.3278H17.2434C17.737 14.2064 18.094 13.0745 18.283 12.0894C19.2072 11.754 20.0473 11.1251 20.7509 10.2448C21.0344 9.89897 21.0554 9.40641 20.8139 9.02906C19.9003 7.61421 18.6085 6.72337 17.1804 6.52424C15.7102 4.55391 13.2108 3.35913 10.5014 3.35913C7.79209 3.35913 5.29273 4.56439 3.82253 6.52424C2.39433 6.72337 1.10265 7.61421 0.189026 9.02906C-0.0525072 9.40641 -0.0315043 9.89897 0.252035 10.2448C0.95563 11.1251 1.79575 11.754 2.71988 12.0894C2.91941 13.0745 3.27645 14.2064 3.75952 15.3278H3.10843C2.55186 15.3278 2.10029 14.8772 2.10029 14.3217C2.10029 13.7662 1.62772 13.2737 1.05014 13.2737C0.472565 13.2737 0 13.7453 0 14.3217C0 16.03 1.3967 17.4239 3.10843 17.4239H4.84117C6.22736 19.6773 8.17016 21.5009 10.4909 21.5009C12.8117 21.5009 14.7545 19.6773 16.1407 17.4239H17.8735C19.5852 17.4239 20.9819 16.03 20.9819 14.3217C20.9819 13.7453 20.5093 13.2737 19.9318 13.2737H19.9528ZM8.90523 12.0475C8.69523 12.257 8.43266 12.3514 8.15966 12.3514C7.88659 12.3514 7.62409 12.2466 7.41401 12.0475L6.60541 11.2404C6.19586 10.8317 6.19586 10.1715 6.60541 9.76268C7.01497 9.35398 7.67659 9.35398 8.08609 9.76268L8.89473 10.5697C9.3043 10.9784 9.3043 11.6387 8.89473 12.0475H8.90523ZM14.3975 11.2404L13.5889 12.0475C13.3788 12.257 13.1163 12.3514 12.8432 12.3514C12.5702 12.3514 12.3077 12.2466 12.0977 12.0475C11.6881 11.6387 11.6881 10.9784 12.0977 10.5697L12.9063 9.76268C13.3158 9.35398 13.9775 9.35398 14.387 9.76268C14.7965 10.1715 14.7965 10.8317 14.387 11.2404H14.3975Z" fill="#B1B1B1"/>
</g>
<defs>
<clipPath id="clip0_37_5523">
<rect width="21" height="21" fill="white" transform="translate(0 0.5)"/>
</clipPath>
</defs>
</svg>
