<svg width="21" height="22" viewBox="0 0 21 22" fill="none" xmlns="http://www.w3.org/2000/svg">
<path d="M8.28105 1.8125L3.03105 7.0625H6.80982L12.0598 1.8125H8.28105ZM2.625 1.8125C1.1751 1.8125 0 2.9876 0 4.4375V7.0625H0.248637L5.49864 1.8125H2.625ZM13.3752 7.0625L18.6006 1.83711C18.5268 1.8285 18.4529 1.8125 18.375 1.8125H14.8452L9.5952 7.0625H13.3752ZM20.4135 2.80467L16.1561 7.0625H21V4.4375C21 3.81693 20.7744 3.2542 20.4135 2.80467ZM9.19981 10.4135C9.06855 10.3232 8.89629 10.3232 8.75684 10.4012C8.61738 10.4791 8.53125 10.6309 8.53125 10.7949V16.451C8.53125 16.6154 8.61755 16.767 8.75684 16.847C8.82246 16.8857 8.89629 16.9062 8.97012 16.9062C9.05047 16.9062 9.13164 16.8833 9.20169 16.8373L13.5781 14.0084C13.7033 13.9244 13.7812 13.7809 13.7812 13.5881C13.7812 13.3953 13.7035 13.287 13.5753 13.2044L9.19981 10.4135Z" fill="#FDFFFF" fill-opacity="0.7"/>
<path opacity="0.4" d="M0 7.0625V17.5625C0 19.0124 1.1751 20.1875 2.625 20.1875H18.375C19.8249 20.1875 21 19.0124 21 17.5625V7.0625H0ZM13.5393 14.0064L9.16289 16.8353C9.13008 16.8816 9.04805 16.9062 8.97012 16.9062C8.89752 16.9062 8.82402 16.8872 8.75823 16.8497C8.61738 16.7709 8.53125 16.5822 8.53125 16.4182V10.7949C8.53125 10.6304 8.61755 10.4789 8.75684 10.3989C8.89526 10.3202 9.067 10.3237 9.20021 10.4113L13.5766 13.2401C13.7033 13.3256 13.7812 13.4691 13.7812 13.5881C13.7812 13.707 13.7033 13.9244 13.5393 14.0064Z" fill="#FDFFFF" fill-opacity="0.7"/>
</svg>
