<svg width="27" height="27" viewBox="0 0 27 27" fill="none" xmlns="http://www.w3.org/2000/svg">
<g clip-path="url(#clip0_1_422)">
<g clip-path="url(#clip1_1_422)">
<path d="M24.7537 5.64583C25.1637 5.64583 25.5571 5.80872 25.847 6.09867C26.137 6.38861 26.3 6.78186 26.3 7.1919C26.3 7.60195 26.137 7.99521 25.847 8.28516C25.5571 8.5751 25.1637 8.73799 24.7537 8.73799L14.4465 8.73799C14.0365 8.73799 13.6437 8.5751 13.3538 8.28516C13.0638 7.99521 12.9008 7.60195 12.9008 7.1919C12.9008 6.78186 13.0638 6.38861 13.3538 6.09867C13.6437 5.80872 14.0365 5.64583 14.4465 5.64583L24.7537 5.64583ZM8.87835 6.31838C9.02249 6.46201 9.13689 6.63269 9.21492 6.82062C9.29295 7.00854 9.33319 7.21004 9.33319 7.41352C9.33319 7.61701 9.29295 7.81848 9.21492 8.00641C9.13689 8.19434 9.02249 8.36501 8.87835 8.50865L5.27991 12.1084L24.7537 12.1084C25.1637 12.1084 25.5571 12.2713 25.847 12.5613C26.137 12.8512 26.3 13.2445 26.3 13.6545C26.3 14.0645 26.137 14.4578 25.847 14.7477C25.5571 15.0377 25.1637 15.2006 24.7537 15.2006L5.27991 15.2006L8.87835 18.8004C9.1688 19.0908 9.33193 19.4847 9.33193 19.8955C9.33193 20.3062 9.1688 20.7002 8.87835 20.9906C8.5879 21.2811 8.19385 21.4442 7.78309 21.4442C7.37234 21.4442 6.97828 21.2811 6.68783 20.9906L0.450944 14.7535C0.306807 14.6099 0.192408 14.4392 0.114375 14.2513C0.0363414 14.0633 -0.00389603 13.8619 -0.00389601 13.6584C-0.003896 13.4549 0.0363414 13.2534 0.114375 13.0655C0.192408 12.8775 0.306807 12.7069 0.450944 12.5632L6.68783 6.3261C6.83147 6.18197 7.00255 6.06761 7.19048 5.98958C7.37841 5.91154 7.57961 5.87138 7.78309 5.87138C7.98658 5.87138 8.1884 5.91154 8.37633 5.98958C8.56426 6.06761 8.73472 6.18197 8.87835 6.3261L8.87835 6.31838ZM24.7537 18.5581C25.1637 18.5581 25.5571 18.721 25.847 19.011C26.137 19.3009 26.3 19.6942 26.3 20.1042C26.3 20.5142 26.137 20.9075 25.847 21.1974C25.5571 21.4874 25.1637 21.6503 24.7537 21.6503L14.4465 21.6503C14.0365 21.6503 13.6437 21.4874 13.3538 21.1974C13.0638 20.9075 12.9008 20.5142 12.9008 20.1042C12.9008 19.6942 13.0638 19.3009 13.3538 19.011C13.6437 18.721 14.0365 18.5581 14.4465 18.5581L24.7537 18.5581Z" fill="white"/>
</g>
</g>
<defs>
<clipPath id="clip0_1_422">
<rect width="26.3" height="26.3" fill="white" transform="translate(26.3 26.8) rotate(-180)"/>
</clipPath>
<clipPath id="clip1_1_422">
<rect width="26.3" height="26.3" fill="white" transform="translate(26.3 26.8) rotate(-180)"/>
</clipPath>
</defs>
</svg>
