<svg width="21" height="22" viewBox="0 0 21 22" fill="none" xmlns="http://www.w3.org/2000/svg">
<path d="M9.1875 11C9.1875 10.274 9.77402 9.6875 10.5 9.6875C11.226 9.6875 11.8125 10.274 11.8125 11C11.8125 11.726 11.226 12.3125 10.5 12.3125C9.77402 12.3125 9.1875 11.726 9.1875 11ZM21 11C21 16.7996 16.2996 21.5 10.5 21.5C4.70039 21.5 0 16.7996 0 11C0 5.20039 4.70039 0.5 10.5 0.5C16.2996 0.5 21 5.20039 21 11ZM10.5 3.125C6.11543 3.125 2.625 6.61543 2.625 11C2.625 15.3477 6.11543 18.875 10.5 18.875C14.8477 18.875 18.375 15.3477 18.375 11C18.375 6.61543 14.8477 3.125 10.5 3.125Z" fill="#FDFFFF" fill-opacity="0.7"/>
</svg>
