<svg width="19" height="19" viewBox="0 0 19 19" fill="none" xmlns="http://www.w3.org/2000/svg">
<g clip-path="url(#clip0_1_24)">
<path d="M1.58333 4.74997C1.16341 4.74997 0.76068 4.91678 0.463748 5.21372C0.166815 5.51065 0 5.91338 0 6.3333L0 12.6666C0 13.0866 0.166815 13.4893 0.463748 13.7862C0.76068 14.0832 1.16341 14.25 1.58333 14.25H3.8L9.5 18.9818V0.0134277L3.8 4.74997H1.58333Z" fill="white"/>
<path d="M15.8333 9.50002C15.8321 8.45059 15.4146 7.4445 14.6726 6.70244C13.9305 5.96039 12.9244 5.54294 11.875 5.54169H11.0833V7.12502H11.875C12.5049 7.12502 13.109 7.37524 13.5544 7.82064C13.9998 8.26604 14.25 8.87013 14.25 9.50002C14.25 10.1299 13.9998 10.734 13.5544 11.1794C13.109 11.6248 12.5049 11.875 11.875 11.875H11.0833V13.4584H11.875C12.9244 13.4571 13.9305 13.0397 14.6726 12.2976C15.4146 11.5555 15.8321 10.5494 15.8333 9.50002Z" fill="white"/>
<path d="M11.875 2.375H11.0833V3.95833H11.875C13.3447 3.95833 14.7543 4.54219 15.7935 5.58145C16.8328 6.62071 17.4166 8.03026 17.4166 9.5C17.4166 10.9697 16.8328 12.3793 15.7935 13.4186C14.7543 14.4578 13.3447 15.0417 11.875 15.0417H11.0833V16.625H11.875C13.7646 16.625 15.5769 15.8743 16.9131 14.5381C18.2493 13.2019 19 11.3897 19 9.5C19 7.61033 18.2493 5.79806 16.9131 4.46186C15.5769 3.12567 13.7646 2.375 11.875 2.375Z" fill="white"/>
</g>
<defs>
<clipPath id="clip0_1_24">
<rect width="19" height="19" fill="white"/>
</clipPath>
</defs>
</svg>
