<svg width="31" height="31" viewBox="0 0 31 31" fill="none" xmlns="http://www.w3.org/2000/svg">
<g clip-path="url(#clip0_1_37)">
<path d="M26.8918 2.3194H4.09883C2.00057 2.3194 0.300003 4.01996 0.300003 6.11822V25.1123C0.300003 27.2106 2.00057 28.9112 4.09883 28.9112H26.8918C28.99 28.9112 30.6906 27.2106 30.6906 25.1123V6.11822C30.6906 4.01996 28.9871 2.3194 26.8918 2.3194ZM15.3825 5.16852H19.4117L14.6631 9.91705H10.634L15.3825 5.16852ZM3.14912 7.90486L5.88309 5.16852H9.91222L5.16369 9.91705H3.14912V7.90486ZM27.8415 25.1123C27.8415 25.636 27.4154 26.0621 26.8918 26.0621H4.09883C3.57518 26.0621 3.14912 25.636 3.14912 25.1123V12.7662H27.8415V25.1123ZM27.8415 6.23337L24.1554 9.91705H20.1263L24.8748 5.16852H26.8918C27.4154 5.16852 27.8415 5.59458 27.8415 6.11822V6.23337ZM13.2813 24.1626C13.3976 24.1626 13.515 24.1294 13.6164 24.0628L19.9498 19.969C20.1311 19.8474 20.2438 19.6397 20.2438 19.3607C20.2438 19.0817 20.1313 18.925 19.9458 18.8055L13.6125 14.7116C13.4238 14.6359 13.1745 14.6359 12.9726 14.7487C12.7708 14.8615 12.6462 15.0811 12.6462 15.3185V23.5038C12.6462 23.7417 12.7711 23.9611 12.9726 24.0769C13.0676 24.133 13.1745 24.1626 13.2813 24.1626Z" fill="#FE7112"/>
</g>
<defs>
<clipPath id="clip0_1_37">
<rect width="30.3906" height="30.3906" fill="white" transform="translate(0.300003 0.419983)"/>
</clipPath>
</defs>
</svg>
