<svg width="32" height="31" viewBox="0 0 32 31" fill="none" xmlns="http://www.w3.org/2000/svg">
<g clip-path="url(#clip0_1_48)">
<path d="M27.9488 12.5762H23.0958C23.2644 13.0563 23.3687 13.5606 23.3687 14.0848C23.3687 15.3024 22.8946 16.4472 22.0335 17.3086L15.8353 23.5548V24.7344C15.8353 26.4087 17.1981 27.7715 18.8316 27.7715H27.9061C29.5847 27.7715 30.9024 26.4111 30.9024 24.7752V15.7008C30.9879 13.9391 29.6678 12.5762 27.9488 12.5762ZM23.3902 21.3135C22.761 21.3135 22.2933 20.8031 22.2933 20.2166C22.2933 19.587 22.8038 19.1197 23.3902 19.1197C23.9766 19.1197 24.4871 19.6297 24.4871 20.2166C24.5298 20.8054 24.0645 21.3135 23.3902 21.3135ZM21.8897 14.0863C21.8897 13.3084 21.5929 12.5306 20.9993 11.9371L13.4135 4.34845C12.82 3.75526 12.0507 3.45905 11.234 3.45905C10.4172 3.45905 9.70968 3.75526 9.11612 4.34845L1.52796 11.9366C0.936059 12.5287 0.639936 13.317 0.639936 14.053C0.639936 14.789 0.936055 15.5996 1.52934 16.1927L9.11749 23.7809C9.71106 24.3744 10.4889 24.6707 11.2667 24.6707C12.0445 24.6707 12.8223 24.374 13.4154 23.7809L21.0035 16.1927C21.5953 15.639 21.8897 14.8603 21.8897 14.0863ZM19.3919 14.6228L11.8038 22.211C11.6102 22.4045 11.3841 22.4335 11.2667 22.4335C11.1491 22.4335 10.923 22.4046 10.7297 22.211L3.14104 14.6228C2.9473 14.4282 2.91881 14.2002 2.91881 14.0863C2.91881 13.9723 2.94765 13.7427 3.14132 13.5492L10.7295 5.96105C10.9233 5.76731 11.1494 5.73839 11.267 5.73839C11.3846 5.73839 11.6105 5.76733 11.8041 5.96095L19.3922 13.5491C19.5859 13.7428 19.6148 13.9689 19.6148 14.0862C19.6148 14.2035 19.5819 14.4282 19.3919 14.6228ZM11.2672 17.7806C10.6599 17.7806 10.1703 18.2692 10.1703 18.8775C10.1703 19.5309 10.7045 19.9744 11.2672 19.9744C11.9192 19.9744 12.4068 19.4417 12.4068 18.8775C12.4068 18.3125 11.9178 17.7806 11.2672 17.7806ZM11.2672 12.9466C10.6138 12.9466 10.1703 13.4808 10.1703 14.0435C10.1703 14.6532 10.6613 15.1404 11.2672 15.1404C11.9182 15.1404 12.4068 14.6081 12.4068 14.0435C12.4068 13.4357 11.9178 12.9466 11.2672 12.9466ZM6.42845 12.9466C5.77505 12.9466 5.2888 13.4808 5.2888 14.0435C5.2888 14.6509 5.77742 15.1404 6.42845 15.1404C7.07947 15.1404 7.52536 14.6086 7.52536 14.0435C7.5681 13.4357 7.08375 12.9466 6.42845 12.9466ZM16.1012 12.9466C15.4478 12.9466 14.9616 13.4808 14.9616 14.0435C14.9616 14.6509 15.4502 15.1404 16.1012 15.1404C16.7522 15.1404 17.2409 14.6081 17.2409 14.0435C17.2409 13.4357 16.7518 12.9466 16.1012 12.9466ZM11.2672 8.10976C10.6599 8.10976 10.1703 8.59838 10.1703 9.20667C10.1703 9.86007 10.7045 10.3036 11.2672 10.3036C11.9192 10.3036 12.4068 9.77079 12.4068 9.20667C12.4068 8.63969 11.9178 8.10976 11.2672 8.10976Z" fill="#FE7112"/>
</g>
<defs>
<clipPath id="clip0_1_48">
<rect width="30.3906" height="30.3906" fill="white" transform="translate(0.639989 0.419983)"/>
</clipPath>
</defs>
</svg>
