<svg width="34" height="34" viewBox="0 0 34 34" fill="none" xmlns="http://www.w3.org/2000/svg">
<path d="M5.48542 15.9861C4.80197 16.3261 4.05696 16.6262 3.2541 16.8939C2.25469 17.235 2.19373 18.6167 3.13119 19.0456C4.64764 19.7444 6.6551 19.8042 8.3207 19.0131C8.15077 18.2392 8.17966 17.4183 8.40384 16.5503C7.43425 16.4253 6.42766 16.2457 5.48542 15.9861Z" fill="#FE7112"/>
<path d="M28.5146 15.9861C27.5071 16.2597 26.5241 16.4307 25.5962 16.5503C25.8203 17.4183 25.8493 18.2392 25.683 19.0131C27.5671 19.9064 29.5923 19.6315 30.8688 19.0456C31.2955 18.8504 31.5596 18.4163 31.5343 17.939C31.4746 16.8058 30.5534 17.0002 28.5146 15.9861Z" fill="#FE7112"/>
<path d="M4.72235 8.03009C4.67533 6.49677 5.47094 5.16233 7.22487 3.82783C7.35509 3.73021 7.39845 3.55663 7.32979 3.41193C7.26471 3.26006 7.10919 3.17692 6.94643 3.21304C2.62849 4.08097 0.473077 5.98325 0.357398 9.03541C0.179097 13.7311 3.97607 15.2467 8.62086 15.8523C8.67146 15.7112 8.72571 15.5703 8.78721 15.4256V11.3065C8.78721 10.8436 8.88124 10.3988 9.05482 9.99737C7.08953 10.0872 4.78736 9.92764 4.72235 8.03009Z" fill="#FE7112"/>
<path d="M27.0536 3.21304C26.8908 3.17692 26.7354 3.26006 26.6702 3.41193C26.6015 3.55656 26.6449 3.73021 26.7751 3.82783C28.5291 5.16233 29.3247 6.4967 29.2777 8.03009C29.2121 9.94385 26.8679 10.0853 24.9452 9.99744C25.1188 10.3989 25.2128 10.8437 25.2128 11.3066V15.4256C25.2743 15.5703 25.3285 15.7113 25.3791 15.8523C30.0171 15.2476 33.821 13.735 33.6426 9.03548C33.5269 5.98324 31.3715 4.08097 27.0536 3.21304Z" fill="#FE7112"/>
<path d="M14.6242 28.5044C14.3538 28.5044 14.0936 28.4583 13.8465 28.3811V28.7737C13.8465 29.6561 14.454 30.4263 15.2894 30.6072C16.4138 30.8578 17.5848 30.8581 18.7106 30.6072C19.5459 30.4263 20.1535 29.656 20.1535 28.7737V28.3811C19.9064 28.4582 19.6462 28.5044 19.3757 28.5044H14.6242Z" fill="#FE7112"/>
<path d="M24.4896 11.3063C24.4896 10.3153 23.9213 9.39268 23.01 9.00301C19.836 7.6456 18.6588 9.04949 15.3436 8.5033C13.8227 8.25275 12.3421 8.42594 10.991 9.00347C10.0793 9.39308 9.51044 10.3158 9.51044 11.3073V15.574C8.45086 17.9716 8.84863 19.8883 10.7762 21.6206C11.3116 22.0378 11.5938 22.5939 11.6407 23.3205C11.974 22.6729 12.4922 22.0156 13.2123 21.4473C13.3688 21.324 13.5965 21.3512 13.7202 21.5073C13.8438 21.6638 13.8169 21.8912 13.6602 22.0152C12.2846 23.1012 11.7457 24.5495 11.9375 25.3611C12.0138 25.6835 12.197 25.877 12.4827 25.936C12.6271 25.966 12.7391 26.0808 12.7653 26.2263C12.927 27.1273 13.7089 27.7813 14.6243 27.7813H19.3757C20.2912 27.7813 21.073 27.1273 21.2348 26.226C21.261 26.0805 21.3728 25.9657 21.5173 25.9357C21.803 25.8767 21.9864 25.6831 22.0626 25.3611C22.2544 24.5495 21.7158 23.1012 20.3399 22.0152C20.1831 21.8912 20.1562 21.6638 20.2799 21.5073C20.4035 21.3512 20.632 21.324 20.7877 21.4473C21.5079 22.0158 22.0261 22.6732 22.3594 23.321C22.4062 22.594 22.6892 22.0372 23.2456 21.6025C25.1514 19.8883 25.5492 17.9716 24.4896 15.574V11.3063H24.4896ZM12.1586 16.9178C11.6348 16.2313 11.5472 15.383 11.761 14.6131C12.9171 14.9444 13.7713 15.8115 14.4726 16.951C13.7851 17.7759 12.7398 17.6794 12.1586 16.9178ZM15.1246 25.8561C14.8427 26.1379 14.3858 26.1384 14.104 25.8566C13.8221 25.5748 13.8221 25.1173 14.104 24.8355C14.3858 24.5537 15.617 24.3436 15.617 24.3436C15.617 24.3436 15.4064 25.5744 15.1246 25.8561ZM19.897 25.8566C19.6152 26.1385 19.1583 26.1379 18.8764 25.8561C18.5946 25.5743 18.384 24.3436 18.384 24.3436C18.384 24.3436 19.6152 24.5537 19.897 24.8355C20.1789 25.1173 20.1789 25.5748 19.897 25.8566ZM21.8413 16.9178C21.2602 17.6793 20.2149 17.7759 19.5274 16.951C20.2287 15.8114 21.0829 14.9444 22.239 14.6131C22.4529 15.383 22.3652 16.2313 21.8413 16.9178Z" fill="#FE7112"/>
</svg>
