<svg width="31" height="31" viewBox="0 0 31 31" fill="none" xmlns="http://www.w3.org/2000/svg">
<g clip-path="url(#clip0_1_95)">
<path d="M10.5321 13.9889L12.3603 19.4141H18.0882L19.8463 13.9901L15.2153 10.6353L10.5321 13.9889ZM15.1619 0.419983C6.82228 0.419983 0.0200195 7.22225 0.0200195 15.6153C0.0200195 24.0083 6.82228 30.8106 15.2153 30.8106C23.6083 30.8106 30.3572 24.0083 30.3572 15.6687C30.3572 7.3291 23.6083 0.419983 15.1619 0.419983ZM25.852 21.8537L19.6849 21.76L17.8644 27.6672C17.0079 27.8546 16.1235 27.9615 15.2153 27.9615C14.3072 27.9615 13.4233 27.8562 12.5704 27.6688L10.7517 21.7646L4.58038 21.8537C3.69419 20.349 3.10893 18.6478 2.93027 16.825L7.99161 13.2648L5.99723 7.43C7.17546 6.10397 8.62791 5.02903 10.2733 4.30666L15.2153 8.01763L20.1591 4.30962C21.8045 5.03199 23.257 6.10635 24.4352 7.43297L22.439 13.2648L27.498 16.8244C27.2706 18.6484 26.7364 20.3519 25.852 21.8537Z" fill="#FE7112"/>
</g>
<defs>
<clipPath id="clip0_1_95">
<rect width="30.3906" height="30.3906" fill="white" transform="translate(0.0200195 0.419983)"/>
</clipPath>
</defs>
</svg>
