<svg width="32" height="31" viewBox="0 0 32 31" fill="none" xmlns="http://www.w3.org/2000/svg">
<g clip-path="url(#clip0_1_65)">
<path d="M15.8553 15.6153C11.1439 15.6153 4.45883 22.9013 4.45883 27.5015C4.45883 29.5715 6.04662 30.8106 8.71767 30.8106C11.6187 30.8106 13.533 29.3193 15.8553 29.3193C18.1999 29.3193 20.1216 30.8106 22.9929 30.8106C25.664 30.8106 27.2518 29.5715 27.2518 27.5015C27.2518 22.9013 20.5667 15.6153 15.8553 15.6153Z" fill="#FE7112"/>
<path opacity="0.4" d="M12.1455 13.6343C13.9782 13.152 14.8982 10.6664 14.1933 8.09183C13.8075 6.67469 13.0062 5.53949 12.0565 4.87173V0.419983L8.25765 5.16851C7.3673 6.22209 7.04084 8.00279 7.54537 9.84285C8.25023 12.4174 10.3055 14.1165 12.1455 13.6343ZM19.5651 13.6343C21.4051 14.1165 23.4604 12.4174 24.1652 9.84285C24.6698 8.00279 24.3433 6.22209 23.453 5.16851L19.6541 0.419983V4.87173C18.7044 5.53949 17.9031 6.67469 17.5173 8.09183C16.8124 10.6664 17.7325 13.152 19.5651 13.6343ZM7.11504 14.8659C6.6847 13.4413 5.63854 12.3803 4.45883 11.9871V8.01763L1.7581 11.72C1.04582 12.6994 0.660004 13.8791 0.660004 15.0885C0.660004 15.4966 0.72678 15.9269 0.852913 16.3647C1.46874 18.4199 3.37557 19.7554 5.10433 19.3399C6.83309 18.9244 7.73086 16.9212 7.11504 14.8659ZM29.9525 11.72L27.2518 8.01763V11.9945C26.0721 12.3803 25.0259 13.4413 24.5956 14.8659C23.9797 16.9212 24.8775 18.9244 26.6063 19.3399C28.335 19.7554 30.2419 18.4199 30.8577 16.3647C30.9838 15.9343 31.0506 15.504 31.0506 15.0885C31.0506 13.8791 30.6648 12.6994 29.9525 11.72Z" fill="#FE7112"/>
</g>
<defs>
<clipPath id="clip0_1_65">
<rect width="30.3906" height="30.3906" fill="white" transform="translate(0.660004 0.419983)"/>
</clipPath>
</defs>
</svg>
