<svg width="31" height="31" viewBox="0 0 31 31" fill="none" xmlns="http://www.w3.org/2000/svg">
<g clip-path="url(#clip0_1_88)">
<path d="M13.6359 15.6153C13.6359 14.5647 14.4847 13.7159 15.5353 13.7159C16.5859 13.7159 17.4347 14.5647 17.4347 15.6153C17.4347 16.6659 16.5859 17.5147 15.5353 17.5147C14.4847 17.5147 13.6359 16.6659 13.6359 15.6153ZM30.7306 15.6153C30.7306 24.0083 23.9283 30.8106 15.5353 30.8106C7.14224 30.8106 0.339966 24.0083 0.339966 15.6153C0.339966 7.22225 7.14224 0.419983 15.5353 0.419983C23.9283 0.419983 30.7306 7.22225 30.7306 15.6153ZM15.5353 4.21881C9.19004 4.21881 4.13879 9.27006 4.13879 15.6153C4.13879 21.9071 9.19004 27.0118 15.5353 27.0118C21.8271 27.0118 26.9317 21.9071 26.9317 15.6153C26.9317 9.27006 21.8271 4.21881 15.5353 4.21881Z" fill="#FE7112"/>
<path opacity="0.4" d="M6.98792 15.6153C6.98792 10.8964 10.8164 7.06793 15.5353 7.06793C20.2541 7.06793 24.0826 10.8964 24.0826 15.6153C24.0826 20.3341 20.2541 24.1626 15.5353 24.1626C10.8164 24.1626 6.98792 20.3341 6.98792 15.6153ZM15.5353 20.3638C18.1588 20.3638 20.2838 18.2389 20.2838 15.6153C20.2838 12.9917 18.1588 10.8668 15.5353 10.8668C12.9117 10.8668 10.7867 12.9917 10.7867 15.6153C10.7867 18.2389 12.9117 20.3638 15.5353 20.3638Z" fill="#FE7112"/>
</g>
<defs>
<clipPath id="clip0_1_88">
<rect width="30.3906" height="30.3906" fill="white" transform="translate(0.339966 0.419983)"/>
</clipPath>
</defs>
</svg>
