<svg width="43" height="38" viewBox="0 0 43 38" fill="none" xmlns="http://www.w3.org/2000/svg">
<path d="M11.7784 22.702C11.6857 22.511 11.636 22.3021 11.6329 22.0898C11.6298 21.8776 11.6733 21.6673 11.7604 21.4737C11.8475 21.2802 11.976 21.1081 12.1369 20.9696C12.2978 20.8312 12.4871 20.7298 12.6915 20.6725L12.7406 20.6578C13.0719 20.5677 13.4243 20.5966 13.7364 20.7396C14.0485 20.8826 14.3006 21.1305 14.4487 21.4403C15.3426 23.2635 16.8147 24.7397 18.6354 25.6387C20.4561 26.5377 22.5231 26.8089 24.5142 26.4101C26.5052 26.0112 28.3083 24.9648 29.6422 23.4339C30.9762 21.903 31.7661 19.9737 31.8888 17.9468C32.0114 15.92 31.4599 13.9095 30.3203 12.2289C29.1806 10.5483 27.5169 9.29205 25.5885 8.65604C23.6601 8.02004 21.5755 8.04004 19.6596 8.7129C17.7438 9.38577 16.1045 10.6737 14.9973 12.3758L16.1884 12.2708C16.5701 12.2513 16.9446 12.3805 17.233 12.6313C17.5214 12.8821 17.7014 13.235 17.735 13.6157C17.7686 13.9965 17.6533 14.3755 17.4132 14.6729C17.1732 14.9704 16.8272 15.1632 16.4479 15.2108L11.6326 15.635C11.5906 15.6388 11.5465 15.6405 11.5024 15.6405C11.1339 15.6402 10.7788 15.5022 10.5068 15.2535C10.2349 15.0049 10.0657 14.6635 10.0324 14.2965L9.64184 9.84449C9.62264 9.46291 9.75208 9.08875 10.003 8.8006C10.2539 8.51246 10.6066 8.33276 10.9872 8.29927C11.3678 8.26578 11.7466 8.3811 12.0439 8.621C12.3413 8.8609 12.5341 9.20671 12.5818 9.58577L12.6658 10.5463C14.1706 8.34134 16.3604 6.69395 18.896 5.85919C21.4317 5.02443 24.1718 5.04886 26.6921 5.9287C29.2125 6.80855 31.3725 8.49472 32.8377 10.7262C34.303 12.9576 34.9917 15.6099 34.7974 18.2723C34.603 20.9347 33.5363 23.4588 31.7625 25.4538C29.9887 27.4488 27.6067 28.8034 24.9853 29.3078C22.3638 29.8123 19.6492 29.4384 17.2617 28.2443C14.8742 27.0501 12.947 25.1021 11.7784 22.702ZM25.5834 21.6368L21.3544 19.444C21.1141 19.3197 20.9127 19.1318 20.7719 18.9008C20.6312 18.6698 20.5567 18.4045 20.5564 18.134V13.4901C20.5629 13.1028 20.7213 12.7336 20.9975 12.462C21.2737 12.1905 21.6455 12.0383 22.0329 12.0383C22.4202 12.0383 22.7921 12.1905 23.0682 12.462C23.3444 12.7336 23.5029 13.1028 23.5094 13.4901V17.2365L26.9404 19.016C27.285 19.1978 27.5438 19.5085 27.6602 19.8803C27.7767 20.2521 27.7414 20.6549 27.562 21.0008C27.3827 21.3467 27.0738 21.6077 26.7028 21.7267C26.3319 21.8458 25.9288 21.8133 25.5817 21.6364L25.5834 21.6368Z" fill="white"/>
</svg>
