<svg width="29" height="29" viewBox="0 0 29 29" fill="none" xmlns="http://www.w3.org/2000/svg">
<g clip-path="url(#clip0_1_677)">
<path d="M25.375 7.24999H6.04167C5.00371 7.24999 4.02133 6.80049 3.34104 6.04286C4.00563 5.30095 4.97108 4.83332 6.04167 4.83332H27.7917C28.4599 4.83332 29 4.29199 29 3.62499C29 2.95799 28.4599 2.41666 27.7917 2.41666H6.04167C2.70546 2.41666 0 5.12211 0 8.45832V20.5417C0 23.8779 2.70546 26.5833 6.04167 26.5833H25.375C27.3772 26.5833 29 24.9605 29 22.9583V10.875C29 8.87278 27.3772 7.24999 25.375 7.24999ZM26.5833 22.9583C26.5833 23.6241 26.042 24.1667 25.375 24.1667H6.04167C4.04308 24.1667 2.41667 22.5402 2.41667 20.5417V8.45591C3.44858 9.22803 4.71733 9.66666 6.04167 9.66666H25.375C26.042 9.66666 26.5833 10.2092 26.5833 10.875V22.9583ZM24.1667 16.9167C24.1667 17.5837 23.6253 18.125 22.9583 18.125C22.2913 18.125 21.75 17.5837 21.75 16.9167C21.75 16.2497 22.2913 15.7083 22.9583 15.7083C23.6253 15.7083 24.1667 16.2497 24.1667 16.9167Z" fill="white"/>
</g>
<defs>
<clipPath id="clip0_1_677">
<rect width="29" height="29" fill="white"/>
</clipPath>
</defs>
</svg>
