<svg width="33" height="33" viewBox="0 0 33 33" fill="none" xmlns="http://www.w3.org/2000/svg">
<g clip-path="url(#clip0_247_123)">
<path d="M28.875 8.25H6.875C5.69387 8.25 4.576 7.7385 3.80188 6.87638C4.55813 6.03213 5.65675 5.5 6.875 5.5H31.625C33.4235 5.49175 33.4221 2.75688 31.625 2.75H6.875C3.07863 2.75 0 5.82863 0 9.625V23.375C0 27.1714 3.07863 30.25 6.875 30.25H28.875C31.1534 30.25 33 28.4034 33 26.125V12.375C33 10.0966 31.1534 8.25 28.875 8.25ZM27.5 20.625C25.7015 20.6168 25.7015 17.8833 27.5 17.875C29.2985 17.8833 29.2985 20.6168 27.5 20.625Z" fill="#BBBDBE"/>
</g>
<defs>
<clipPath id="clip0_247_123">
<rect width="33" height="33" fill="white"/>
</clipPath>
</defs>
</svg>
