<svg width="47" height="36" viewBox="0 0 47 36" fill="none" xmlns="http://www.w3.org/2000/svg">
<path d="M46.0377 15.1601C43.9891 14.9429 43.4622 13.4744 42.8735 11.9856C41.6903 9.00226 39.9066 6.38097 37.284 4.51855C29.5341 -0.984705 21.3073 -1.32938 12.8245 2.77199C12.0563 3.14274 11.5559 3.08191 10.823 2.78648C9.7045 2.34042 8.51243 1.99574 7.32036 1.84513C6.50799 1.74086 5.64263 2.04209 4.79788 2.16084C5.11282 2.9255 5.31591 3.75679 5.75742 4.44325C7.60587 7.31942 7.63236 7.30494 5.67795 10.0044C5.62203 10.0826 5.6132 10.1956 5.55138 10.2651C4.51237 11.4527 3.68233 13.0225 2.37253 13.709C1.00385 14.4273 0.312155 15.2296 0.173816 16.5997C0.053137 17.793 -0.0645984 19.0124 0.0443069 20.1999C0.320985 23.1862 1.47774 25.0312 4.28278 25.932C7.547 26.9805 10.0047 28.9994 10.617 32.6026C10.6994 33.0747 10.8524 33.5352 10.9937 33.9957C11.4058 35.3513 12.2093 36.0204 13.7752 35.9769C17.1836 35.8842 17.1866 35.9537 18.311 32.759C21.8636 33.5642 25.4487 33.5005 29.0396 32.7908C29.3222 32.7358 29.8932 33.1674 30.0374 33.4947C31.1059 35.9364 31.0823 35.9451 33.752 35.9451C34.1935 35.9451 34.7056 36.087 35.0588 35.9132C35.777 35.5569 36.6718 35.1717 37.0162 34.5432C37.5548 33.5526 37.6902 32.3506 38.0199 31.2441C38.4143 29.906 38.4378 28.1884 39.3179 27.3223C41.4342 25.2398 42.6557 22.7488 43.8301 20.1623C44.2039 19.3368 44.7396 18.8328 45.7757 18.6619C46.2908 18.575 46.9796 17.6395 47.0002 17.0689C47.0237 16.4143 46.4527 15.2036 46.0377 15.1601ZM10.2873 15.7684C8.98926 15.7597 7.99734 14.7575 8.015 13.4686C8.03266 12.2984 9.07462 11.3223 10.3079 11.3281C11.603 11.3368 12.6597 12.3824 12.6302 13.6308C12.6037 14.7285 11.4617 15.7742 10.2873 15.7684ZM19.5678 10.4273C20.4067 10.1319 21.0277 9.85382 21.9902 9.72348C22.5877 9.64238 23.4236 9.57286 24.4332 9.625C25.4605 9.54679 26.3052 9.61341 26.8968 9.69162C27.8211 9.81616 28.4127 10.0739 29.2074 10.3607C29.7784 10.5663 30.4642 11.3687 30.473 11.9074C30.4819 12.4201 29.7784 13.176 29.2074 13.4309C26.0256 14.8415 22.7731 14.9052 19.6002 13.4049C19.035 13.1355 18.4081 12.4027 18.361 11.8379C18.3227 11.386 19.0321 10.6156 19.5678 10.4273ZM18.3463 13.6511C22.4347 15.864 26.5054 15.8871 30.735 13.4831C30.6261 14.2999 30.7674 15.2412 30.3582 15.7365C29.9491 16.226 28.913 16.1507 28.2743 16.5215C25.64 18.0508 22.9497 17.6945 20.2448 16.869C18.4611 16.3245 18.0578 15.5511 18.3463 13.6511ZM18.2668 20.0233C20.3566 20.5852 22.4199 21.1413 24.7658 21.7727C24.8541 22.0971 25.0395 22.7691 25.2279 23.444C21.1543 24.2463 18.0902 22.6069 18.2668 20.0233ZM22.5818 20.3795C21.7253 20.281 20.857 20.0609 20.0535 19.7423C18.3728 19.0761 18.049 18.3781 18.3816 16.4461C20.4567 18.3636 23.0763 18.2333 25.6341 18.3433C24.6893 21.0254 25.1396 20.6808 22.5818 20.3795ZM30.3435 25.7061C27.9506 25.7698 25.902 23.8263 25.9078 21.4918C25.9108 19.1688 27.8122 17.176 30.0639 17.1355C32.4598 17.0921 34.4466 19.0066 34.4731 21.3788C34.4996 23.7626 32.7041 25.6424 30.3435 25.7061Z" fill="white"/>
</svg>
