<svg width="43" height="38" viewBox="0 0 43 38" fill="none" xmlns="http://www.w3.org/2000/svg">
<path d="M22.332 32.5398L22.3299 32.5368C21.4445 31.289 20.5147 29.5918 21.1879 27.5254C21.2771 27.3292 21.2913 27.1071 21.2279 26.9012C21.1646 26.6952 21.028 26.5195 20.8439 26.4074C18.9665 24.9853 18.3239 22.9869 18.9304 20.4677C19.1602 19.7589 19.545 19.1101 20.0569 18.5685C21.0367 17.4148 22.4307 16.5974 24.319 16.0708C24.991 15.8839 25.6844 15.7406 26.3564 15.602C26.9864 15.4727 27.6341 15.3387 28.2624 15.1694C28.87 14.9994 29.4427 14.7233 29.9542 14.3538C30.0888 14.2624 30.1996 14.1401 30.2773 13.9971C30.355 13.8541 30.3973 13.6946 30.4006 13.5318C30.3976 13.3722 30.3563 13.2157 30.2803 13.0753C30.2043 12.9349 30.0958 12.8148 29.9638 12.725C29.5086 12.4327 29.0135 12.2078 28.4938 12.0572L28.2649 11.9778C28.0609 11.9203 27.8493 11.8943 27.6374 11.901C27.5186 11.8976 27.3964 11.8943 27.2632 11.8838C27.4319 11.5904 27.6668 11.3404 27.9491 11.1537C28.2314 10.9671 28.5534 10.8489 28.8895 10.8086C29.3023 10.7354 29.7205 10.6965 30.1398 10.6922C30.6989 10.6615 31.2569 10.7717 31.7624 11.0126C32.2679 11.2535 32.7048 11.6175 33.0332 12.0711C33.171 12.1968 33.3506 12.2668 33.5372 12.2677C33.5833 12.2705 33.6293 12.2603 33.6699 12.2383C35.294 11.1576 36.3692 10.0458 37.0538 8.73881C37.0681 8.69707 37.0713 8.65236 37.0631 8.60903C37.0606 8.56703 37.0576 8.51747 37.0576 8.45069C36.9014 8.40323 36.7464 8.34653 36.5822 8.28605C36.2298 8.1384 35.8591 8.0388 35.4801 7.98995C34.9341 7.94795 34.3776 7.88411 33.8421 7.82195C32.8131 7.68776 31.7775 7.61064 30.74 7.59095C30.2486 7.58891 29.7575 7.61865 29.27 7.67999C29.081 7.70435 28.8886 7.72619 28.7021 7.74719C27.6874 7.86227 26.6399 7.98113 25.7033 8.56661C24.4879 9.32261 23.8394 10.1626 23.6008 11.2773C23.5658 11.4067 23.5137 11.5309 23.4458 11.6465L23.4328 11.6708C23.4076 11.7027 23.374 11.727 23.3358 11.741C23.3085 11.7552 23.2778 11.7708 23.2434 11.7922C22.7104 11.3584 22.8654 10.7842 23.0057 10.2764L23.0158 10.239C23.1293 9.88399 23.2858 9.54408 23.4815 9.22685C23.5655 9.07649 23.6529 8.92067 23.7335 8.76023C23.0452 8.80223 22.547 9.27641 22.2127 10.213C22.0545 10.6993 21.9343 11.197 21.8532 11.7019C21.8041 11.9606 21.7532 12.2282 21.6907 12.5142C20.8985 11.612 21.1652 10.8275 21.4235 10.0685C21.5335 9.77952 21.613 9.47984 21.6608 9.17435C20.4722 9.86903 20.3122 11.0018 20.143 12.2009C20.1131 12.4109 20.0825 12.6284 20.0459 12.841C19.8323 12.736 19.6525 12.5732 19.5268 12.3711C19.4011 12.169 19.3346 11.9357 19.3349 11.6977C19.3124 11.5247 19.2726 11.3545 19.216 11.1895C17.8136 12.074 16.6318 13.9233 16.1328 16.0157C15.5217 18.5877 15.9471 21.2968 17.3172 23.5577C17.2277 23.4682 17.1345 23.38 17.0438 23.2943C16.8392 23.1091 16.6471 22.9106 16.4688 22.7C16.066 22.204 15.7514 21.9172 15.3348 21.9172C14.9886 21.9469 14.6541 22.0566 14.3575 22.2376C14.1714 22.333 13.9916 22.4401 13.7829 22.564C13.6796 22.6257 13.5708 22.69 13.4511 22.7597C13.4113 21.898 13.6702 21.0489 14.184 20.356C14.6095 19.7735 14.8249 19.243 14.4944 18.55C14.4148 18.3419 14.3775 18.12 14.3848 17.8973C14.3823 17.7733 14.373 17.6495 14.357 17.5265C14.3297 17.345 14.2898 17.164 14.2512 16.9889C14.2319 16.9011 14.213 16.8146 14.1958 16.7293C14.1353 16.7352 14.0849 16.7369 14.0441 16.7386C13.9778 16.7407 13.9375 16.7423 13.9274 16.7604C13.583 17.3715 13.0571 17.4198 12.4561 17.4198H12.3335H12.0672C9.67691 17.4218 7.29634 17.7241 4.98138 18.3194L4.86 18.1657C5.03388 17.9948 5.20776 17.8175 5.37576 17.6458C5.742 17.2719 6.12 16.886 6.52446 16.5441C8.81509 14.5642 11.4303 12.9945 14.255 11.9044C14.4937 11.8139 14.7121 11.677 14.8976 11.5016C15.0831 11.3262 15.232 11.1158 15.3356 10.8825C16.2463 8.97047 17.7083 7.37475 19.5335 6.30071C19.7206 6.18846 19.9016 6.06635 20.0758 5.93489C20.1598 5.87315 20.2471 5.80889 20.3374 5.74757C20.2725 5.67032 20.1911 5.60855 20.0993 5.56677C20.0075 5.52498 19.9074 5.50425 19.8065 5.50607C19.5445 5.52451 19.2917 5.61014 19.0724 5.75471L19.0463 5.77025C19.2061 4.32312 19.02 2.85874 18.5033 1.49759H18.5419C18.7259 1.49759 18.9149 1.48877 19.0976 1.47995C19.2925 1.46945 19.4941 1.45979 19.691 1.45979C19.9186 1.45681 20.1459 1.4748 20.3702 1.51355C22.7627 1.9024 25.0499 2.77826 27.0902 4.08689C27.6643 4.46529 28.3305 4.68058 29.0176 4.70975C32.2685 4.98336 35.4148 5.99242 38.2185 7.66067C38.3323 7.73544 38.4345 7.82658 38.5217 7.93115C38.5705 7.98365 38.6209 8.03783 38.6763 8.09075C37.5003 10.825 35.4898 12.883 32.5325 14.3836C31.8185 14.7448 31.081 15.085 30.367 15.4135C29.6702 15.7343 28.9508 16.0657 28.2557 16.416C27.9403 16.5748 27.7979 16.7029 27.7794 16.8448C27.7601 16.9935 27.8743 17.1619 28.1738 17.4261C29.6863 18.739 30.7734 20.4727 31.2965 22.406C31.4737 23.1532 31.5794 23.9156 31.6119 24.6828C31.6316 24.9475 31.6539 25.2209 31.6778 25.4876C31.6739 25.6941 31.6043 25.894 31.4792 26.0584C31.0179 25.1232 30.2949 24.3421 29.3981 23.8101C27.5219 22.5169 25.2695 21.0944 22.789 20.3518C22.7734 20.3479 22.759 20.3407 22.7466 20.3306C22.7341 20.3205 22.7241 20.3078 22.7171 20.2934C22.6697 20.1939 22.7495 19.9969 22.8339 19.7894C22.9343 19.5425 23.0376 19.2854 22.949 19.1552C22.9212 19.1224 22.8856 19.0971 22.8454 19.0816C22.8053 19.0661 22.7619 19.0609 22.7192 19.0666C22.617 19.0697 22.5155 19.0848 22.4168 19.1116C21.7825 19.2851 21.2271 19.6716 20.8439 20.2061C20.9815 20.4153 21.1301 20.617 21.2891 20.8105C21.7301 21.367 22.1863 21.9419 22.0401 22.7878C21.8721 22.7038 21.7163 22.6198 21.5642 22.5358C21.2611 22.3564 20.9416 22.2062 20.61 22.0872C20.5079 22.0525 20.4011 22.0336 20.2933 22.031C20.2318 22.0273 20.1702 22.0372 20.1129 22.06C20.0557 22.0828 20.0041 22.1179 19.9619 22.1629C19.9051 22.2469 19.8665 22.3418 19.8484 22.4416C19.8303 22.5414 19.8332 22.6438 19.8569 22.7425C19.9319 23.2577 20.1135 23.7517 20.3901 24.1928C20.6667 24.6339 21.0323 25.0125 21.4634 25.3045C21.6011 25.414 21.7714 25.4743 21.9473 25.4758C22.1826 25.4566 22.4114 25.389 22.6193 25.2772C22.6651 25.2566 22.7104 25.2352 22.7562 25.2167C23.638 24.829 24.5894 24.6245 25.5526 24.6157C26.6662 24.627 27.7612 24.9036 28.7467 25.4225C28.774 25.4368 28.7933 25.4645 28.8307 25.5187C28.8559 25.5544 28.8869 25.5984 28.9331 25.6572C27.1675 25.7914 25.5072 26.5497 24.2497 27.7963C22.841 29.1987 22.2136 30.7489 22.3307 32.5347L22.332 32.5398ZM28.4795 5.73413C28.4409 5.73413 28.4178 5.76185 28.4027 5.82695C28.4003 5.92441 28.4189 6.02125 28.4573 6.11087L28.469 6.14615C28.526 6.34165 28.6345 6.51821 28.7832 6.65729C29.0896 6.92944 29.4798 7.08874 29.8891 7.10879C30.0913 7.11732 30.2888 7.04562 30.4384 6.90929C30.4842 6.86862 30.5184 6.81663 30.5377 6.75854C30.5571 6.70045 30.5608 6.6383 30.5485 6.57833C30.5448 6.56188 30.5392 6.54595 30.5317 6.53087C30.459 6.4277 30.3501 6.35571 30.2267 6.32927L28.6433 5.78579C28.6202 5.77781 28.5988 5.76941 28.5791 5.76143C28.5477 5.74679 28.514 5.73756 28.4795 5.73413Z" fill="white"/>
</svg>
