<svg width="43" height="42" viewBox="0 0 43 42" fill="none" xmlns="http://www.w3.org/2000/svg">
<g clip-path="url(#clip0_1_334)">
<path d="M20.3847 10.9284C20.5412 10.5399 20.8103 10.207 21.1574 9.97259C21.5046 9.73817 21.9138 9.61292 22.3327 9.61292C22.7516 9.61292 23.1609 9.73817 23.508 9.97259C23.8551 10.207 24.1242 10.5399 24.2807 10.9284L25.9254 15.0163C26.0735 15.3839 26.3225 15.7021 26.6438 15.9341C26.9651 16.1662 27.3455 16.3025 27.741 16.3275L32.1389 16.6043C32.56 16.6309 32.9634 16.7837 33.2964 17.0428C33.6294 17.302 33.8766 17.6554 34.0058 18.0571C34.135 18.4588 34.1402 18.8901 34.0207 19.2948C33.9012 19.6995 33.6625 20.0588 33.3359 20.3259L29.9893 23.0622C29.6786 23.3162 29.4472 23.6539 29.3225 24.0352C29.1977 24.4166 29.1848 24.8258 29.2854 25.2143L30.3702 29.3996C30.4761 29.8063 30.4575 30.2355 30.3168 30.6315C30.1761 31.0276 29.9199 31.3723 29.5811 31.6211C29.2424 31.8699 28.8368 32.0113 28.4168 32.0271C27.9968 32.0429 27.5817 31.9323 27.2253 31.7096L23.4453 29.3492C23.1115 29.1406 22.7259 29.03 22.3323 29.03C21.9387 29.03 21.553 29.1406 21.2193 29.3492L17.4393 31.7096C17.0828 31.9323 16.6678 32.0429 16.2478 32.0271C15.8278 32.0113 15.4222 31.8699 15.0835 31.6211C14.7447 31.3723 14.4884 31.0276 14.3477 30.6315C14.2071 30.2355 14.1885 29.8063 14.2943 29.3996L15.38 25.2143C15.4807 24.8258 15.468 24.4166 15.3433 24.0351C15.2186 23.6536 14.9872 23.3158 14.6765 23.0618L11.3295 20.3263C11.0027 20.0592 10.7639 19.6998 10.6443 19.295C10.5248 18.8902 10.53 18.4587 10.6593 18.0569C10.7886 17.655 11.036 17.3015 11.3693 17.0424C11.7025 16.7833 12.1061 16.6306 12.5274 16.6043L16.9235 16.3271C17.3191 16.3021 17.6995 16.1657 18.0208 15.9337C18.342 15.7017 18.5911 15.3835 18.7392 15.0158L20.3847 10.9284Z" fill="white"/>
</g>
<defs>
<clipPath id="clip0_1_334">
<rect width="42" height="42" fill="white" transform="translate(0.890015)"/>
</clipPath>
</defs>
</svg>
